<svg xmlns="http://www.w3.org/2000/svg" id="ic_edit" width="25" height="25" viewBox="0 0 25 25">
    <defs>
        <style>
            .cls-1{fill:none;stroke:rgba(0,0,0,.12);stroke-miterlimit:10}.cls-2{fill:#00bcd4}
        </style>
    </defs>
    <circle id="Oval" cx="12" cy="12" r="12" class="cls-1" transform="translate(.5 .5)"/>
    <path id="j" d="M2.832 10.314H0V7.421l5.263-5.344L8.1 4.971l-5.267 5.343zM9 4.006L6.168 1.314 7.332.089A.335.335 0 0 1 7.58 0a.988.988 0 0 1 .3.059 1.378 1.378 0 0 1 .598.351L9.763 1.7a1.777 1.777 0 0 1 .452.533c.127.22.131.385.011.492L9 4.005z" class="cls-2" transform="translate(8 7)"/>
</svg>
