<svg xmlns="http://www.w3.org/2000/svg" width="31.987" height="32" viewBox="0 0 31.987 32">
    <defs>
        <style>
            .cls-1{fill:#fff;stroke:rgba(0,0,0,.12);stroke-miterlimit:10;stroke-width:.5px}.cls-2{fill:#f4511e}.cls-3{stroke:none}.cls-4{fill:none}
        </style>
    </defs>
    <g id="ic_google_plus" transform="translate(-1)">
        <g id="Group_2" data-name="Group 2">
            <g id="Oval_3" class="cls-1" data-name="Oval 3" transform="translate(1)">
                <ellipse cx="15.993" cy="16" class="cls-3" rx="15.993" ry="16"/>
                <ellipse cx="15.993" cy="16" class="cls-4" rx="15.743" ry="15.75"/>
            </g>
            <path id="T" d="M5.557 11.66a5.268 5.268 0 0 1-3.92-1.7A5.766 5.766 0 0 1 0 5.829 5.765 5.765 0 0 1 1.636 1.7 5.265 5.265 0 0 1 5.557 0a5.231 5.231 0 0 1 3.716 1.535A23.049 23.049 0 0 0 7.7 3.238a3.156 3.156 0 0 0-2.148-.851 3.038 3.038 0 0 0-2.3 1.005 3.461 3.461 0 0 0-.937 2.437 3.463 3.463 0 0 0 .937 2.438 3.038 3.038 0 0 0 2.3 1.005A3.057 3.057 0 0 0 7.5 8.727a3.519 3.519 0 0 0 1.057-1.738h-3V4.67h5.318a8.185 8.185 0 0 1-.05 2.284 7.829 7.829 0 0 1-.734 2.25 4.249 4.249 0 0 1-1.722 1.773 5.539 5.539 0 0 1-2.812.683zm9.989-3.342h-1.4V6.239h-1.975V4.807h1.977V2.761h1.4v2.046h1.909v1.432h-1.911v2.078z" class="cls-2" transform="translate(7.993 10.716)"/>
        </g>
    </g>
</svg>
