<svg xmlns="http://www.w3.org/2000/svg" id="ic_linkdin" width="31.987" height="32" viewBox="0 0 31.987 32">
    <defs>
        <style>
            .cls-1{fill:#fff;stroke:rgba(0,0,0,.12);stroke-miterlimit:10;stroke-width:.5px}.cls-2{fill:#0288d1}.cls-3{stroke:none}.cls-4{fill:none}
        </style>
    </defs>
    <g id="Group_2" data-name="Group 2">
        <g id="Oval_3" class="cls-1" data-name="Oval 3">
            <ellipse cx="15.993" cy="16" class="cls-3" rx="15.993" ry="16"/>
            <ellipse cx="15.993" cy="16" class="cls-4" rx="15.743" ry="15.75"/>
        </g>
        <path id="U" d="M6.92 13.092H4.3c.022-5.309.023-8.279 0-8.829h2.62v1.259a2.808 2.808 0 0 1 4.62-.46 4.537 4.537 0 0 1 .835 2.949v5.079h-2.66V8.352c0-1.312-.447-1.977-1.329-1.977a1.42 1.42 0 0 0-1.363 1.057 2.267 2.267 0 0 0-.1.716v4.942zm-4.091 0H.17v-8.83h2.66v8.828zM1.5 3.068h-.034A1.381 1.381 0 0 1 .41 2.625 1.558 1.558 0 0 1 0 1.535 1.509 1.509 0 0 1 .426.426 1.466 1.466 0 0 1 1.5 0a1.4 1.4 0 0 1 1.074.426A1.715 1.715 0 0 1 3 1.535a1.558 1.558 0 0 1-.409 1.091 1.422 1.422 0 0 1-1.091.442z" class="cls-2" transform="translate(11.164 8.545)"/>
    </g>
</svg>
