<svg xmlns="http://www.w3.org/2000/svg" width="31.987" height="32" viewBox="0 0 31.987 32">
    <defs>
        <style>
            .cls-1{fill:#fff;stroke:rgba(0,0,0,.12);stroke-miterlimit:10;stroke-width:.5px}.cls-2{fill:#007aff}.cls-3{stroke:none}.cls-4{fill:none}
        </style>
    </defs>
    <g id="ic_twitter" transform="translate(-1)">
        <g id="Group_2" data-name="Group 2">
            <g id="Oval_3" class="cls-1" data-name="Oval 3" transform="translate(1)">
                <ellipse cx="15.993" cy="16" class="cls-3" rx="15.993" ry="16"/>
                <ellipse cx="15.993" cy="16" class="cls-4" rx="15.743" ry="15.75"/>
            </g>
            <path id="R" d="M6.341 2.941l.034.477L5.9 3.35A7.755 7.755 0 0 1 1.4 1.1L.784.486l-.17.478a2.583 2.583 0 0 0 .614 2.83q.341.375.1.375a1.563 1.563 0 0 1-.477-.136Q.75 4 .631 3.964a.768.768 0 0 0-.154-.034H.409a1.387 1.387 0 0 0 .085.511 3.779 3.779 0 0 0 .256.75 3.017 3.017 0 0 0 1.3 1.261l.477.2h-.58a1.745 1.745 0 0 0-.46.034q-.085.034-.017.2a2.6 2.6 0 0 0 1.769 1.578l.58.2-.511.307a5.517 5.517 0 0 1-2.523.716Q0 9.691 0 9.759t.665.392a6.687 6.687 0 0 0 1.176.46 7.525 7.525 0 0 0 6.2-.716A6.617 6.617 0 0 0 9.852 8.31a8.9 8.9 0 0 0 1.33-2.165 7.576 7.576 0 0 0 .648-2.864 1.639 1.639 0 0 1 .545-1.057q.614-.614.682-.716.034-.136 0-.153a1.431 1.431 0 0 0-.409.119q-.784.307-.75.136a1 1 0 0 1 .239-.307q.648-.716.648-1.023h-.035a.3.3 0 0 0-.136.034l-.136.068a5.108 5.108 0 0 1-.852.307l-.511.17-.445-.304a3.814 3.814 0 0 0-.818-.444 2.684 2.684 0 0 0-1.636.034A2.972 2.972 0 0 0 6.8 1.253a2.561 2.561 0 0 0-.459 1.688z" class="cls-2" transform="translate(9.448 11.15)"/>
        </g>
    </g>
</svg>
