<svg xmlns="http://www.w3.org/2000/svg" id="ic_verify" width="14" height="14" viewBox="0 0 14 14">
    <defs>
        <style>
            .cls-1{fill:#2cba44}
        </style>
    </defs>
    <path id="_" d="M7 14a6.773 6.773 0 0 1-4.949-2.051A6.773 6.773 0 0 1 0 7a6.773 6.773 0 0 1 2.051-4.949A6.773 6.773 0 0 1 7 0a6.773 6.773 0 0 1 4.949 2.051A6.773 6.773 0 0 1 14 7a6.773 6.773 0 0 1-2.051 4.949A6.773 6.773 0 0 1 7 14zM3.254 7l-.71.738 2.9 2.9L11.676 4.4l-.738-.71-5.497 5.47z" class="cls-1" data-name="("/>
</svg>
