<svg xmlns="http://www.w3.org/2000/svg" width="178.899" height="37.24" viewBox="0 0 178.899 37.24">
    <defs>
        <style>
            .cls-1,.cls-2{fill:#fff}.cls-1{font-size:19px;font-family:Montserrat-Medium,Montserrat;font-weight:500}
        </style>
    </defs>
    <g id="Logo_big" transform="translate(-27)">
        <g id="diro_KYC" transform="translate(27)">
            <g id="Group_3" data-name="Group 3">
                <text id="IDENTITY" class="cls-1" transform="translate(87.899 29.501)">
                    <tspan x="0" y="0">IDENTITY</tspan>
                </text>
                <g id="ic_diro_logo">
                    <path id="Combined_Shape" d="M64.5 37.24c-.4 0-.688-.008-.95-.025a14.086 14.086 0 0 1-4.443-1 12.993 12.993 0 0 1-3.67-2.346 14.549 14.549 0 0 1-3.223-3.983 14.1 14.1 0 0 1-1.5-4.393 17.131 17.131 0 0 1-.244-2.793 14.125 14.125 0 0 1 2.861-8.643 14.645 14.645 0 0 1 3.395-3.342A13.081 13.081 0 0 1 61.9 8.587a14.328 14.328 0 0 1 2.567-.251h.139a15.831 15.831 0 0 1 4.148.556 12.447 12.447 0 0 1 4.331 2.192 15.227 15.227 0 0 1 3.757 4.166 13.514 13.514 0 0 1 1.815 5.17l.017.122v.01c.034.248.069.5.089.757.024.326.044.655.065 1.049l.006.106v.017l.012.232.014.232a14.723 14.723 0 0 1-1 5.382 13.91 13.91 0 0 1-2.63 4.2 17.589 17.589 0 0 1-2.85 2.525 9.546 9.546 0 0 1-1.728.981 13.548 13.548 0 0 1-3.451 1.026 14.472 14.472 0 0 1-1.919.173h-.4zm.136-25.452a11.736 11.736 0 0 0-1.3.071 8.849 8.849 0 0 0-2.132.49 10.8 10.8 0 0 0-2.439 1.33 10.692 10.692 0 0 0-3.644 4.27 11.805 11.805 0 0 0-.94 3.164 11.624 11.624 0 0 0-.01 3.586 11.505 11.505 0 0 0 .707 2.524 10.358 10.358 0 0 0 8.943 6.634c.249.017.506.026.763.026a11.78 11.78 0 0 0 2.856-.359 9.492 9.492 0 0 0 4.479-2.46 11.138 11.138 0 0 0 3.389-8.205c0-.053-.006-.112-.009-.176v-.35c-.008-.145-.017-.31-.031-.469a10.174 10.174 0 0 0-.484-2.517 11.343 11.343 0 0 0-5.089-6.235 9.154 9.154 0 0 0-3.851-1.268 13.324 13.324 0 0 0-1.208-.055zM14.1 37.2c-.237 0-.473 0-.7-.015a13.316 13.316 0 0 1-6.676-1.96 13.843 13.843 0 0 1-3.566-3.238A14.172 14.172 0 0 1 .4 26.317a16.928 16.928 0 0 1-.354-2.448A10.467 10.467 0 0 1 0 22.656c.009-.269.035-.537.06-.789v-.011c0-.041.009-.08.012-.121l.006-.064v-.016a15.8 15.8 0 0 1 .612-3.194 13.671 13.671 0 0 1 3.326-5.626 16.143 16.143 0 0 1 3.572-2.766 11.164 11.164 0 0 1 3.29-1.211 16.5 16.5 0 0 1 2.756-.319c.192-.007.392-.011.593-.011a14.232 14.232 0 0 1 4.6.749 12.8 12.8 0 0 1 4.693 2.853c.248.234.5.5.7.709l.025.026.022.023.01.011a19.086 19.086 0 0 0 .427.443l.067.067v-13c0-.409 0-.409.414-.409h3.053c0 .036 0 .067.006.1v.016a1.02 1.02 0 0 1 0 .12v.27q-.007 3.325-.017 6.651-.006 1.617-.014 3.232v.027l-.011 2.441q-.007 2.36-.012 4.722v4.817c0 .352.006.764 0 1.158a13.871 13.871 0 0 1-1.842 6.531 14.474 14.474 0 0 1-2.483 3.276 13.272 13.272 0 0 1-5.136 3.159 13.076 13.076 0 0 1-2.621.562 17.294 17.294 0 0 1-2.008.118zm.159-25.249a12.219 12.219 0 0 0-2.06.187 9.313 9.313 0 0 0-3.944 1.654 12.086 12.086 0 0 0-2.817 2.93 10.423 10.423 0 0 0-1.836 5.06 12.308 12.308 0 0 0 .456 4.543 10.442 10.442 0 0 0 2.526 4.413 10.29 10.29 0 0 0 7.026 3.122c.154.011.341.016.556.016a11.226 11.226 0 0 0 2.06-.2 10.173 10.173 0 0 0 2.887-.992 9.828 9.828 0 0 0 2.7-2.149 11.051 11.051 0 0 0 2.027-3.151 11.606 11.606 0 0 0 .856-4.331c-.014-.17-.026-.34-.038-.511v-.122c-.02-.284-.048-.656-.085-1.018a9.662 9.662 0 0 0-.939-3.278 11.619 11.619 0 0 0-4.408-4.806 9.331 9.331 0 0 0-4.668-1.369q-.149-.003-.295-.003zM34.2 36.5h-1.412c-.315 0-.347-.032-.347-.347v-.28-12.681V9.641a1.453 1.453 0 0 1 0-.175c.015-.125.069-.175.2-.186h3.214a.477.477 0 0 1 .059 0c.107.015.149.063.156.179v26.687c0 .337-.013.35-.355.35H34.2zm6.481 0h-.038a.427.427 0 0 1-.057 0c-.138-.015-.176-.054-.187-.19-.009-.1-.009-.2-.009-.3v-1.086-1.087-6.633h-.009v-1.791-5.03c0-.724 0-1.473.048-2.207a9.651 9.651 0 0 1 1.8-5.1 9.751 9.751 0 0 1 4.641-3.495 11.6 11.6 0 0 1 2.924-.657c.247-.024.54-.045.923-.067h.077c.174 0 .193.055.195.272v2.8a1.163 1.163 0 0 1-.007.132.144.144 0 0 1-.149.143h-.301a6.993 6.993 0 0 0-2.824.54 6.308 6.308 0 0 0-3.061 2.808 8.12 8.12 0 0 0-.9 2.792 14.919 14.919 0 0 0-.152 2.107v.617l-.006.619V22.103a312.503 312.503 0 0 0-.02 3.706c0 .863.013 1.739.025 2.586v.511l.006.441c0 .292.009.582.012.874v.008l.016 1.272v.035q.015 1.091.026 2.181c.008.771.012 1.536.016 2.276v.181c0 .137 0 .224-.044.267a.436.436 0 0 1-.267.046h-2.684zm24.072-6.758a7.749 7.749 0 0 1-6.468-3.565l.442-.288.017-.011.125-.082.132-.086h.006l.36-.235.008-.005a6.363 6.363 0 0 0 5.366 2.922h.028a6.388 6.388 0 0 0 5.389-2.923l.074.048.1.062.028.018.6.39.01.006.276.18a7.71 7.71 0 0 1-5.862 3.546c-.207.01-.418.018-.628.018zm2.214-8.471c-.236 0-.452-.008-.592-.021a2.563 2.563 0 0 1 1.217-2.224A2.55 2.55 0 0 1 70.423 19a2.6 2.6 0 0 1 1.259 2.26c-.208 0-.415.005-.634.005s-.444 0-.694-.005a1.329 1.329 0 0 0-.558-1.079 1.294 1.294 0 0 0-.774-.235c-.052 0-.106 0-.161.007a1.315 1.315 0 0 0-1.161 1.272 4.163 4.163 0 0 1-.73.041zm-8.529 0c-.239 0-.437-.007-.543-.02a2.459 2.459 0 0 1 1-2.1 2.719 2.719 0 0 1 1.6-.559 2.84 2.84 0 0 1 1.354.372 2.567 2.567 0 0 1 1.3 2.293h-1.306a1.336 1.336 0 0 0-.561-1.076 1.293 1.293 0 0 0-.769-.233c-.055 0-.111 0-.168.007a1.3 1.3 0 0 0-1.155 1.278 5.064 5.064 0 0 1-.749.031zM34.257 5.875h-.036a2.8 2.8 0 0 1-2.786-2.849A2.792 2.792 0 0 1 34.241.209h.011a2.774 2.774 0 0 1 1.98.823 2.87 2.87 0 0 1 .827 2.025 2.82 2.82 0 0 1-2.802 2.818z" class="cls-2" data-name="Combined Shape"/>
                </g>
            </g>
        </g>
    </g>
</svg>
