<svg xmlns="http://www.w3.org/2000/svg" width="55.887" height="55.887" viewBox="0 0 55.887 55.887">
    <defs>
        <style>
            .cls-1{fill:#f8f9fb;stroke:rgba(141,156,168,.35);stroke-miterlimit:10}.cls-2{fill:rgba(0,0,0,.38)}.cls-3{stroke:none}.cls-4{fill:none}
        </style>
    </defs>
    <g id="Wallet_Photo" data-name="Wallet Photo" transform="translate(1 1)">
        <g id="Group_7" data-name="Group 7">
            <g id="Oval_Copy" class="cls-1" data-name="Oval Copy">
                <circle cx="26.943" cy="26.943" r="26.943" class="cls-3"/>
                <circle cx="26.943" cy="26.943" r="27.443" class="cls-4"/>
            </g>
            <path id="Shape" d="M20.786 25H3.214A3.248 3.248 0 0 1 0 21.727V9.292a1.382 1.382 0 0 1 .013-.164l.005-.055v-.382a4.988 4.988 0 0 1 .75-3.037A6.724 6.724 0 0 1 4 3.619a.431.431 0 0 1 .054-.019C4.131 3.578 14.215.738 15.946.273A6.405 6.405 0 0 1 17.5 0h.047A1.833 1.833 0 0 1 18.7.328a1.764 1.764 0 0 1 .6 1.036 5.636 5.636 0 0 1 .125 1.327v1.946h-1.14V2.691a4.886 4.886 0 0 0-.085-1.054.662.662 0 0 0-.178-.382.835.835 0 0 0-.461-.091h-.04a5.792 5.792 0 0 0-1.285.237C14.49 1.868 4.468 4.688 4.393 4.71l-.013.006h-.01l-.013.006a6.238 6.238 0 0 0-2.624 1.569 3.163 3.163 0 0 1 1.7-.491h17.138A3.5 3.5 0 0 1 24 9.2v12.527A3.248 3.248 0 0 1 20.786 25zM3.316 7a2.177 2.177 0 0 0-1.682.824 2.683 2.683 0 0 0-.616 1.41L1 10.206v11.669A2.114 2.114 0 0 0 3.1 24h17.8a2.114 2.114 0 0 0 2.1-2.125V9.253A2.475 2.475 0 0 0 20.684 7zM19.5 17a1.5 1.5 0 1 1 1.5-1.5 1.5 1.5 0 0 1-1.5 1.5z" class="cls-2" transform="translate(15 14)"/>
        </g>
    </g>
</svg>
