<svg xmlns="http://www.w3.org/2000/svg" width="20" height="20" viewBox="0 0 20 20">
    <path fill="#00BCD4" fill-rule="nonzero" d="M10 0C4.486 0 0 4.486 0 10s4.486 10 10 10 10-4.486 10-10S15.514 0 10 0zm0 1.667A8.32 8.32 0 0 1 18.333 10 8.32 8.32 0 0 1 10 18.333 8.32 8.32 0 0 1 1.667 10 8.32 8.32 0 0 1 10 1.667zm3.49 3.385a.453.453 0 0 0-.313.208L9.09 11.328l-1.928-1.9c-.166-.252-.485-.271-.65-.105l-.756.755c-.166.25-.166.59 0 .755l2.917 2.917c.166.085.4.26.65.26a.752.752 0 0 0 .6-.338l5-7.344c.166-.25.071-.485-.26-.65l-.834-.6c-.085-.042-.215-.045-.338-.026z"/>
</svg>
