<svg xmlns="http://www.w3.org/2000/svg" width="60" height="60" viewBox="0 0 60 60">
    <g fill="none" fill-rule="evenodd">
        <path stroke="#00BCD4" stroke-width="3.09" d="M30 52.228c10.222-13.765 15.333-23.492 15.333-29.18C45.333 14.516 38.468 7.6 30 7.6s-15.333 6.916-15.333 15.448c0 5.688 5.11 15.415 15.333 29.18z"/>
        <path fill="#00BCD4" fill-rule="nonzero" d="M30 23.72c1.67 0 3.019-1.35 3.019-3.023A3.017 3.017 0 0 0 30 17.675a3.03 3.03 0 0 0-3.019 3.022A3.017 3.017 0 0 0 30 23.72zM30 25.735c-2.013 0-6.038 1.007-6.038 3.022V29c1.47 1.693 3.623 2.78 6.038 2.78s4.568-1.087 6.037-2.78v-.242c0-2.015-4.025-3.022-6.037-3.022z"/>
    </g>
</svg>
