<svg xmlns="http://www.w3.org/2000/svg" width="96" height="172" viewBox="0 0 96 172">
    <g fill="none" fill-rule="evenodd">
        <path fill="#FFF" d="M1.826 171.707l1.474-.55c.96-.374 2.38-.83 4.172-1.61 1.812-.716 3.942-1.704 6.383-2.84l3.818-1.951c1.31-.75 2.708-1.506 4.131-2.353 2.836-1.71 5.887-3.614 8.934-5.885a118.946 118.946 0 0 0 9.289-7.51c3.111-2.744 6.148-5.78 9.101-8.99 2.984-3.187 5.756-6.659 8.415-10.217 2.672-3.553 5.027-7.333 7.254-11.106 2.235-3.775 4.108-7.67 5.813-11.486.808-1.927 1.615-3.819 2.284-5.717.721-1.88 1.334-3.752 1.922-5.577.589-1.824 1.027-3.64 1.522-5.373.423-1.752.815-3.451 1.135-5.093.281-1.648.627-3.214.807-4.728.185-1.513.4-2.94.528-4.292l.287-3.787c.064-1.17.062-2.251.094-3.221.032-.972.037-1.839 0-2.594-.027-.755-.047-1.397-.066-1.917l-.073-1.592a.949.949 0 0 0-1.887-.092l-.006.04-.223 1.553c-.158 1.01-.294 2.496-.607 4.37l-.473 3.1-.652 3.633c-.471 2.587-1.105 5.483-1.84 8.626-.38 1.569-.85 3.185-1.262 4.874-.506 1.662-.955 3.404-1.55 5.155-1.075 3.537-2.449 7.188-3.955 10.93-.377.935-.802 1.86-1.205 2.801-.401.946-.82 1.887-1.28 2.819-.445.94-.89 1.885-1.339 2.836-.479.935-.958 1.876-1.441 2.82-1.992 3.746-4.145 7.496-6.558 11.08-2.408 3.585-4.937 7.11-7.691 10.366-2.757 3.249-5.579 6.374-8.562 9.14a48.722 48.722 0 0 1-2.222 2.053l-2.222 1.967c-1.527 1.227-2.983 2.476-4.496 3.57-2.955 2.28-5.922 4.2-8.683 5.928-1.393.842-2.769 1.583-4.055 2.323l-3.75 1.927-3.366 1.55c-1.043.479-2.027.829-2.9 1.193-1.734.728-3.185 1.192-4.15 1.532l-1.489.511a.946.946 0 1 0 .617 1.792l.023-.008zm88.643-103.46c-.573-.801-1.083-1.624-1.591-2.43a69.861 69.861 0 0 1-1.415-2.527c-.907-1.704-1.687-3.474-2.388-5.27a68.386 68.386 0 0 1-.956-2.73c-.294-.917-.543-1.847-.792-2.776a65.455 65.455 0 0 1-1.13-5.64 1.716 1.716 0 0 0-2.946-.905l-.193.207-1.776 1.898c-.585.64-1.19 1.26-1.766 1.904-.577.642-1.171 1.27-1.746 1.915l-1.725 1.93a59.619 59.619 0 0 0-3.285 4.017c-1.032 1.4-2.032 2.837-2.866 4.454-.25.486-.032 1.134.454 1.385.294.151.659.195.932.05l.016-.009c.815-.433 1.527-.987 2.266-1.496a39.09 39.09 0 0 0 5.835-5.424 80.811 80.811 0 0 0 3.367-4.087 87.576 87.576 0 0 0 3.094-4.302l-3.14-.7c.31.958.642 1.905.988 2.847.351.94.726 1.867 1.102 2.793.374.926.78 1.837 1.174 2.751.398.913.819 1.813 1.242 2.711.42.9.866 1.786 1.31 2.672l1.379 2.632c.47.872.88 1.775 1.378 2.632l1.416 2.6.01.017c.245.463.928.56 1.38.296.451-.266.644-.869.379-1.32-.015-.025.01-.072-.007-.095z"/>
        <g transform="translate(62)">
            <rect width="34" height="34" fill="#00BCD4" rx="17"/>
            <path fill="#FFF" d="M12.237 17.848c-.014-.177-.024-.354-.043-.53a3.084 3.084 0 0 0-.303-1.053 3.72 3.72 0 0 0-1.426-1.542 3.017 3.017 0 0 0-1.509-.44 3.845 3.845 0 0 0-.76.06 3.01 3.01 0 0 0-1.276.53c-.36.26-.658.578-.91.94-.34.49-.54 1.031-.594 1.625-.045.495.008.981.147 1.458.158.537.425 1.014.817 1.416.622.638 1.39.953 2.27 1.004.285.017.567-.007.847-.059.326-.06.638-.163.933-.318.335-.176.621-.412.875-.69.275-.3.497-.635.655-1.011.187-.445.267-.91.277-1.39zm1.143-7.4c.002.032.004.054.004.075l-.005 2.222-.008 1.83-.004 1.578-.003 1.285c0 .19.005.38 0 .569a4.407 4.407 0 0 1-.596 2.096 4.698 4.698 0 0 1-.803 1.052 4.28 4.28 0 0 1-1.66 1.014c-.277.09-.56.147-.848.18a5.59 5.59 0 0 1-.873.033c-.771-.032-1.497-.22-2.159-.63a4.51 4.51 0 0 1-1.153-1.039 4.529 4.529 0 0 1-1.007-2.604 3.277 3.277 0 0 1-.014-.39c.004-.106.016-.214.026-.32.032-.349.094-.69.196-1.025.21-.69.57-1.292 1.075-1.806.344-.35.729-.647 1.156-.889a3.65 3.65 0 0 1 1.064-.388c.293-.061.59-.092.89-.103a4.648 4.648 0 0 1 1.68.237 4.14 4.14 0 0 1 1.517.916c.125.117.24.245.36.367l.044.044v-4.173c0-.131 0-.131.134-.131H13.38zm3.931 8.728v-2.093c.001-.267 0-.535.017-.801.038-.6.228-1.149.58-1.637a3.14 3.14 0 0 1 1.501-1.122c.306-.112.622-.18.946-.21.099-.01.199-.017.298-.022.078-.004.088.006.088.086a1195.3 1195.3 0 0 1-.002.942c-.003.03-.02.044-.048.046-.029.002-.057.001-.086.001-.319 0-.63.047-.925.173-.433.186-.76.492-.99.902a2.61 2.61 0 0 0-.29.896c-.035.224-.048.45-.05.676-.004.573-.011 1.146-.01 1.72 0 .473.01.946.016 1.419l.014 1.12.005.788c0 .094-.005.1-.101.1l-.869.002-.03-.001c-.044-.005-.057-.017-.061-.061a1.128 1.128 0 0 1-.003-.098l.002-.697v-2.129h-.002zm-1.396-1.378v4.252c0 .108-.005.112-.115.112h-.948c-.102 0-.112-.01-.112-.111v-4.16-4.332c0-.024-.001-.049.001-.073.005-.04.023-.056.064-.06h1.016l.043.001c.034.005.048.02.05.058.002.018 0 .036 0 .055v4.258zm.318-6.369a.91.91 0 0 1-.918.905.906.906 0 0 1-.9-.915.904.904 0 0 1 .91-.904c.531.002.91.435.908.914zm13.517 6.384a4.732 4.732 0 0 1-.322 1.728c-.2.502-.488.948-.85 1.348a5.628 5.628 0 0 1-.922.81c-.175.124-.361.23-.558.315a4.421 4.421 0 0 1-1.116.33 4.63 4.63 0 0 1-.62.055c-.188.002-.376.005-.563-.006a4.566 4.566 0 0 1-1.437-.322 4.201 4.201 0 0 1-1.186-.753 4.636 4.636 0 0 1-1.043-1.278 4.487 4.487 0 0 1-.484-1.41 5.403 5.403 0 0 1-.08-.894 4.492 4.492 0 0 1 .926-2.774 4.75 4.75 0 0 1 1.097-1.073 4.227 4.227 0 0 1 1.673-.685c.29-.052.581-.084.875-.08.454.005.902.056 1.341.178.513.143.98.377 1.4.704a4.94 4.94 0 0 1 1.216 1.337c.31.512.505 1.067.587 1.66.013.095.027.19.034.285.013.175.022.35.032.525zm-1.147-.028c-.005-.079-.009-.199-.019-.319a3.302 3.302 0 0 0-.156-.808 3.637 3.637 0 0 0-1.646-2.001 2.972 2.972 0 0 0-1.245-.407 3.967 3.967 0 0 0-.806.005 2.926 2.926 0 0 0-.689.157 3.524 3.524 0 0 0-.788.427 3.419 3.419 0 0 0-1.179 1.37 3.79 3.79 0 0 0-.304 1.016 3.686 3.686 0 0 0-.003 1.15c.042.28.124.549.229.81a3.29 3.29 0 0 0 1.246 1.564 3.315 3.315 0 0 0 1.646.566c.395.027.785-.01 1.17-.106a3.061 3.061 0 0 0 1.448-.79c.72-.712 1.09-1.576 1.096-2.634zm-1.666.835l.35.226c-.312.534-1.025 1.068-1.896 1.138a2.503 2.503 0 0 1-2.294-1.136c.118-.075.235-.151.353-.228.431.6 1.002.94 1.745.938.738-.003 1.311-.335 1.742-.938zm-2.267-1.351h-.423a.43.43 0 0 0-.182-.345.44.44 0 0 0-.302-.073c-.204.018-.349.177-.374.41a2.379 2.379 0 0 1-.418.006c-.045-.191.108-.52.324-.674a.845.845 0 0 1 .954-.06.82.82 0 0 1 .42.736zm1.043-.002c.01-.308.134-.553.394-.714a.83.83 0 0 1 .914-.008c.268.16.393.408.408.725-.146.003-.285.002-.43 0a.43.43 0 0 0-.18-.346.441.441 0 0 0-.303-.073c-.203.018-.35.178-.374.41a2.242 2.242 0 0 1-.429.006z"/>
        </g>
    </g>
</svg>
