<svg xmlns="http://www.w3.org/2000/svg" width="60" height="60" viewBox="0 0 60 60">
    <path fill="#00BCD4" fill-rule="nonzero" d="M29.982 7.6c-.156.003-.31.041-.449.113L8.442 18.664a.995.995 0 0 0-.538.883v2.987a1 1 0 0 0 1.005.995h1.004v1.394c0 1.207.868 2.235 2.009 2.51v18.01H9.009l.166.014c-1.237-.207-2.275.845-2.275 1.997v2.735c0 1.175.938 2.211 2.109 2.211H50.89c1.17 0 2.109-.958 2.109-2.11v-2.735a2.116 2.116 0 0 0-2.109-2.112h-2.813v-18.01c1.14-.275 2.009-1.303 2.009-2.51V23.53h1.004a1 1 0 0 0 1.005-.995v-2.987c0-.37-.207-.71-.538-.883L30.467 7.713a1.012 1.012 0 0 0-.485-.113zM30 9.722L50.087 20.15v1.388h-.836a1.013 1.013 0 0 0-.327 0h-9.73a1.013 1.013 0 0 0-.316 0H35.19a1.013 1.013 0 0 0-.327 0h-9.73a1.013 1.013 0 0 0-.316 0H21.13a1.013 1.013 0 0 0-.328 0h-9.73a1.013 1.013 0 0 0-.315 0h-.844V20.15L30 9.722zM11.922 23.529h8.035v1.394c0 .38-.22.597-.603.597h-6.83c-.383 0-.602-.217-.602-.597V23.53zm10.043 0h2.009v1.394c0 1.207.868 2.235 2.009 2.51v18.01h-6.026v-18.01c1.14-.275 2.008-1.303 2.008-2.51V23.53zm4.018 0h8.034v1.394c0 .38-.219.597-.602.597h-6.83c-.383 0-.602-.217-.602-.597V23.53zm10.043 0h2.009v1.394c0 1.207.868 2.235 2.008 2.51v18.01h-6.026v-18.01c1.141-.275 2.01-1.303 2.01-2.51V23.53zm4.017 0h8.035v1.394c0 .38-.219.597-.602.597h-6.83c-.383 0-.603-.217-.603-.597V23.53zM13.93 27.511h4.018v17.92H13.93v-17.92zm14.061 0h4.018v17.92H27.99v-17.92zm14.061 0h4.018v17.92h-4.018v-17.92zM8.893 47.426c.038.005.077.008.116.008H50.89c.035 0 .1.055.1.12v2.736c0 .066-.065.12-.1.12H9.01c-.035 0-.1.022-.1-.22v-2.736c0-.023-.009-.024-.016-.028z"/>
</svg>
