<svg xmlns="http://www.w3.org/2000/svg" width="381" height="372" viewBox="0 0 381 372">
    <g fill="#FFF" fill-rule="evenodd">
        <path d="M325.24 4.368l1.472-1.792c-1.104-1.136-2.8-1.856-4.416-1.856-3.392 0-5.968 2.432-5.968 5.664 0 3.248 2.528 5.728 5.872 5.728 1.632 0 3.344-.784 4.528-2l-1.488-1.616c-.8.8-1.904 1.312-2.912 1.312-1.92 0-3.408-1.504-3.408-3.456s1.488-3.44 3.408-3.44c1.04 0 2.144.576 2.912 1.456zM335.528 12h-2.416v-1.008c-.576.72-1.504 1.12-2.704 1.12-1.84 0-2.96-1.12-2.96-2.688 0-1.616 1.168-2.576 3.28-2.592h2.368v-.16c0-.912-.608-1.44-1.792-1.44-.768 0-1.664.256-2.56.752l-.768-1.696c1.28-.64 2.384-.992 3.888-.992 2.304 0 3.632 1.152 3.648 3.088l.016 5.616zm-4.432-1.648c1.04 0 1.856-.56 2-1.296v-.768h-1.936c-.944 0-1.408.288-1.408.976 0 .656.512 1.088 1.344 1.088zm11.824-7.04c2.416 0 4.048 1.776 4.048 4.432 0 2.608-1.584 4.352-4 4.352-1.2 0-2.144-.48-2.768-1.344v4.352h-2.464V3.392h2.464v1.264c.608-.864 1.552-1.344 2.72-1.344zm-.576 6.736c1.264 0 2.128-.976 2.128-2.384 0-1.376-.864-2.368-2.128-2.368-1.264 0-2.144.976-2.144 2.368 0 1.424.88 2.384 2.144 2.384zm11.072-.336c-.448.208-.832.32-1.152.32-.528.016-.832-.272-.832-.992V5.488h2.336V3.776h-2.336V1.408h-2.448v2.368h-1.2v1.696h1.2v3.984c0 1.776 1.168 2.656 2.704 2.656.8 0 1.6-.224 2.24-.592l-.512-1.808zm7.728-6.32v4.256c0 1.248-.72 2.176-1.904 2.192-.992 0-1.616-.656-1.616-1.744V3.392h-2.464V8.8c0 2.032 1.2 3.296 3.104 3.296 1.296 0 2.288-.528 2.88-1.616V12h2.448V3.392h-2.448zm7.296 1.552V3.392h-2.464V12h2.464V7.856c0-1.456 1.088-2.4 2.848-2.24v-2.32c-1.28.016-2.256.592-2.848 1.648zm7.888-1.632c3.024 0 4.432 2 4.224 5.136h-6.176c.288 1.088 1.12 1.728 2.224 1.728.816 0 1.584-.32 2.176-.912l1.296 1.312c-.864.96-2.128 1.52-3.68 1.52-2.752 0-4.496-1.76-4.496-4.368 0-2.656 1.808-4.416 4.432-4.416zm-2 3.68h3.92c-.032-1.136-.768-1.872-1.904-1.872-1.088 0-1.824.736-2.016 1.872zm-139.6 22.472c-.464.272-.912.416-1.344.432-.72 0-1.12-.416-1.12-1.44v-4.64h2.672v-.976h-2.672v-2.208h-1.232v2.208h-1.216v.976h1.216v4.848c0 1.664.912 2.4 2.144 2.384.672 0 1.312-.224 1.904-.624l-.352-.96zm6.848-6.928c-1.552.016-2.704.624-3.28 1.936v-5.344h-1.248V31h1.248v-4.128c0-1.84 1.056-3.12 2.848-3.136 1.488 0 2.384.896 2.384 2.4V31h1.248v-5.184c0-2.048-1.184-3.28-3.2-3.28zm9.312 0c2.72 0 4.064 1.872 3.936 4.72h-6.88c.208 1.664 1.408 2.752 3.056 2.752 1.04 0 1.952-.384 2.608-1.072l.688.72c-.8.88-1.984 1.392-3.392 1.392-2.48 0-4.192-1.744-4.192-4.256 0-2.512 1.728-4.24 4.176-4.256zm-2.944 3.728h5.76c-.08-1.632-1.168-2.688-2.816-2.688-1.616 0-2.768 1.056-2.944 2.688zm12.368-3.68L263.464 31h1.296l2.464-6.896 2.48 6.896H271l3.12-8.416h-1.296l-2.464 7.152-2.48-7.152h-1.312l-2.448 7.152-2.496-7.152h-1.312zm18.336-.048c2.72 0 4.064 1.872 3.936 4.72h-6.88c.208 1.664 1.408 2.752 3.056 2.752 1.04 0 1.952-.384 2.608-1.072l.688.72c-.8.88-1.984 1.392-3.392 1.392-2.48 0-4.192-1.744-4.192-4.256 0-2.512 1.728-4.24 4.176-4.256zm-2.944 3.728h5.76c-.08-1.632-1.168-2.688-2.816-2.688-1.616 0-2.768 1.056-2.944 2.688zm13.6-3.728c2.384 0 4.048 1.76 4.048 4.272 0 2.496-1.632 4.24-4.016 4.24-1.504 0-2.656-.688-3.28-1.856V31h-1.248V19.128h1.248v5.264c.624-1.168 1.776-1.856 3.248-1.856zm-.224 7.408c1.76 0 3.008-1.328 3.008-3.168 0-1.824-1.248-3.168-3.008-3.168-1.776 0-3.024 1.328-3.024 3.168 0 1.856 1.248 3.168 3.024 3.168zm11.04-7.408c2.384 0 4.048 1.76 4.048 4.272 0 2.496-1.632 4.24-4.016 4.24-1.504 0-2.656-.688-3.28-1.856v4.912h-1.248v-11.52h1.248v1.808c.624-1.168 1.776-1.856 3.248-1.856zm-.224 7.408c1.76 0 3.008-1.328 3.008-3.168 0-1.824-1.248-3.168-3.008-3.168-1.776 0-3.024 1.328-3.024 3.168 0 1.856 1.248 3.168 3.024 3.168zM312.808 31h-1.216v-1.312c-.672.912-1.744 1.36-3.088 1.36-1.744 0-2.864-1.104-2.864-2.544 0-1.472 1.168-2.4 3.152-2.416h2.768v-.528c0-1.232-.768-1.984-2.256-1.984-.928 0-1.792.352-2.672.976l-.528-.88c1.088-.72 2-1.136 3.44-1.136 2.08 0 3.232 1.104 3.248 2.896l.016 5.568zm-4.064-.992c1.424 0 2.512-.704 2.832-1.904V27.08h-2.624c-1.408 0-2.144.432-2.144 1.376 0 .928.752 1.552 1.936 1.552zm12.944-7.424h1.248v7.536c0 2.464-1.68 4.016-4.24 4.016-1.328-.016-2.432-.448-3.456-1.232l.576-.912c.832.688 1.712 1.056 2.832 1.072 1.84 0 3.04-1.136 3.04-2.912v-1.28c-.592 1.12-1.68 1.76-3.104 1.76-2.272 0-3.84-1.68-3.84-4.064 0-2.368 1.552-4.016 3.808-4.032 1.44-.016 2.528.64 3.136 1.76v-1.712zm-2.88 7.024c1.68 0 2.88-1.264 2.88-3.008 0-1.76-1.2-3.024-2.88-3.024-1.696 0-2.88 1.264-2.896 3.024.016 1.744 1.2 3.008 2.896 3.008zm10.288-7.072c2.72 0 4.064 1.872 3.936 4.72h-6.88c.208 1.664 1.408 2.752 3.056 2.752 1.04 0 1.952-.384 2.608-1.072l.688.72c-.8.88-1.984 1.392-3.392 1.392-2.48 0-4.192-1.744-4.192-4.256 0-2.512 1.728-4.24 4.176-4.256zm-2.944 3.728h5.76c-.08-1.632-1.168-2.688-2.816-2.688-1.616 0-2.768 1.056-2.944 2.688zm19.888-3.68v4.128c0 1.824-1.024 3.104-2.768 3.136-1.456 0-2.336-.896-2.336-2.4v-4.864h-1.248v5.184c0 2.032 1.184 3.28 3.152 3.28 1.52-.016 2.64-.64 3.2-1.952V31h1.248v-8.416h-1.248zm8.736 1.664l.48-.96c-.704-.464-1.68-.768-2.688-.768-1.536 0-2.928.688-2.928 2.288-.016 2.976 4.704 1.936 4.656 3.984-.016.848-.816 1.232-1.808 1.232-.992 0-2.08-.4-2.8-1.072l-.48.912c.8.768 2.032 1.184 3.232 1.184 1.616 0 3.088-.736 3.088-2.384 0-3.024-4.704-2.048-4.704-3.952 0-.8.72-1.136 1.664-1.136.784 0 1.632.256 2.288.672zm3.408-4.928c-.464 0-.816.352-.816.848 0 .48.352.848.816.848.464 0 .816-.368.816-.848 0-.496-.352-.848-.816-.848zm-.608 3.264V31h1.232v-8.416h-1.232zm8.784-.048c-1.536.016-2.672.624-3.264 1.904v-1.856h-1.248V31h1.248v-4.512c.144-1.632 1.168-2.736 2.832-2.752 1.488 0 2.384.896 2.384 2.4V31h1.248v-5.184c0-2.048-1.184-3.28-3.2-3.28zm12.08.048h1.248v7.536c0 2.464-1.68 4.016-4.24 4.016-1.328-.016-2.432-.448-3.456-1.232l.576-.912c.832.688 1.712 1.056 2.832 1.072 1.84 0 3.04-1.136 3.04-2.912v-1.28c-.592 1.12-1.68 1.76-3.104 1.76-2.272 0-3.84-1.68-3.84-4.064 0-2.368 1.552-4.016 3.808-4.032 1.44-.016 2.528.64 3.136 1.76v-1.712zm-2.88 7.024c1.68 0 2.88-1.264 2.88-3.008 0-1.76-1.2-3.024-2.88-3.024-1.696 0-2.88 1.264-2.896 3.024.016 1.744 1.2 3.008 2.896 3.008zm-99.808 8.52H277V50h-1.248v-1.808c-.624 1.184-1.776 1.872-3.28 1.872-2.4 0-4.064-1.776-4.064-4.288 0-2.512 1.664-4.256 4.048-4.256 1.504 0 2.672.688 3.296 1.888v-5.28zm-3.04 10.864c1.776 0 3.04-1.328 3.04-3.184s-1.264-3.2-3.04-3.2c-1.792 0-3.056 1.344-3.056 3.2s1.264 3.184 3.056 3.184zm8.016-10.672c-.464 0-.816.352-.816.848 0 .48.352.848.816.848.464 0 .816-.368.816-.848 0-.496-.352-.848-.816-.848zm-.608 3.264V50h1.232v-8.416h-1.232zm5.52 1.872v-1.872h-1.248V50h1.248v-4.48c.144-1.696 1.248-2.8 3.024-2.768v-1.216c-1.424.016-2.464.688-3.024 1.92zm8.128-1.92c2.496 0 4.272 1.744 4.272 4.24 0 2.512-1.776 4.272-4.272 4.272-2.512 0-4.272-1.76-4.272-4.272 0-2.496 1.76-4.24 4.272-4.24zm0 1.104c-1.776 0-3.024 1.296-3.024 3.152 0 1.888 1.248 3.168 3.024 3.168 1.76 0 3.024-1.28 3.024-3.168 0-1.856-1.264-3.152-3.024-3.152zm14.592-1.104c2.72 0 4.064 1.872 3.936 4.72h-6.88c.208 1.664 1.408 2.752 3.056 2.752 1.04 0 1.952-.384 2.608-1.072l.688.72c-.8.88-1.984 1.392-3.392 1.392-2.48 0-4.192-1.744-4.192-4.256 0-2.512 1.728-4.24 4.176-4.256zm-2.944 3.728h5.76c-.08-1.632-1.168-2.688-2.816-2.688-1.616 0-2.768 1.056-2.944 2.688zm7.568-3.68l2.864 4.08L312.776 50h1.408l2.48-3.456 2.4 3.456h1.456l-3.024-4.336 2.816-4.08h-1.376l-2.272 3.216-2.24-3.216h-1.44zm13.44 6.88c-.464.272-.912.416-1.344.432-.72 0-1.12-.416-1.12-1.44v-4.64h2.672v-.976h-2.672v-2.208h-1.232v2.208h-1.216v.976h1.216v4.848c0 1.664.912 2.4 2.144 2.384.672 0 1.312-.224 1.904-.624l-.352-.96zm5.44-6.928c2.72 0 4.064 1.872 3.936 4.72h-6.88c.208 1.664 1.408 2.752 3.056 2.752 1.04 0 1.952-.384 2.608-1.072l.688.72c-.8.88-1.984 1.392-3.392 1.392-2.48 0-4.192-1.744-4.192-4.256 0-2.512 1.728-4.24 4.176-4.256zm-2.944 3.728h5.76c-.08-1.632-1.168-2.688-2.816-2.688-1.616 0-2.768 1.056-2.944 2.688zm13.536-3.728c-1.536.016-2.672.624-3.264 1.904v-1.856h-1.248V50h1.248v-4.512c.144-1.632 1.168-2.736 2.832-2.752 1.488 0 2.384.896 2.384 2.4V50h1.248v-5.184c0-2.048-1.184-3.28-3.2-3.28zm9.984 6.928c-.464.272-.912.416-1.344.432-.72 0-1.12-.416-1.12-1.44v-4.64h2.672v-.976h-2.672v-2.208h-1.232v2.208h-1.216v.976h1.216v4.848c0 1.664.912 2.4 2.144 2.384.672 0 1.312-.224 1.904-.624l-.352-.96zm2.848-10.144c-.464 0-.816.352-.816.848 0 .48.352.848.816.848.464 0 .816-.368.816-.848 0-.496-.352-.848-.816-.848zm-.608 3.264V50h1.232v-8.416h-1.232zm7.696-.048c2.496 0 4.272 1.744 4.272 4.24 0 2.512-1.776 4.272-4.272 4.272-2.512 0-4.272-1.76-4.272-4.272 0-2.496 1.76-4.24 4.272-4.24zm0 1.104c-1.776 0-3.024 1.296-3.024 3.152 0 1.888 1.248 3.168 3.024 3.168 1.76 0 3.024-1.28 3.024-3.168 0-1.856-1.264-3.152-3.024-3.152zm10.976-1.104c-1.536.016-2.672.624-3.264 1.904v-1.856h-1.248V50h1.248v-4.512c.144-1.632 1.168-2.736 2.832-2.752 1.488 0 2.384.896 2.384 2.4V50h1.248v-5.184c0-2.048-1.184-3.28-3.2-3.28zm6.064 6.96c-.448 0-.784.352-.784.816 0 .464.336.816.784.816.432 0 .768-.352.768-.816 0-.464-.336-.816-.768-.816zM118.448 220.72c3.424 0 6.016 2.432 6.016 5.68 0 3.232-2.592 5.712-6.016 5.712s-6.016-2.464-6.016-5.712c0-3.264 2.592-5.68 6.016-5.68zm.032 2.208a3.445 3.445 0 0 0-3.456 3.472c0 1.968 1.584 3.504 3.456 3.504 1.872 0 3.392-1.536 3.392-3.504s-1.52-3.472-3.392-3.472zm12.864.384c2.416 0 4.048 1.776 4.048 4.432 0 2.608-1.584 4.352-4 4.352-1.2 0-2.144-.48-2.768-1.344v4.352h-2.464v-11.712h2.464v1.264c.608-.864 1.552-1.344 2.72-1.344zm-.576 6.736c1.264 0 2.128-.976 2.128-2.384 0-1.376-.864-2.368-2.128-2.368-1.264 0-2.144.976-2.144 2.368 0 1.424.88 2.384 2.144 2.384zm9.952-6.736c3.024 0 4.432 2 4.224 5.136h-6.176c.288 1.088 1.12 1.728 2.224 1.728.816 0 1.584-.32 2.176-.912l1.296 1.312c-.864.96-2.128 1.52-3.68 1.52-2.752 0-4.496-1.76-4.496-4.368 0-2.656 1.808-4.416 4.432-4.416zm-2 3.68h3.92c-.032-1.136-.768-1.872-1.904-1.872-1.088 0-1.824.736-2.016 1.872zm13.296-3.696c-1.344.016-2.368.528-2.976 1.6v-1.504h-2.464V232h2.464v-4.24c0-1.264.736-2.192 1.968-2.208 1.056 0 1.696.672 1.696 1.76V232h2.464v-5.408c0-2.016-1.232-3.296-3.152-3.296zm14.256 9.664l3.776-9.568h-2.464l-2.032 5.92-2.256-5.92h-2.544l3.568 8.432-.24.48c-.24.512-.624.768-1.136.768-.4 0-.736-.144-1.12-.464l-1.04 1.776c.704.576 1.424.832 2.336.832 1.488 0 2.544-.736 3.152-2.256zm8.448-9.648c2.752 0 4.608 1.744 4.608 4.384 0 2.624-1.856 4.4-4.608 4.4-2.768 0-4.624-1.776-4.624-4.4 0-2.64 1.856-4.384 4.624-4.384zm0 2.048c-1.28 0-2.16.96-2.16 2.368s.88 2.368 2.16 2.368c1.264 0 2.144-.96 2.144-2.368s-.88-2.368-2.144-2.368zm11.968-1.968v4.256c0 1.248-.72 2.176-1.904 2.192-.992 0-1.616-.656-1.616-1.744v-4.704h-2.464v5.408c0 2.032 1.2 3.296 3.104 3.296 1.296 0 2.288-.528 2.88-1.616V232h2.448v-8.608h-2.448zm7.296 1.552v-1.552h-2.464V232h2.464v-4.144c0-1.456 1.088-2.4 2.848-2.24v-2.32c-1.28.016-2.256.592-2.848 1.648zm14.256-1.632c2.416 0 4.048 1.776 4.048 4.432 0 2.608-1.584 4.352-4 4.352-1.2 0-2.144-.48-2.768-1.344v4.352h-2.464v-11.712h2.464v1.264c.608-.864 1.552-1.344 2.72-1.344zm-.576 6.736c1.264 0 2.128-.976 2.128-2.384 0-1.376-.864-2.368-2.128-2.368-1.264 0-2.144.976-2.144 2.368 0 1.424.88 2.384 2.144 2.384zm8.72-5.104v-1.552h-2.464V232h2.464v-4.144c0-1.456 1.088-2.4 2.848-2.24v-2.32c-1.28.016-2.256.592-2.848 1.648zm8.08-1.632c2.752 0 4.608 1.744 4.608 4.384 0 2.624-1.856 4.4-4.608 4.4-2.768 0-4.624-1.776-4.624-4.4 0-2.64 1.856-4.384 4.624-4.384zm0 2.048c-1.28 0-2.16.96-2.16 2.368s.88 2.368 2.16 2.368c1.264 0 2.144-.96 2.144-2.368s-.88-2.368-2.144-2.368zm13.312-3.184c.704 0 1.2-.528 1.2-1.232 0-.72-.496-1.232-1.2-1.232s-1.2.512-1.2 1.232c0 .704.496 1.232 1.2 1.232zm-6.72.784v.816h-1.152v1.712h1.152V232h2.448v-6.512h2.032v-1.712h-2.032v-.72c0-.704.432-1.008 1.024-.992.384 0 .848.128 1.264.336l.096-2.048c-.448-.208-1.072-.336-1.664-.336-1.696 0-3.168.992-3.168 2.944zm5.488.432V232h2.464v-8.608h-2.464zm4.912-3.264V232h2.464v-11.872h-2.464zm8.624 3.184c3.024 0 4.432 2 4.224 5.136h-6.176c.288 1.088 1.12 1.728 2.224 1.728.816 0 1.584-.32 2.176-.912l1.296 1.312c-.864.96-2.128 1.52-3.68 1.52-2.752 0-4.496-1.76-4.496-4.368 0-2.656 1.808-4.416 4.432-4.416zm-2 3.68H252c-.032-1.136-.768-1.872-1.904-1.872-1.088 0-1.824.736-2.016 1.872zm-136.016 15.592l3.152 8.416h1.296l2.464-6.896 2.48 6.896h1.296l3.12-8.416h-1.296l-2.464 7.152-2.48-7.152h-1.312l-2.448 7.152-2.496-7.152h-1.312zm15.888-3.264c-.464 0-.816.352-.816.848 0 .48.352.848.816.848.464 0 .816-.368.816-.848 0-.496-.352-.848-.816-.848zm-.608 3.264V251h1.232v-8.416h-1.232zm8.272 6.88c-.464.272-.912.416-1.344.432-.72 0-1.12-.416-1.12-1.44v-4.64h2.672v-.976h-2.672v-2.208h-1.232v2.208h-1.216v.976h1.216v4.848c0 1.664.912 2.4 2.144 2.384.672 0 1.312-.224 1.904-.624l-.352-.96zm6.848-6.928c-1.552.016-2.704.624-3.28 1.936v-5.344h-1.248V251h1.248v-4.128c0-1.84 1.056-3.12 2.848-3.136 1.488 0 2.384.896 2.384 2.4V251h1.248v-5.184c0-2.048-1.184-3.28-3.2-3.28zm13.472 9.664l3.872-9.616h-1.28l-2.672 7.008-2.8-7.008h-1.312l3.488 8.352-.352.8c-.336.8-.88 1.216-1.536 1.216-.416 0-.8-.128-1.184-.4l-.528.992c.512.416 1.072.608 1.776.608 1.12 0 2-.672 2.528-1.952zm8.496-9.664c2.496 0 4.272 1.744 4.272 4.24 0 2.512-1.776 4.272-4.272 4.272-2.512 0-4.272-1.76-4.272-4.272 0-2.496 1.76-4.24 4.272-4.24zm0 1.104c-1.776 0-3.024 1.296-3.024 3.152 0 1.888 1.248 3.168 3.024 3.168 1.76 0 3.024-1.28 3.024-3.168 0-1.856-1.264-3.152-3.024-3.152zm12.528-1.056v4.128c0 1.824-1.024 3.104-2.768 3.136-1.456 0-2.336-.896-2.336-2.4v-4.864h-1.248v5.184c0 2.032 1.184 3.28 3.152 3.28 1.52-.016 2.64-.64 3.2-1.952V251h1.248v-8.416h-1.248zm5.536 1.872v-1.872h-1.248V251h1.248v-4.48c.144-1.696 1.248-2.8 3.024-2.768v-1.216c-1.424.016-2.464.688-3.024 1.92zm14.016-1.92c-1.536.016-2.672.624-3.264 1.904v-1.856H192V251h1.248v-4.512c.144-1.632 1.168-2.736 2.832-2.752 1.488 0 2.384.896 2.384 2.4V251h1.248v-5.184c0-2.048-1.184-3.28-3.2-3.28zM208.944 251h-1.216v-1.312c-.672.912-1.744 1.36-3.088 1.36-1.744 0-2.864-1.104-2.864-2.544 0-1.472 1.168-2.4 3.152-2.416h2.768v-.528c0-1.232-.768-1.984-2.256-1.984-.928 0-1.792.352-2.672.976l-.528-.88c1.088-.72 2-1.136 3.44-1.136 2.08 0 3.232 1.104 3.248 2.896l.016 5.568zm-4.064-.992c1.424 0 2.512-.704 2.832-1.904v-1.024h-2.624c-1.408 0-2.144.432-2.144 1.376 0 .928.752 1.552 1.936 1.552zm17.648-7.472c-1.616.016-2.8.72-3.328 2.192-.352-1.392-1.44-2.192-3.024-2.192-1.52.016-2.656.64-3.216 1.952v-1.904h-1.232V251h1.232v-4.144c0-1.824 1.04-3.088 2.768-3.136 1.472 0 2.336.896 2.336 2.416V251h1.264v-4.144c0-1.824 1.008-3.088 2.752-3.136 1.456 0 2.336.896 2.336 2.416V251h1.248v-5.184c0-2.048-1.168-3.28-3.136-3.28zm9.232 0c2.72 0 4.064 1.872 3.936 4.72h-6.88c.208 1.664 1.408 2.752 3.056 2.752 1.04 0 1.952-.384 2.608-1.072l.688.72c-.8.88-1.984 1.392-3.392 1.392-2.48 0-4.192-1.744-4.192-4.256 0-2.512 1.728-4.24 4.176-4.256zm-2.944 3.728h5.76c-.08-1.632-1.168-2.688-2.816-2.688-1.616 0-2.768 1.056-2.944 2.688zm22.576 4.256l-.672.672-1.872-1.856c-1.024 1.104-2.208 1.712-3.472 1.712-1.856 0-3.328-1.296-3.328-3.056 0-1.616 1.232-2.464 2.544-3.168-.768-1.008-1.152-1.856-1.152-2.672 0-1.392 1.104-2.4 2.736-2.4 1.552 0 2.592.928 2.592 2.24 0 1.52-1.376 2.304-2.784 3.056.688.8 1.6 1.728 2.752 2.848.416-.608.8-1.344 1.136-2.176l.848.64c-.368.848-.8 1.616-1.264 2.256l1.936 1.904zm-6.928-8.368c0 .656.336 1.36.976 2.224 1.232-.64 2.304-1.248 2.304-2.384 0-.832-.608-1.408-1.568-1.408-1.04 0-1.712.688-1.712 1.568zm.96 7.92c.96 0 1.904-.512 2.72-1.424-1.248-1.248-2.256-2.272-3.008-3.152-1.104.608-2.032 1.296-2.032 2.416 0 1.264 1.024 2.16 2.32 2.16zm-125.408 8.056h1.248V270h-1.248v-1.808c-.624 1.184-1.776 1.872-3.28 1.872-2.4 0-4.064-1.776-4.064-4.288 0-2.512 1.664-4.256 4.048-4.256 1.504 0 2.672.688 3.296 1.888v-5.28zm-3.04 10.864c1.776 0 3.04-1.328 3.04-3.184s-1.264-3.2-3.04-3.2c-1.792 0-3.056 1.344-3.056 3.2s1.264 3.184 3.056 3.184zM130.832 270h-1.216v-1.312c-.672.912-1.744 1.36-3.088 1.36-1.744 0-2.864-1.104-2.864-2.544 0-1.472 1.168-2.4 3.152-2.416h2.768v-.528c0-1.232-.768-1.984-2.256-1.984-.928 0-1.792.352-2.672.976l-.528-.88c1.088-.72 2-1.136 3.44-1.136 2.08 0 3.232 1.104 3.248 2.896l.016 5.568zm-4.064-.992c1.424 0 2.512-.704 2.832-1.904v-1.024h-2.624c-1.408 0-2.144.432-2.144 1.376 0 .928.752 1.552 1.936 1.552zm10.848-.544c-.464.272-.912.416-1.344.432-.72 0-1.12-.416-1.12-1.44v-4.64h2.672v-.976h-2.672v-2.208h-1.232v2.208h-1.216v.976h1.216v4.848c0 1.664.912 2.4 2.144 2.384.672 0 1.312-.224 1.904-.624l-.352-.96zm5.44-6.928c2.72 0 4.064 1.872 3.936 4.72h-6.88c.208 1.664 1.408 2.752 3.056 2.752 1.04 0 1.952-.384 2.608-1.072l.688.72c-.8.88-1.984 1.392-3.392 1.392-2.48 0-4.192-1.744-4.192-4.256 0-2.512 1.728-4.24 4.176-4.256zm-2.944 3.728h5.76c-.08-1.632-1.168-2.688-2.816-2.688-1.616 0-2.768 1.056-2.944 2.688zm17.248-3.728c2.496 0 4.272 1.744 4.272 4.24 0 2.512-1.776 4.272-4.272 4.272-2.512 0-4.272-1.76-4.272-4.272 0-2.496 1.76-4.24 4.272-4.24zm0 1.104c-1.776 0-3.024 1.296-3.024 3.152 0 1.888 1.248 3.168 3.024 3.168 1.76 0 3.024-1.28 3.024-3.168 0-1.856-1.264-3.152-3.024-3.152zm9.392-3.44c.432 0 .896.16 1.28.432l.512-.96a3.056 3.056 0 0 0-1.808-.592c-1.408-.016-2.704.992-2.704 2.816v.944h-1.088v.976h1.088V270h1.232v-7.184h2.416v-.976h-2.416v-1.104c0-.992.672-1.552 1.488-1.536zm11.584 2.336c2.384 0 4.048 1.76 4.048 4.272 0 2.496-1.632 4.24-4.016 4.24-1.504 0-2.656-.688-3.28-1.856V270h-1.248v-11.872h1.248v5.264c.624-1.168 1.776-1.856 3.248-1.856zm-.224 7.408c1.76 0 3.008-1.328 3.008-3.168 0-1.824-1.248-3.168-3.008-3.168-1.776 0-3.024 1.328-3.024 3.168 0 1.856 1.248 3.168 3.024 3.168zm7.072-10.624c-.464 0-.816.352-.816.848 0 .48.352.848.816.848.464 0 .816-.368.816-.848 0-.496-.352-.848-.816-.848zm-.608 3.264V270h1.232v-8.416h-1.232zm5.52 1.872v-1.872h-1.248V270h1.248v-4.48c.144-1.696 1.248-2.8 3.024-2.768v-1.216c-1.424.016-2.464.688-3.024 1.92zm8.704 5.008c-.464.272-.912.416-1.344.432-.72 0-1.12-.416-1.12-1.44v-4.64h2.672v-.976h-2.672v-2.208h-1.232v2.208h-1.216v.976h1.216v4.848c0 1.664.912 2.4 2.144 2.384.672 0 1.312-.224 1.904-.624l-.352-.96zm6.848-6.928c-1.552.016-2.704.624-3.28 1.936v-5.344h-1.248V270h1.248v-4.128c0-1.84 1.056-3.12 2.848-3.136 1.488 0 2.384.896 2.384 2.4V270h1.248v-5.184c0-2.048-1.184-3.28-3.2-3.28zm6.064 6.96c-.448 0-.784.352-.784.816 0 .464.336.816.784.816.432 0 .768-.352.768-.816 0-.464-.336-.816-.768-.816zM228.826 196.885l1.474-.55c.96-.374 2.38-.83 4.172-1.61 1.812-.716 3.942-1.704 6.383-2.84l3.818-1.951c1.31-.75 2.708-1.506 4.131-2.353 2.836-1.71 5.887-3.614 8.934-5.885a118.946 118.946 0 0 0 9.289-7.51c3.111-2.744 6.148-5.78 9.101-8.99 2.984-3.187 5.756-6.659 8.415-10.217 2.672-3.553 5.027-7.333 7.254-11.106 2.235-3.775 4.108-7.67 5.813-11.486.808-1.927 1.615-3.819 2.284-5.717.721-1.88 1.334-3.752 1.922-5.577.589-1.824 1.027-3.64 1.522-5.373.423-1.752.815-3.451 1.135-5.093.281-1.648.627-3.213.807-4.728.185-1.513.4-2.94.528-4.291l.287-3.788c.064-1.17.062-2.251.094-3.221.032-.971.037-1.839 0-2.594-.027-.755-.047-1.396-.066-1.917l-.073-1.592a.949.949 0 0 0-1.887-.092l-.006.04-.223 1.553c-.158 1.01-.294 2.496-.607 4.37l-.473 3.1-.652 3.633c-.471 2.587-1.105 5.483-1.84 8.626-.38 1.57-.85 3.185-1.262 4.874-.506 1.662-.955 3.404-1.55 5.155-1.075 3.537-2.449 7.188-3.955 10.93-.377.935-.802 1.86-1.205 2.802-.401.945-.82 1.886-1.28 2.818-.445.94-.89 1.885-1.339 2.836-.479.935-.958 1.876-1.441 2.82-1.992 3.746-4.145 7.496-6.558 11.08-2.408 3.586-4.937 7.11-7.691 10.366-2.757 3.249-5.579 6.375-8.562 9.14a48.722 48.722 0 0 1-2.222 2.053l-2.222 1.967c-1.527 1.227-2.983 2.476-4.496 3.57-2.955 2.28-5.922 4.2-8.683 5.928-1.393.843-2.769 1.583-4.055 2.323l-3.75 1.927-3.366 1.55c-1.043.479-2.027.829-2.9 1.193-1.734.728-3.185 1.192-4.15 1.532l-1.489.512a.946.946 0 1 0 .617 1.791l.023-.008zm88.643-103.46c-.573-.801-1.083-1.624-1.591-2.43a69.861 69.861 0 0 1-1.415-2.527c-.907-1.704-1.687-3.474-2.388-5.27a68.386 68.386 0 0 1-.956-2.729c-.294-.918-.543-1.848-.792-2.777a65.455 65.455 0 0 1-1.13-5.64 1.716 1.716 0 0 0-2.946-.905l-.193.207-1.776 1.898c-.585.64-1.19 1.26-1.766 1.904-.577.642-1.171 1.27-1.746 1.915L299.045 79a59.619 59.619 0 0 0-3.285 4.017c-1.032 1.4-2.032 2.837-2.866 4.454-.25.486-.032 1.134.454 1.385.294.151.659.195.932.05l.016-.009c.815-.433 1.527-.987 2.266-1.496a39.09 39.09 0 0 0 5.835-5.424 80.811 80.811 0 0 0 3.367-4.087 87.576 87.576 0 0 0 3.094-4.302l-3.14-.7c.31.958.642 1.905.988 2.847.351.94.726 1.867 1.102 2.793.374.926.78 1.837 1.174 2.751.398.913.819 1.813 1.242 2.711.42.9.866 1.786 1.31 2.672l1.379 2.632c.47.872.88 1.775 1.378 2.632l1.416 2.6.01.017c.245.463.928.56 1.38.296.451-.266.644-.868.379-1.32-.015-.025.01-.072-.007-.095zM.823 369.763l1.56.207c1.024.12 2.492.384 4.44.536 1.936.219 4.28.346 6.968.49l4.288.069c1.509-.046 3.098-.058 4.752-.138 3.307-.179 6.895-.427 10.65-1.002 3.76-.527 7.7-1.284 11.728-2.27 4.036-.962 8.142-2.217 12.257-3.665 4.13-1.413 8.208-3.177 12.226-5.07 4.028-1.883 7.882-4.115 11.619-6.401 3.746-2.283 7.228-4.844 10.525-7.412 1.618-1.322 3.219-2.614 4.7-3.976 1.52-1.321 2.94-2.686 4.316-4.022 1.376-1.334 2.615-2.731 3.866-4.029a119.189 119.189 0 0 0 3.393-3.964c1.022-1.323 2.063-2.543 2.933-3.796.873-1.249 1.734-2.408 2.48-3.541l2.032-3.21c.606-1.003 1.112-1.958 1.595-2.8.485-.842.896-1.606 1.218-2.29.33-.679.614-1.255.842-1.723l.683-1.44a.949.949 0 0 0-1.623-.967l-.024.032-.926 1.267c-.614.818-1.432 2.065-2.588 3.573l-1.873 2.516-2.281 2.901c-1.631 2.063-3.55 4.322-5.675 6.752-1.072 1.207-2.245 2.413-3.402 3.711-1.227 1.23-2.441 2.558-3.79 3.824-2.608 2.619-5.535 5.197-8.622 7.794-.772.648-1.581 1.265-2.38 1.908a53.472 53.472 0 0 1-2.453 1.887l-2.513 1.876-2.597 1.814c-3.517 2.372-7.178 4.672-10.992 6.704-3.81 2.035-7.696 3.959-11.657 5.541-3.96 1.575-7.918 3.01-11.851 4.051-.975.291-1.951.544-2.925.77l-2.886.693c-1.924.367-3.796.786-5.645 1.041-3.68.627-7.201.928-10.45 1.158-1.626.09-3.188.098-4.671.148l-4.216-.06-3.7-.211c-1.145-.067-2.178-.22-3.12-.308-1.873-.172-3.372-.443-4.383-.596l-1.555-.247a.946.946 0 1 0-.297 1.871l.024.004zm126.839-49.734c-.13-.977-.194-1.943-.264-2.893a69.861 69.861 0 0 1-.063-2.895c-.001-1.931.142-3.86.366-5.775.122-.957.275-1.909.437-2.858.17-.949.388-1.887.604-2.824a65.455 65.455 0 0 1 1.65-5.51 1.716 1.716 0 0 0-2.176-2.182l-.268.092-2.46.842c-.815.29-1.641.553-2.452.852-.811.296-1.63.571-2.44.871l-2.43.895a59.619 59.619 0 0 0-4.786 2.004c-1.57.752-3.126 1.551-4.621 2.587-.45.312-.561.986-.25 1.436.189.272.49.482.799.482h.019c.923 0 1.81-.155 2.703-.258a39.09 39.09 0 0 0 7.698-2.05 80.811 80.811 0 0 0 4.892-2.027 87.576 87.576 0 0 0 4.75-2.346l-2.442-2.092a75.694 75.694 0 0 0-.465 2.977c-.131.995-.235 1.99-.338 2.984-.104.993-.174 1.988-.255 2.98-.077.993-.128 1.985-.176 2.977-.051.991-.074 1.983-.098 2.974l-.018 2.971c.006.991-.056 1.981-.02 2.971l.03 2.961v.019c0 .524.558.93 1.08.909.525-.023.978-.464.956-.988-.002-.028.042-.058.038-.086z"/>
    </g>
</svg>
