<svg xmlns="http://www.w3.org/2000/svg" width="100" height="100" viewBox="0 0 100 100">
    <g fill="none" fill-rule="evenodd">
        <path stroke="#000" stroke-opacity=".12" d="M2.564.5c-.737 0-1.017.054-1.305.208a1.317 1.317 0 0 0-.551.551C.554 1.547.5 1.827.5 2.564v94.872c0 .737.054 1.017.208 1.305.128.239.312.423.551.551.288.154.568.208 1.305.208h94.872c.737 0 1.017-.054 1.305-.208.239-.128.423-.312.551-.551.154-.288.208-.568.208-1.305V2.564c0-.737-.054-1.017-.208-1.305a1.317 1.317 0 0 0-.551-.551C98.453.554 98.173.5 97.436.5H2.564z"/>
        <path fill="#00BCD4" fill-rule="nonzero" d="M49.982 27a1 1 0 0 0-.447.113l-21 11A1 1 0 0 0 28 39v3a1 1 0 0 0 1 1h1v1.4c0 1.212.864 2.245 2 2.522v18.09h-2.9l.166.014C28.034 64.818 27 65.875 27 67.03v2.748c0 1.18.934 2.221 2.1 2.221h41.7c1.166 0 2.1-.962 2.1-2.119v-2.748c0-1.157-.934-2.121-2.1-2.121H68v-18.09c1.136-.277 2-1.31 2-2.521V43h1a1 1 0 0 0 1-1v-3a1 1 0 0 0-.535-.888l-21-11a1 1 0 0 0-.483-.113zM50 29.131l20 10.475V41h-.832a1 1 0 0 0-.326 0h-9.688a1 1 0 0 0-.314 0h-3.672a1 1 0 0 0-.326 0h-9.688a1 1 0 0 0-.314 0h-3.672a1 1 0 0 0-.326 0h-9.688a1 1 0 0 0-.314 0H30v-1.394L50 29.13zm-18 13.87h8v1.4c0 .381-.218.6-.6.6h-6.8c-.382 0-.6-.219-.6-.6V43zm10 0h2v1.4c0 1.211.864 2.244 2 2.521v18.09h-6v-18.09c1.136-.277 2-1.31 2-2.521V43zm4 0h8v1.4c0 .381-.218.6-.6.6h-6.8c-.382 0-.6-.219-.6-.6V43zm10 0h2v1.4c0 1.211.864 2.244 2 2.521v18.09h-6v-18.09c1.136-.277 2-1.31 2-2.521V43zm4 0h8v1.4c0 .381-.218.6-.6.6h-6.8c-.382 0-.6-.219-.6-.6V43zm-26 4h4v18h-4V47zm14 0h4v18h-4V47zm14 0h4v18h-4V47zM28.984 67.003a1 1 0 0 0 .116.008h41.7c.035 0 .1.056.1.121v2.748c0 .066-.065.12-.1.12H29.1c-.035 0-.1.022-.1-.222v-2.748c0-.023-.009-.023-.016-.027z"/>
    </g>
</svg>
