<svg xmlns="http://www.w3.org/2000/svg" width="74" height="58.319" viewBox="0 0 74 58.319">
    <defs>
        <style>
            .cls-2{fill:#00bcd4}
        </style>
    </defs>
    <g id="ic_camera" transform="translate(1 1.681)">
        <path id="_" d="M30.648 30H3.353A3.267 3.267 0 0 1 1 29.023a3.217 3.217 0 0 1-1-2.382v-20a3.129 3.129 0 0 1 1-2.3 3.267 3.267 0 0 1 2.353-.981H8.78L11.892 0h10.216l3.113 3.36h5.427A3.267 3.267 0 0 1 33 4.336a3.131 3.131 0 0 1 1 2.3v20a3.22 3.22 0 0 1-1 2.382 3.267 3.267 0 0 1-2.352.982zM17 8.359a8.414 8.414 0 0 0-6.026 2.422 7.869 7.869 0 0 0-2.515 5.86 7.994 7.994 0 0 0 2.515 5.9A8.344 8.344 0 0 0 17 25a8.344 8.344 0 0 0 6.025-2.462 7.994 7.994 0 0 0 2.515-5.9 7.869 7.869 0 0 0-2.515-5.86A8.414 8.414 0 0 0 17 8.359zM16.761 21.8a5.308 5.308 0 0 1-3.831-1.562 5.178 5.178 0 0 1-1.6-3.829 5.088 5.088 0 0 1 1.6-3.75 5.478 5.478 0 0 1 7.662 0 5.083 5.083 0 0 1 1.6 3.75 5.173 5.173 0 0 1-1.6 3.829 5.3 5.3 0 0 1-3.831 1.562z" class="cls-2" data-name="{" transform="translate(19 7.681)"/>
    </g>
</svg>
