<svg xmlns="http://www.w3.org/2000/svg" width="139" height="32" viewBox="0 0 139 32">
    <g fill="none" fill-rule="evenodd">
        <path fill="#FDBF28" d="M0 16c0 8.837 7.163 16 16 16h107c8.837 0 16-7.163 16-16s-7.163-16-16-16H16C7.163 0 0 7.163 0 16z"/>
        <text fill="#FFF" font-family="Montserrat-Regular, Montserrat" font-size="12" transform="translate(43 8)">
            <tspan x="0" y="12">Send request</tspan>
        </text>
        <path fill="#FFF" d="M18.86 10.492h.898v1.25h.351c.26 0 .391.13.391.39 0 .261-.13.391-.39.391h-1.602a.318.318 0 0 1-.352-.058.425.425 0 0 1-.156-.332c0-.26.17-.39.508-.39h.351v-1.25zm-.47 7.031c-.26 0-.39-.13-.39-.39s.17-.39.508-.39h.351v-1.25h.899v1.25h.351c.26 0 .391.13.391.39 0 .364-.17.495-.508.39h-1.601zm0-2.5c-.26 0-.39-.13-.39-.39s.17-.39.508-.39h.351v-1.25h.899v1.25h.351c.26 0 .391.13.391.39s-.17.39-.508.39h-1.601zm2.11 4.61c0 .364-.17.495-.508.39h-1.601c-.26 0-.391-.13-.391-.39s.17-.39.508-.39h.351v-1.25h.899v1.25h.351c.26 0 .391.13.391.39zm12.5-.508c.703.26 1.296.71 1.777 1.348.482.638.723 1.321.723 2.05 0 .964-.339 1.784-1.016 2.461-.677.677-1.51 1.016-2.5 1.016a3.311 3.311 0 0 1-2.109-.742 3.538 3.538 0 0 1-1.25-1.875h-8.516c-.312 0-.599-.13-.859-.39-.26-.261-.39-.548-.39-.86v-1.485h.898v1.602c0 .26.117.39.351.39h8.399v-.117c0-.937.345-1.757 1.035-2.46.69-.704 1.504-1.055 2.441-1.055h.157V7.25c0-.234-.13-.352-.391-.352H20.11c-.235 0-.352.118-.352.352v1.992h.351c.26 0 .391.13.391.39 0 .261-.13.391-.39.391h-1.602c-.339 0-.508-.13-.508-.39 0-.13.052-.222.156-.274.104-.052.222-.039.352.04h.351V7.25c0-.313.13-.599.391-.86.26-.26.547-.39.86-.39h11.64c.313 0 .599.13.86.39.26.261.39.547.39.86v11.875zm-1.64 6.25h1.25a3.158 3.158 0 0 0 1.62-1.055c.43-.52.645-1.12.645-1.797 0-.833-.273-1.523-.82-2.07-.547-.547-1.237-.82-2.07-.82-.808 0-1.485.28-2.032.84-.547.56-.82 1.243-.82 2.05 0 .756.202 1.394.605 1.915.404.52.944.833 1.621.937zm2.5-2.617h-1.485v1.484h-.625v-1.484h-1.484v-.625h1.484v-1.485h.625v1.485h1.484v.625zm-6.876-7.266c.105.26.404.488.899.684.495.195.963.436 1.406.722.443.287.677.704.703 1.25h-7.851c.026-.546.254-.963.683-1.25.43-.286.88-.527 1.348-.722.469-.196.742-.423.82-.684v-.86c-.078 0-.247-.286-.508-.859-.234 0-.351-.208-.351-.625 0-.182.078-.351.234-.507-.443-1.927.104-2.891 1.64-2.891.417 0 .743.13.977.39.6.053.931.404.996 1.055.066.651-.006 1.133-.214 1.446l.117.351c-.104.417-.235.625-.39.625-.157.677-.326 1.016-.509 1.016v.86z"/>
    </g>
</svg>
