<svg xmlns="http://www.w3.org/2000/svg" width="105" height="32" viewBox="0 0 105 32">
    <g fill="none" fill-rule="evenodd">
        <path fill="#FDBF28" d="M0 16c0 8.837 7.163 16 16 16h73c8.837 0 16-7.163 16-16S97.837 0 89 0H16C7.163 0 0 7.163 0 16z"/>
        <g fill="#FFF">
            <text font-family="Montserrat-Regular, Montserrat" font-size="12" transform="translate(16 8)">
                <tspan x="23" y="12">Add File</tspan>
            </text>
            <path d="M24.086 15.914h3.164v1.172h-3.164v3.164h-1.172v-3.164H19.75v-1.172h3.164V12.75h1.172v3.164zM23.5 24c-2.07 0-3.838-.732-5.303-2.197C16.732 20.338 16 18.57 16 16.5s.732-3.838 2.197-5.303C19.662 9.732 21.43 9 23.5 9s3.838.732 5.303 2.197C30.268 12.662 31 14.43 31 16.5s-.732 3.838-2.197 5.303C27.338 23.268 25.57 24 23.5 24zm0-1.143c1.758 0 3.257-.62 4.497-1.86 1.24-1.24 1.86-2.74 1.86-4.497 0-1.758-.62-3.257-1.86-4.497-1.24-1.24-2.74-1.86-4.497-1.86-1.758 0-3.257.62-4.497 1.86-1.24 1.24-1.86 2.74-1.86 4.497 0 1.758.62 3.257 1.86 4.497 1.24 1.24 2.74 1.86 4.497 1.86z"/>
        </g>
    </g>
</svg>
