<svg xmlns="http://www.w3.org/2000/svg" width="209" height="32" viewBox="0 0 209 32">
    <g fill="none" fill-rule="evenodd">
        <path fill="#FDBF28" d="M0 16c0 8.837 7.163 16 16 16h177c8.837 0 16-7.163 16-16s-7.163-16-16-16H16C7.163 0 0 7.163 0 16z"/>
        <text fill="#FFF" font-family="Montserrat-Regular, Montserrat" font-size="12" transform="translate(43 8)">
            <tspan x="0" y="12">Verify someone’s address</tspan>
        </text>
        <path fill="#FFF" d="M19.11 10.61h.898v1.25h.351c.26 0 .391.13.391.39s-.13.39-.39.39h-1.602a.318.318 0 0 1-.352-.058.425.425 0 0 1-.156-.332c0-.26.17-.39.508-.39h.351v-1.25zm-.47 7.03c-.26 0-.39-.13-.39-.39s.17-.39.508-.39h.351v-1.25h.899v1.25h.351c.26 0 .391.13.391.39 0 .365-.17.495-.508.39h-1.601zm0-2.5c-.26 0-.39-.13-.39-.39s.17-.39.508-.39h.351v-1.25h.899v1.25h.351c.26 0 .391.13.391.39s-.17.39-.508.39h-1.601zm2.11 4.61c0 .365-.17.495-.508.39h-1.601c-.26 0-.391-.13-.391-.39s.17-.39.508-.39h.351v-1.25h.899v1.25h.351c.26 0 .391.13.391.39zm12.5-.508c.703.26 1.296.71 1.777 1.348.482.638.723 1.321.723 2.05 0 .964-.339 1.784-1.016 2.462-.677.677-1.51 1.015-2.5 1.015a3.311 3.311 0 0 1-2.109-.742 3.538 3.538 0 0 1-1.25-1.875h-8.516c-.312 0-.599-.13-.859-.39-.26-.261-.39-.547-.39-.86v-1.484h.898v1.601c0 .26.117.39.351.39h8.399v-.116c0-.938.345-1.758 1.035-2.461.69-.703 1.504-1.055 2.441-1.055h.157V7.367c0-.234-.13-.351-.391-.351H20.36c-.235 0-.352.117-.352.351V9.36h.351c.26 0 .391.13.391.391 0 .26-.13.39-.39.39h-1.602c-.339 0-.508-.13-.508-.39 0-.13.052-.221.156-.273.104-.053.222-.04.352.039h.351V7.367c0-.312.13-.599.391-.86.26-.26.547-.39.86-.39H32c.313 0 .599.13.86.39.26.261.39.548.39.86v11.875zm-1.64 6.25h1.25a3.158 3.158 0 0 0 1.62-1.055c.43-.52.645-1.12.645-1.796 0-.834-.273-1.524-.82-2.07-.547-.548-1.237-.821-2.07-.821-.808 0-1.485.28-2.032.84-.547.56-.82 1.243-.82 2.05 0 .756.202 1.394.605 1.915.404.52.944.833 1.621.937zm2.5-2.617h-1.485v1.484H32v-1.484h-1.484v-.625H32v-1.484h.625v1.484h1.484v.625zm-6.876-7.266c.105.26.404.489.899.684.495.195.963.436 1.406.723.443.286.677.703.703 1.25h-7.851c.026-.547.254-.964.683-1.25.43-.287.88-.528 1.348-.723.469-.195.742-.423.82-.684v-.859c-.078 0-.247-.286-.508-.86-.234 0-.351-.208-.351-.624 0-.183.078-.352.234-.508-.443-1.927.104-2.89 1.64-2.89.417 0 .743.13.977.39.6.052.931.403.996 1.055.066.65-.006 1.132-.214 1.445l.117.351c-.104.417-.235.625-.39.625-.157.677-.326 1.016-.509 1.016v.86z"/>
    </g>
</svg>
