<svg xmlns="http://www.w3.org/2000/svg" width="131" height="77" viewBox="0 0 131 77">
    <path fill="#FFF" fill-rule="evenodd" d="M.823 74.763l1.56.207c1.024.12 2.492.384 4.44.536 1.936.219 4.28.346 6.968.49l4.288.069c1.509-.046 3.098-.058 4.752-.138 3.307-.179 6.895-.427 10.65-1.002 3.76-.527 7.7-1.284 11.728-2.27 4.036-.962 8.142-2.217 12.257-3.665 4.13-1.413 8.208-3.177 12.226-5.07 4.028-1.883 7.882-4.115 11.619-6.401 3.746-2.283 7.228-4.844 10.525-7.412 1.618-1.322 3.219-2.614 4.7-3.976 1.52-1.321 2.94-2.686 4.316-4.022 1.376-1.334 2.615-2.731 3.866-4.029a119.189 119.189 0 0 0 3.393-3.964c1.022-1.323 2.063-2.543 2.933-3.796.873-1.249 1.734-2.408 2.48-3.541l2.032-3.21c.606-1.003 1.112-1.958 1.595-2.8.485-.842.896-1.606 1.218-2.29.33-.679.614-1.255.842-1.723l.683-1.44a.949.949 0 0 0-1.623-.967l-.024.032-.926 1.267c-.614.818-1.432 2.065-2.588 3.573l-1.873 2.516-2.281 2.901c-1.631 2.063-3.55 4.322-5.675 6.752-1.072 1.207-2.245 2.413-3.402 3.711-1.227 1.23-2.441 2.558-3.79 3.824-2.608 2.619-5.535 5.197-8.622 7.794-.772.648-1.581 1.265-2.38 1.908a53.472 53.472 0 0 1-2.453 1.887l-2.513 1.876-2.597 1.814c-3.517 2.372-7.178 4.672-10.992 6.704-3.81 2.035-7.696 3.959-11.657 5.541-3.96 1.575-7.918 3.01-11.851 4.051-.975.291-1.951.544-2.925.77l-2.886.693c-1.924.367-3.796.786-5.645 1.041-3.68.627-7.201.928-10.45 1.158-1.626.09-3.188.098-4.671.148l-4.216-.06-3.7-.211c-1.145-.067-2.178-.22-3.12-.308-1.873-.172-3.372-.443-4.383-.596l-1.555-.247a.946.946 0 1 0-.297 1.871l.024.004zm126.839-49.734c-.13-.977-.194-1.943-.264-2.893a69.861 69.861 0 0 1-.063-2.895c-.001-1.931.142-3.86.366-5.775.122-.957.275-1.909.437-2.858.17-.949.388-1.887.604-2.824a65.455 65.455 0 0 1 1.65-5.51 1.716 1.716 0 0 0-2.176-2.182l-.268.092-2.46.842c-.815.29-1.641.553-2.452.852-.811.296-1.63.571-2.44.871l-2.43.895a59.619 59.619 0 0 0-4.786 2.004c-1.57.752-3.126 1.551-4.621 2.587-.45.312-.561.986-.25 1.436.189.272.49.482.799.482h.019c.923 0 1.81-.155 2.703-.258a39.09 39.09 0 0 0 7.698-2.05 80.811 80.811 0 0 0 4.892-2.027 87.576 87.576 0 0 0 4.75-2.346l-2.442-2.092a75.694 75.694 0 0 0-.465 2.977c-.131.995-.235 1.99-.338 2.984-.104.993-.174 1.988-.255 2.98-.077.993-.128 1.985-.176 2.977-.051.991-.074 1.983-.098 2.974l-.018 2.971c.006.991-.056 1.981-.02 2.971l.03 2.961v.019c0 .524.558.93 1.08.909.525-.023.978-.464.956-.988-.002-.028.042-.058.038-.086z"/>
</svg>
