<svg xmlns="http://www.w3.org/2000/svg" width="91" height="127" viewBox="0 0 91 127">
    <path fill="#FFF" fill-rule="evenodd" d="M1.826 126.885l1.474-.55c.96-.374 2.38-.83 4.172-1.61 1.812-.716 3.942-1.704 6.383-2.84l3.818-1.951c1.31-.75 2.708-1.506 4.131-2.353 2.836-1.71 5.887-3.614 8.934-5.885a118.946 118.946 0 0 0 9.289-7.51c3.111-2.744 6.148-5.78 9.101-8.99 2.984-3.187 5.756-6.659 8.415-10.217 2.672-3.553 5.027-7.333 7.254-11.106 2.235-3.775 4.108-7.67 5.813-11.486.808-1.927 1.615-3.819 2.284-5.717.721-1.88 1.334-3.752 1.922-5.577.589-1.824 1.027-3.64 1.522-5.373.423-1.752.815-3.451 1.135-5.093.281-1.648.627-3.213.807-4.728.185-1.513.4-2.94.528-4.291l.287-3.788c.064-1.17.062-2.251.094-3.221.032-.971.037-1.839 0-2.594-.027-.755-.047-1.396-.066-1.917l-.073-1.592a.949.949 0 0 0-1.887-.092l-.006.04-.223 1.553c-.158 1.01-.294 2.496-.607 4.37l-.473 3.1-.652 3.633c-.471 2.587-1.105 5.483-1.84 8.626-.38 1.57-.85 3.185-1.262 4.874-.506 1.662-.955 3.404-1.55 5.155-1.075 3.537-2.449 7.188-3.955 10.93-.377.935-.802 1.86-1.205 2.802-.401.945-.82 1.886-1.28 2.818-.445.94-.89 1.885-1.339 2.836-.479.935-.958 1.876-1.441 2.82-1.992 3.746-4.145 7.496-6.558 11.08-2.408 3.586-4.937 7.11-7.691 10.366-2.757 3.249-5.579 6.375-8.562 9.14a48.722 48.722 0 0 1-2.222 2.053l-2.222 1.967c-1.527 1.227-2.983 2.476-4.496 3.57-2.955 2.28-5.922 4.2-8.683 5.928-1.393.843-2.769 1.583-4.055 2.323l-3.75 1.927-3.366 1.55c-1.043.479-2.027.829-2.9 1.193-1.734.728-3.185 1.192-4.15 1.532l-1.489.512a.946.946 0 1 0 .617 1.791l.023-.008zm88.643-103.46c-.573-.801-1.083-1.624-1.591-2.43a69.861 69.861 0 0 1-1.415-2.527c-.907-1.704-1.687-3.474-2.388-5.27a68.386 68.386 0 0 1-.956-2.729c-.294-.918-.543-1.848-.792-2.777a65.455 65.455 0 0 1-1.13-5.64 1.716 1.716 0 0 0-2.946-.905l-.193.207-1.776 1.898c-.585.64-1.19 1.26-1.766 1.904-.577.642-1.171 1.27-1.746 1.915L72.045 9a59.619 59.619 0 0 0-3.285 4.017c-1.032 1.4-2.032 2.837-2.866 4.454-.25.486-.032 1.134.454 1.385.294.151.659.195.932.05l.016-.009c.815-.433 1.527-.987 2.266-1.496a39.09 39.09 0 0 0 5.835-5.424 80.811 80.811 0 0 0 3.367-4.087 87.576 87.576 0 0 0 3.094-4.302l-3.14-.7c.31.958.642 1.905.988 2.847.351.94.726 1.867 1.102 2.793.374.926.78 1.837 1.174 2.751.398.913.819 1.813 1.242 2.711.42.9.866 1.786 1.31 2.672l1.379 2.632c.47.872.88 1.775 1.378 2.632l1.416 2.6.01.017c.245.463.928.56 1.38.296.451-.266.644-.868.379-1.32-.015-.025.01-.072-.007-.095z"/>
</svg>
