<svg xmlns="http://www.w3.org/2000/svg" width="19" height="17" viewBox="0 0 19 17">
    <path fill="#00BCD4" fill-rule="nonzero" d="M2.923 0h13.154C17.68 0 19 1.33 19 2.953v7.383c0 1.62-1.319 2.953-2.923 2.953H8.54l-1.279 3.23a.732.732 0 0 1-.685.481.732.732 0 0 1-.685-.482l-1.279-3.23h-1.69C1.32 13.289 0 11.957 0 10.337V2.953C0 1.329 1.319 0 2.923 0zm.813 4h12.528c.407 0 .736-.224.736-.5s-.33-.5-.736-.5H3.736C3.329 3 3 3.224 3 3.5s.33.5.736.5zM2.698 8h6.604c.385 0 .698-.224.698-.5S9.687 7 9.302 7H2.698C2.313 7 2 7.224 2 7.5s.313.5.698.5z"/>
</svg>
