<svg xmlns="http://www.w3.org/2000/svg" width="50" height="50" viewBox="0 0 50 50">
    <g fill="none" fill-rule="evenodd">
        <rect width="49" height="49" x=".5" y=".5" stroke="#000" stroke-opacity=".12" rx="2"/>
        <path fill="#000" fill-opacity=".54" fill-rule="nonzero" d="M15.712 11.111a3.21 3.21 0 0 0-3.212 3.205V38.89h25.694V14.316a3.21 3.21 0 0 0-3.211-3.205H15.712zm0 2.137h19.27c.59 0 1.071.48 1.071 1.068v22.436h-8.565V31.41h-4.282v5.342h-8.565V14.316c0-.588.481-1.068 1.07-1.068zm1.07 2.137v3.205h4.283v-3.205h-4.283zm6.424 0v3.205h4.282v-3.205h-4.282zm6.424 0v3.205h4.282v-3.205H29.63zm-12.848 5.341v3.206h4.283v-3.206h-4.283zm6.424 0v3.206h4.282v-3.206h-4.282zm6.424 0v3.206h4.282v-3.206H29.63zm-12.848 5.342v3.206h4.283v-3.206h-4.283zm6.424 0v3.206h4.282v-3.206h-4.282zm6.424 0v3.206h4.282v-3.206H29.63zM16.782 31.41v3.205h4.283V31.41h-4.283zm12.848 0v3.205h4.282V31.41H29.63z"/>
    </g>
</svg>
