<svg xmlns="http://www.w3.org/2000/svg" width="131" height="28" viewBox="0 0 131 28">
    <g fill="#FFF" fill-rule="evenodd">
        <text font-family="Montserrat-Medium, Montserrat" font-size="14.4" font-weight="400">
            <tspan x="64.2" y="21.4">IDENTITY</tspan>
        </text>
        <path d="M18.041 16.838c-.032-.402-.054-.805-.096-1.206a7.057 7.057 0 0 0-.685-2.394c-.732-1.486-1.82-2.648-3.22-3.51-1.044-.643-2.187-.963-3.409-1a8.623 8.623 0 0 0-1.718.134 6.774 6.774 0 0 0-2.882 1.208 8.764 8.764 0 0 0-2.057 2.14 7.601 7.601 0 0 0-1.34 3.696 8.953 8.953 0 0 0 .333 3.318c.355 1.223.958 2.308 1.844 3.223 1.405 1.451 3.138 2.167 5.13 2.284a7.897 7.897 0 0 0 1.91-.134 7.335 7.335 0 0 0 2.109-.725c.755-.4 1.402-.937 1.976-1.569a8.004 8.004 0 0 0 1.48-2.302c.422-1.01.603-2.069.625-3.163zM20.623.002c.004.07.01.12.01.17-.004 1.685-.007 3.37-.013 5.055-.004 1.388-.013 2.775-.018 4.163l-.01 3.593-.004 2.924c-.001.431.01.863-.002 1.294a10.085 10.085 0 0 1-1.344 4.77c-.501.878-1.09 1.687-1.814 2.393-1.079 1.05-2.321 1.837-3.752 2.307a9.735 9.735 0 0 1-1.914.411c-.656.076-1.314.102-1.973.075-1.741-.073-3.382-.502-4.876-1.432-1.011-.629-1.865-1.433-2.605-2.365A10.336 10.336 0 0 1 .294 19.22a12.684 12.684 0 0 1-.26-1.788 7.513 7.513 0 0 1-.031-.885c.008-.244.036-.488.058-.732.072-.792.212-1.57.443-2.332a9.934 9.934 0 0 1 2.429-4.11 11.753 11.753 0 0 1 2.61-2.02 8.207 8.207 0 0 1 2.403-.885 11.995 11.995 0 0 1 2.013-.233c1.297-.048 2.562.12 3.792.54a9.337 9.337 0 0 1 3.428 2.083c.281.267.541.556.812.835l.1.1V.3c0-.299 0-.3.303-.299l2.087.002h.142zm8.88 19.858c0-1.587-.004-3.174.001-4.761.002-.608-.002-1.217.036-1.823a7.028 7.028 0 0 1 1.312-3.726c.865-1.206 2.01-2.041 3.39-2.553a8.39 8.39 0 0 1 2.136-.479c.224-.02.45-.036.674-.049.176-.01.197.015.198.197l.001 2.047a.881.881 0 0 1-.005.097c-.007.065-.046.1-.109.104-.064.004-.129.002-.193.002-.721-.002-1.423.107-2.09.394-.979.423-1.716 1.118-2.235 2.051-.354.635-.55 1.324-.659 2.04-.077.51-.105 1.024-.11 1.539-.01 1.304-.026 2.608-.025 3.912.001 1.077.024 2.153.038 3.23.01.848.022 1.698.03 2.547.007.598.009 1.197.012 1.796.001.213-.011.227-.228.227l-1.962.003c-.023 0-.046.001-.07-.001-.098-.011-.128-.039-.136-.14a2.585 2.585 0 0 1-.006-.222c.001-.529.005-1.058.005-1.587V19.86h-.006zm-3.154-3.135V26.4c0 .246-.012.256-.26.256h-2.141c-.23.001-.254-.021-.254-.253l.002-9.466-.002-9.857c0-.055-.002-.111.004-.166.011-.093.051-.128.145-.136.023-.002.046 0 .069 0h2.225c.032 0 .065-.003.096.002.078.01.109.045.115.13.003.041 0 .084 0 .125v9.69zm.718-14.492c-.003 1.138-.937 2.072-2.072 2.058a2.055 2.055 0 0 1-2.035-2.08A2.049 2.049 0 0 1 25.017.152c1.2.004 2.057.989 2.05 2.08zM57.6 16.759c-.012 1.356-.228 2.67-.727 3.932a10.11 10.11 0 0 1-1.921 3.068 12.743 12.743 0 0 1-2.081 1.844 7.021 7.021 0 0 1-1.262.716 9.931 9.931 0 0 1-2.52.75c-.465.069-.932.12-1.402.126-.424.005-.848.013-1.27-.013a10.25 10.25 0 0 1-3.246-.732c-1-.406-1.873-1.007-2.68-1.715a10.533 10.533 0 0 1-2.355-2.908 10.262 10.262 0 0 1-1.094-3.208 12.383 12.383 0 0 1-.18-2.035c-.005-2.34.698-4.443 2.09-6.313.702-.943 1.516-1.77 2.48-2.441a9.51 9.51 0 0 1 3.778-1.558c.654-.119 1.313-.19 1.977-.183 1.025.012 2.038.128 3.03.406a9.051 9.051 0 0 1 3.163 1.602c1.09.853 2.025 1.849 2.744 3.042a9.828 9.828 0 0 1 1.326 3.777c.03.216.062.432.078.65.03.397.049.795.072 1.193zm-2.592-.062c-.01-.18-.019-.454-.041-.726-.052-.626-.15-1.244-.354-1.84-.677-1.982-1.93-3.491-3.717-4.553a6.679 6.679 0 0 0-2.812-.926 8.895 8.895 0 0 0-1.82.01 6.569 6.569 0 0 0-1.557.359c-.64.236-1.223.582-1.781.971-1.156.806-2.062 1.83-2.662 3.118a8.67 8.67 0 0 0-.686 2.311 8.45 8.45 0 0 0-.008 2.62c.096.635.281 1.247.517 1.843.582 1.471 1.501 2.672 2.816 3.556 1.126.757 2.362 1.2 3.716 1.29a8.493 8.493 0 0 0 2.643-.244c1.246-.311 2.356-.883 3.272-1.796 1.627-1.62 2.46-3.587 2.474-5.993zm-3.762 1.899l.79.514c-.705 1.216-2.316 2.43-4.281 2.59-2.388.196-4.304-1.164-5.182-2.584l.797-.52c.974 1.365 2.262 2.14 3.94 2.134 1.669-.006 2.963-.762 3.936-2.134zm-5.121-3.075h-.956c-.02-.326-.142-.596-.41-.785a.986.986 0 0 0-.683-.165c-.46.041-.787.403-.844.933-.095.029-.739.038-.944.013-.101-.435.244-1.182.73-1.534.687-.495 1.416-.54 2.157-.136.635.345.978 1.056.95 1.674zm2.357-.004c.023-.702.302-1.259.888-1.625.677-.423 1.383-.428 2.066-.018.604.363.888.928.92 1.65-.328.006-.643.005-.97 0-.02-.327-.14-.598-.408-.788a.99.99 0 0 0-.683-.165c-.459.04-.789.404-.844.932-.095.03-.692.041-.97.014z"/>
    </g>
</svg>
