<svg xmlns="http://www.w3.org/2000/svg" width="20" height="20" viewBox="0 0 20 20">
    <path fill="#00BCD4" fill-rule="evenodd" d="M8.317 13.853l1.106-1.06 1.026.996c.093.091.135.083.223-.003 2.684-2.618 5.371-5.234 8.057-7.85.03-.028.055-.059.082-.088.042-.009.065.021.09.044l1.043.941c.028.026.07.047.051.097-.544.52-1.09 1.04-1.633 1.563L10.67 15.91c-.029.028-.054.06-.08.089-.066.013-.09-.041-.124-.074l-2.149-2.071zM13.63 5c.042-.008.065.022.09.045l1.043.941c.028.026.07.046.051.097-.544.52-1.09 1.04-1.633 1.563l-7.692 7.416c-.029.028-.054.06-.08.089-.066.013-.09-.041-.124-.074-1.407-1.356-2.812-2.713-4.22-4.066-.081-.078-.088-.117-.003-.196.308-.286.61-.578.907-.875.082-.084.123-.075.202.002 1.031 1.002 2.067 1.998 3.097 3 .093.091.135.083.223-.003 2.684-2.618 5.371-5.234 8.058-7.85.028-.028.054-.059.08-.089z"/>
</svg>
