<svg xmlns="http://www.w3.org/2000/svg" width="120" height="120" viewBox="0 0 120 120">
    <path fill="#000" fill-rule="nonzero" d="M60 0c33.122.036 59.964 26.878 60 60 0 33.137-26.863 60-60 60S0 93.137 0 60 26.863 0 60 0zm0 113.514A53.356 53.356 0 0 0 113.514 60C113.505 30.458 89.552 6.514 60.01 6.517 30.468 6.52 6.52 30.467 6.517 60.01 6.514 89.552 30.457 113.505 60 113.514zm26.554-66.487a6.486 6.486 0 1 1-12.973 0 6.486 6.486 0 0 1 12.973 0zm-46.18 1.855a6.294 6.294 0 0 0-5.357 2.924l-5.488-3.42a13.014 13.014 0 0 1 21.684 0l-5.488 3.38a6.258 6.258 0 0 0-5.352-2.884zM60.11 93.497h-.02a37.718 37.718 0 0 1-29.686-14.57 12.613 12.613 0 0 1-5.873 1.455c-.938 0-1.873-.105-2.787-.314l1.434-6.284a6.42 6.42 0 0 0 7.571-7.602l6.33-1.434a12.669 12.669 0 0 1-1.83 9.811 30.81 30.81 0 0 0 50.645-1.657l5.448 3.522a37.667 37.667 0 0 1-27.03 16.834c-1.395.16-2.798.24-4.202.239z" opacity=".057"/>
</svg>
