<svg xmlns="http://www.w3.org/2000/svg" width="107" height="107" viewBox="0 0 107 107">
    <path fill="#FFF" fill-rule="nonzero" d="M53.5 0c29.533.031 53.466 23.962 53.5 53.495A53.5 53.5 0 1 1 53.5 0zm.004 101a47.51 47.51 0 0 0 40.169-22.163 47.517 47.517 0 0 0 2.701-45.8A47.776 47.776 0 0 0 85.73 18.622C68.77 2.938 42.982 1.735 24.635 15.773 6.288 29.812.705 55.018 11.407 75.493a47.912 47.912 0 0 0 8.615 11.67A47.372 47.372 0 0 0 53.504 101zM35.498 41.185h.01a5.532 5.532 0 0 0-4.049 1.675A5.792 5.792 0 0 0 29.821 47h-5.819c-.084-4.258 2.089-8.23 5.68-10.384a11.28 11.28 0 0 1 11.635 0c3.592 2.154 5.765 6.126 5.68 10.384h-5.813a5.787 5.787 0 0 0-1.637-4.141 5.527 5.527 0 0 0-4.05-1.674zm35.99 0h.024a5.527 5.527 0 0 0-4.05 1.674A5.787 5.787 0 0 0 65.827 47h-5.824c-.084-4.258 2.089-8.23 5.68-10.384a11.28 11.28 0 0 1 11.635 0c3.592 2.154 5.765 6.126 5.68 10.384h-5.823a5.787 5.787 0 0 0-1.637-4.141 5.527 5.527 0 0 0-4.049-1.674zM53.92 83c-1.26.001-2.52-.07-3.772-.212C40.27 81.618 31.43 76.23 26 68.073L30.866 65C35.936 72.69 44.648 77.337 54 77.337S72.065 72.69 77.134 65L82 68.073C75.808 77.36 65.252 82.972 53.92 83z" opacity=".1"/>
</svg>
