<svg xmlns="http://www.w3.org/2000/svg" width="75" height="75" viewBox="0 0 75 75">
    <path fill="#000" fill-rule="nonzero" d="M37.5 0C58.2.022 74.977 16.796 75 37.496A37.5 37.5 0 1 1 37.5 0zm.003 70.794a33.306 33.306 0 0 0 30.05-47.638 33.488 33.488 0 0 0-7.462-10.102C48.203 2.059 30.128 1.216 17.267 11.056 4.407 20.896.494 38.564 7.996 52.916a33.583 33.583 0 0 0 6.038 8.18 33.205 33.205 0 0 0 23.469 9.698zM24.882 28.868h.006a3.878 3.878 0 0 0-2.837 1.174 4.06 4.06 0 0 0-1.148 2.902h-4.079c-.06-2.985 1.464-5.769 3.982-7.279a7.907 7.907 0 0 1 8.155 0c2.518 1.51 4.04 4.294 3.981 7.279h-4.075a4.056 4.056 0 0 0-1.147-2.903 3.874 3.874 0 0 0-2.838-1.173zm25.227 0h.016a3.874 3.874 0 0 0-2.838 1.173 4.056 4.056 0 0 0-1.147 2.903h-4.082c-.06-2.985 1.463-5.769 3.981-7.279a7.907 7.907 0 0 1 8.155 0c2.518 1.51 4.041 4.294 3.982 7.279h-4.082a4.056 4.056 0 0 0-1.147-2.903 3.874 3.874 0 0 0-2.838-1.173zm-12.315 29.31c-.883 0-1.766-.05-2.644-.15-6.923-.82-13.12-4.596-16.926-10.313l3.411-2.154c3.553 5.39 9.66 8.647 16.215 8.647 6.556 0 12.663-3.257 16.216-8.647l3.41 2.154c-4.34 6.51-11.738 10.443-19.682 10.463z" opacity=".061"/>
</svg>
