<svg xmlns="http://www.w3.org/2000/svg" width="136" height="136" viewBox="0 0 136 136">
    <path fill="#FFF" fill-rule="nonzero" d="M68 0c37.538.041 67.959 30.462 68 68 0 37.555-30.445 68-68 68S0 105.555 0 68 30.445 0 68 0zm0 128.649A60.47 60.47 0 0 0 128.649 68c-.01-33.481-27.156-60.617-60.638-60.614C34.531 7.389 7.39 34.53 7.386 68.01 7.383 101.493 34.519 128.64 68 128.65zm30.095-75.352a7.351 7.351 0 1 1-14.703 0 7.351 7.351 0 0 1 14.703 0zM45.756 55.4a7.133 7.133 0 0 0-6.07 3.314l-6.22-3.877a14.749 14.749 0 0 1 24.575 0l-6.22 3.831a7.093 7.093 0 0 0-6.065-3.268zm22.37 50.564h-.023A42.747 42.747 0 0 1 34.46 89.45a14.295 14.295 0 0 1-6.656 1.648c-1.063.001-2.123-.118-3.159-.356l1.626-7.121a7.277 7.277 0 0 0 8.58-8.615l7.173-1.626c.86 3.834.11 7.853-2.073 11.12a34.919 34.919 0 0 0 57.398-1.879l6.174 3.992a42.69 42.69 0 0 1-30.635 19.079c-1.58.181-3.17.271-4.76.27z" opacity=".1"/>
</svg>
