<svg xmlns="http://www.w3.org/2000/svg" width="65" height="65" viewBox="0 0 65 65">
    <path fill="#FFF" fill-rule="nonzero" d="M32.5 0C50.441.02 64.98 14.559 65 32.5 65 50.45 50.45 65 32.5 65S0 50.45 0 32.5 14.55 0 32.5 0zm0 61.486A28.901 28.901 0 0 0 61.486 32.5c-.004-16.002-12.978-28.972-28.98-28.97C16.502 3.532 3.531 16.503 3.53 32.505 3.528 48.508 16.498 61.482 32.5 61.486zM52.703 32.5c0 11.158-9.045 20.203-20.203 20.203S12.297 43.658 12.297 32.5h3.514a16.69 16.69 0 1 0 33.375 0h3.517zm-27.524-7.247a3.514 3.514 0 1 1-7.027 0 3.514 3.514 0 0 1 7.027 0zm21.74 0a3.514 3.514 0 1 1-7.027 0 3.514 3.514 0 0 1 7.027 0z" opacity=".25"/>
</svg>
