<svg xmlns="http://www.w3.org/2000/svg" width="72" height="72" viewBox="0 0 72 72">
    <g fill="none" fill-rule="evenodd">
        <path fill="#AEE7ED" d="M36 72C16.117 72 0 55.883 0 36S16.117 0 36 0s36 16.117 36 36-16.117 36-36 36z"/>
        <path fill="#FFF" fill-opacity=".75" d="M50.29 27.79c0 7.89-6.395 14.286-14.286 14.286-7.89 0-14.286-6.396-14.286-14.286s6.396-14.288 14.286-14.288c7.891 0 14.286 6.398 14.286 14.288M36.654 51.408c-9.655 0-18.599 2.975-26.034 8.012 6.319 6.839 15.354 11.131 25.376 11.131 10.287 0 19.532-4.524 25.868-11.68-7.269-4.701-15.909-7.463-25.21-7.463"/>
    </g>
</svg>
