<svg xmlns="http://www.w3.org/2000/svg" width="24" height="24" viewBox="0 0 24 24">
    <path fill="#2CBA44" fill-rule="nonzero" d="M12 0C5.383 0 0 5.383 0 12s5.383 12 12 12 12-5.383 12-12S18.617 0 12 0zm0 2c5.535 0 10 4.465 10 10s-4.465 10-10 10S2 17.535 2 12 6.465 2 12 2zm4.188 4.063a.544.544 0 0 0-.375.25l-4.907 7.28-2.312-2.28c-.2-.301-.582-.325-.781-.126l-.907.907c-.199.3-.199.707 0 .906l3.5 3.5c.2.102.48.313.781.313.2 0 .52-.106.72-.407l6-8.812c.198-.301.085-.582-.313-.782l-1-.718c-.102-.051-.258-.055-.407-.032z"/>
</svg>
