<svg xmlns="http://www.w3.org/2000/svg" width="20" height="23" viewBox="0 0 20 23">
    <path fill="#FF9800" fill-rule="evenodd" d="M1.32 5.07h.989v1.375h.386c.287 0 .43.144.43.43 0 .286-.143.43-.43.43H.934a.35.35 0 0 1-.387-.065.468.468 0 0 1-.172-.365c0-.286.186-.43.559-.43h.386V5.07zm-.515 7.735c-.287 0-.43-.144-.43-.43 0-.286.186-.43.559-.43h.386V10.57h.989v1.375h.386c.287 0 .43.144.43.43 0 .401-.186.544-.559.43H.805zm0-2.75c-.287 0-.43-.144-.43-.43 0-.286.186-.43.559-.43h.386V7.82h.989v1.375h.386c.287 0 .43.144.43.43 0 .286-.186.43-.559.43H.805zm2.32 5.07c0 .401-.186.544-.559.43H.805c-.287 0-.43-.144-.43-.43 0-.286.186-.43.559-.43h.386V13.32h.989v1.375h.386c.287 0 .43.144.43.43zm13.75-.559c.773.287 1.425.781 1.955 1.483.53.702.795 1.454.795 2.256 0 1.06-.372 1.962-1.117 2.707-.745.745-1.662 1.117-2.75 1.117-.86 0-1.633-.272-2.32-.817a3.892 3.892 0 0 1-1.376-2.062H2.695c-.343 0-.659-.143-.945-.43-.286-.286-.43-.601-.43-.945v-1.633h.989v1.762c0 .286.128.43.386.43h9.239v-.13c0-1.03.38-1.933 1.138-2.706.76-.774 1.655-1.16 2.686-1.16h.172V1.504c0-.258-.144-.387-.43-.387H2.695c-.258 0-.386.13-.386.387v2.191h.386c.287 0 .43.144.43.43 0 .286-.143.43-.43.43H.934c-.373 0-.559-.144-.559-.43 0-.143.057-.243.172-.3.114-.058.243-.044.387.042h.386V1.504c0-.344.144-.659.43-.945.286-.287.602-.43.945-.43H15.5c.344 0 .659.143.945.43.287.286.43.601.43.945v13.062zm-1.805 6.875h1.375c.716-.2 1.31-.587 1.784-1.16a3.017 3.017 0 0 0 .709-1.976c0-.917-.301-1.676-.903-2.278-.601-.601-1.36-.902-2.277-.902-.888 0-1.633.308-2.235.924-.601.616-.902 1.368-.902 2.256 0 .83.222 1.532.666 2.105.444.573 1.039.917 1.783 1.031zm2.75-2.878h-1.633v1.632H15.5v-1.633h-1.633v-.687H15.5v-1.633h.688v1.633h1.632v.688zm-7.562-7.993c.114.287.444.537.988.752.544.215 1.06.48 1.547.795.487.315.745.774.773 1.375H4.93c.028-.601.279-1.06.752-1.375a8.7 8.7 0 0 1 1.482-.795c.516-.215.816-.465.902-.752v-.945c-.086 0-.272-.315-.558-.945-.258 0-.387-.23-.387-.688 0-.2.086-.387.258-.558-.487-2.12.114-3.18 1.805-3.18.458 0 .816.143 1.074.43.659.057 1.024.444 1.096 1.16.071.716-.008 1.246-.237 1.59l.13.386c-.115.459-.259.688-.43.688-.172.745-.359 1.117-.56 1.117v.945z"/>
</svg>
