<svg xmlns="http://www.w3.org/2000/svg" width="135" height="40" viewBox="0 0 135 40">
    <g fill="none" fill-rule="nonzero">
        <path fill="#A6A6A6" d="M130.206 40H4.736A4.732 4.732 0 0 1 0 35.265V4.735A4.732 4.732 0 0 1 4.735 0h125.47C132.825 0 135 2.118 135 4.735v30.53c0 2.617-2.206 4.735-4.794 4.735z"/>
        <path fill="#000" d="M134.03 35.265a3.816 3.816 0 0 1-3.824 3.823H4.736c-2.118 0-3.854-1.706-3.854-3.823V4.735C.882 2.618 2.588.912 4.735.912h125.47a3.816 3.816 0 0 1 3.824 3.823v30.53z"/>
        <g fill="#FFF">
            <path d="M30.118 19.794c-.03-3.235 2.647-4.794 2.764-4.853-1.5-2.206-3.853-2.5-4.676-2.53-1.97-.205-3.882 1.177-4.882 1.177-1.03 0-2.56-1.147-4.236-1.117-2.147.029-4.147 1.264-5.235 3.205-2.265 3.912-.588 9.677 1.588 12.853 1.088 1.56 2.353 3.295 4.03 3.236 1.617-.06 2.235-1.03 4.205-1.03 1.942 0 2.5 1.03 4.206 1 1.736-.03 2.853-1.559 3.883-3.117 1.264-1.794 1.764-3.53 1.764-3.618-.029-.088-3.382-1.353-3.411-5.206zM26.941 10.294c.883-1.088 1.47-2.588 1.294-4.088-1.264.059-2.853.882-3.764 1.941-.795.941-1.53 2.5-1.353 3.941 1.44.118 2.911-.706 3.823-1.794z"/>
        </g>
        <g fill="#FFF">
            <path d="M53.647 31.5h-2.265l-1.235-3.912h-4.323L44.647 31.5h-2.206l4.294-13.294h2.647L53.647 31.5zm-3.882-5.559l-1.118-3.47c-.118-.353-.353-1.177-.676-2.5h-.03c-.117.558-.353 1.411-.617 2.5l-1.118 3.47h3.559zM64.676 26.588c0 1.618-.44 2.912-1.323 3.883-.794.853-1.765 1.264-2.941 1.264-1.265 0-2.177-.44-2.736-1.353h-.029v5.06H55.53V25.087c0-1.03-.029-2.088-.088-3.147h1.883l.117 1.53h.03c.705-1.147 1.794-1.706 3.235-1.706 1.118 0 2.088.44 2.823 1.353.765.823 1.147 2 1.147 3.47zm-2.176.088c0-.94-.206-1.705-.618-2.323-.47-.618-1.088-.941-1.853-.941-.529 0-1 .176-1.44.53-.442.352-.707.793-.854 1.382-.059.264-.088.47-.088.647v1.588c0 .706.206 1.294.647 1.765.441.47.97.735 1.677.735.794 0 1.44-.324 1.882-.941.412-.618.647-1.442.647-2.442zM75.706 26.588c0 1.618-.441 2.912-1.324 3.883-.794.853-1.764 1.264-2.94 1.264-1.266 0-2.177-.44-2.736-1.353h-.03v5.06H66.56V25.087c0-1.03-.03-2.088-.088-3.147h1.882l.118 1.53h.029c.706-1.147 1.794-1.706 3.235-1.706 1.118 0 2.089.44 2.824 1.353.765.823 1.147 2 1.147 3.47zm-2.177.088c0-.94-.205-1.705-.647-2.323-.47-.618-1.088-.941-1.853-.941-.529 0-1 .176-1.44.53-.442.352-.707.793-.824 1.382-.06.264-.089.47-.089.647v1.588c0 .706.206 1.294.648 1.765.44.47.97.735 1.676.735.794 0 1.441-.324 1.882-.941.412-.618.647-1.442.647-2.442zM88.03 27.765c0 1.117-.383 2.059-1.177 2.764-.853.765-2.088 1.177-3.618 1.177-1.44 0-2.588-.265-3.44-.824l.5-1.764c.94.558 1.97.853 3.087.853.794 0 1.442-.177 1.883-.53.44-.353.676-.853.676-1.441 0-.53-.176-1-.559-1.353-.353-.382-.97-.706-1.823-1.03-2.324-.882-3.5-2.146-3.5-3.823 0-1.088.412-2 1.235-2.676.824-.706 1.912-1.06 3.265-1.06 1.206 0 2.206.207 3.03.618l-.53 1.736c-.765-.412-1.588-.618-2.559-.618-.765 0-1.324.177-1.765.559-.353.323-.53.735-.53 1.206 0 .53.207.97.619 1.294.352.323 1 .647 1.94 1.03 1.148.47 2 1 2.53 1.617.47.588.735 1.353.735 2.265zM95.088 23.5h-2.353v4.647c0 1.177.412 1.765 1.236 1.765.382 0 .705-.03.94-.088l.06 1.617c-.412.147-.971.235-1.647.235-.853 0-1.5-.264-1.971-.764-.47-.5-.706-1.383-.706-2.588V23.5h-1.412v-1.588h1.412v-1.765l2.088-.618v2.383h2.353V23.5zM105.676 26.618c0 1.47-.411 2.676-1.264 3.647-.883.97-2.06 1.47-3.53 1.47-1.411 0-2.53-.47-3.353-1.411-.823-.942-1.264-2.118-1.264-3.53 0-1.5.44-2.706 1.294-3.647.853-.941 2.03-1.412 3.47-1.412 1.412 0 2.53.47 3.383 1.412.882.882 1.264 2.059 1.264 3.47zm-2.205.088c0-.882-.177-1.647-.56-2.265-.44-.765-1.087-1.147-1.911-1.147-.853 0-1.5.382-1.941 1.147-.383.647-.559 1.412-.559 2.324 0 .882.176 1.647.559 2.264.47.765 1.117 1.147 1.941 1.147.824 0 1.441-.382 1.912-1.176.382-.647.559-1.412.559-2.294zM112.618 23.794a4.827 4.827 0 0 0-.677-.059c-.735 0-1.323.294-1.735.853-.353.5-.53 1.118-.53 1.883V31.5h-2.117l.03-6.588c0-1.118-.03-2.118-.089-3.03h1.853l.088 1.824h.059c.235-.618.588-1.147 1.059-1.53.47-.352 1-.5 1.53-.5.205 0 .382 0 .529.03v2.088zM122.147 26.265c0 .382-.03.706-.088.97h-6.383c.03.941.324 1.677.942 2.177.53.44 1.235.676 2.088.676.941 0 1.823-.147 2.588-.44l.324 1.47c-.912.382-1.97.588-3.206.588-1.5 0-2.647-.441-3.5-1.324-.853-.882-1.265-2.058-1.265-3.53 0-1.44.382-2.646 1.177-3.617.823-1.03 1.94-1.53 3.352-1.53 1.383 0 2.442.5 3.148 1.53.558.824.823 1.824.823 3.03zm-2.03-.56c0-.617-.117-1.176-.411-1.646-.382-.588-.941-.883-1.706-.883-.706 0-1.265.295-1.706.883-.353.47-.559 1-.618 1.647h4.442z"/>
        </g>
        <g fill="#FFF">
            <path d="M49.059 10c0 1.176-.353 2.059-1.059 2.647-.647.559-1.588.824-2.794.824-.588 0-1.118-.03-1.53-.089v-6.44a11.357 11.357 0 0 1 1.795-.148c1.147 0 2 .235 2.588.735.676.618 1 1.442 1 2.471zm-1.118.03c0-.765-.206-1.354-.617-1.765-.412-.412-1-.618-1.765-.618-.324 0-.618.03-.853.059v4.882c.118.03.353.03.706.03.794 0 1.412-.236 1.853-.677.44-.441.676-1.059.676-1.912zM54.912 11.03c0 .735-.206 1.323-.618 1.794-.441.47-1 .705-1.735.705-.706 0-1.235-.235-1.647-.676-.412-.47-.618-1.03-.618-1.735 0-.736.206-1.324.647-1.794.412-.471 1-.706 1.706-.706s1.235.235 1.677.676c.382.47.588 1.03.588 1.735zm-1.088.029c0-.441-.089-.794-.295-1.118-.205-.382-.529-.559-.94-.559-.413 0-.736.177-.971.56a2.283 2.283 0 0 0-.294 1.146c0 .441.088.794.294 1.118.235.382.53.559.94.559.413 0 .707-.177.942-.589.235-.294.324-.676.324-1.117zM62.765 8.706l-1.47 4.706h-.971l-.618-2.06c-.147-.5-.294-1.028-.382-1.528h-.03a8.95 8.95 0 0 1-.382 1.529l-.647 2.059h-.97l-1.383-4.706H57l.53 2.235c.117.53.235 1.03.323 1.5h.03c.088-.382.205-.882.382-1.5l.676-2.265h.853l.647 2.206c.147.53.294 1.06.383 1.56h.029c.059-.471.176-1 .323-1.56l.56-2.206 1.029.03zM68.206 13.441h-1.059v-2.706c0-.823-.323-1.235-.941-1.235a.949.949 0 0 0-.765.353 1.16 1.16 0 0 0-.294.794v2.794h-1.059v-3.353c0-.412 0-.853-.03-1.353h.913l.058.736h.03a1.38 1.38 0 0 1 .53-.56 1.75 1.75 0 0 1 .94-.264c.442 0 .795.147 1.089.441.353.353.53.883.53 1.56v2.793h.058zM71.088 13.441H70.03V6.56h1.06zM77.265 11.03c0 .735-.206 1.323-.618 1.794-.441.47-1 .705-1.735.705-.706 0-1.236-.235-1.647-.676-.412-.47-.618-1.03-.618-1.735 0-.736.206-1.324.647-1.794.412-.471 1-.706 1.706-.706s1.235.235 1.676.676c.383.47.589 1.03.589 1.735zm-1.089.029c0-.441-.088-.794-.294-1.118-.206-.382-.53-.559-.94-.559-.413 0-.736.177-.971.56a2.283 2.283 0 0 0-.295 1.146c0 .441.089.794.295 1.118.235.382.529.559.94.559.413 0 .707-.177.942-.589.235-.294.323-.676.323-1.117zM82.324 13.441h-.942l-.088-.53h-.03c-.323.442-.793.648-1.382.648-.44 0-.794-.147-1.088-.441a1.433 1.433 0 0 1-.382-.97c0-.59.235-1.03.735-1.324.47-.295 1.147-.442 2.03-.442v-.088c0-.618-.324-.941-.971-.941-.47 0-.882.118-1.235.353l-.206-.677c.44-.264.97-.411 1.617-.411 1.236 0 1.853.647 1.853 1.94v1.736c.03.5.06.853.089 1.147zm-1.089-1.617v-.736c-1.147-.03-1.735.294-1.735.941 0 .236.059.442.206.56a.742.742 0 0 0 .5.176c.235 0 .441-.06.647-.206.206-.147.323-.324.353-.559.03-.059.03-.118.03-.176zM88.294 13.441h-.941l-.059-.765h-.03c-.293.589-.793.853-1.5.853-.558 0-1.029-.235-1.411-.676-.382-.441-.559-1.03-.559-1.735 0-.765.206-1.383.618-1.853a1.841 1.841 0 0 1 1.44-.647c.648 0 1.09.206 1.324.647h.03V6.559h1.059v5.617c-.03.442 0 .883.03 1.265zm-1.088-2v-.794c0-.147 0-.235-.03-.323a1.13 1.13 0 0 0-.382-.648 1.054 1.054 0 0 0-.706-.264c-.382 0-.706.147-.912.47-.235.324-.323.706-.323 1.206 0 .47.118.853.323 1.147.236.324.53.47.912.47.353 0 .618-.117.824-.381.176-.265.294-.53.294-.883zM97.235 11.03c0 .735-.206 1.323-.617 1.794-.442.47-1 .705-1.736.705-.676 0-1.235-.235-1.647-.676-.411-.47-.617-1.03-.617-1.735 0-.736.206-1.324.647-1.794.411-.471 1-.706 1.706-.706.676 0 1.235.235 1.676.676.412.47.588 1.03.588 1.735zm-1.059.029c0-.441-.088-.794-.294-1.118-.235-.382-.53-.559-.94-.559-.413 0-.736.177-.971.56a2.283 2.283 0 0 0-.295 1.146c0 .441.089.794.295 1.118.235.382.529.559.94.559.413 0 .707-.177.942-.589.206-.294.323-.676.323-1.117zM102.882 13.441h-1.058v-2.706c0-.823-.324-1.235-.942-1.235a.949.949 0 0 0-.764.353 1.16 1.16 0 0 0-.294.794v2.794h-1.06v-3.353c0-.412 0-.853-.029-1.353h.912l.059.736h.03a1.38 1.38 0 0 1 .529-.56 1.75 1.75 0 0 1 .94-.264c.442 0 .795.147 1.09.441.352.353.529.883.529 1.56v2.793h.058zM109.941 9.5h-1.147v2.294c0 .588.206.882.618.882.176 0 .353-.029.47-.058l.03.794c-.206.088-.47.117-.824.117-.412 0-.735-.117-.97-.382-.236-.265-.353-.676-.353-1.265V9.5h-.706v-.794h.676v-.853l1.03-.324v1.177h1.147l.03.794zM115.47 13.441h-1.058v-2.676c0-.853-.324-1.265-.941-1.265-.5 0-.824.235-1 .735-.03.118-.06.236-.06.383v2.823h-1.058V6.56h1.059v2.853h.03c.323-.53.793-.765 1.41-.765.442 0 .795.147 1.09.441.352.353.529.883.529 1.588v2.765zM121.206 10.853c0 .176 0 .353-.03.47h-3.147c0 .471.177.824.442 1.06.264.205.617.323 1.029.323.47 0 .882-.088 1.265-.235l.176.735c-.441.206-.97.294-1.588.294-.735 0-1.294-.206-1.735-.647-.412-.441-.618-1-.618-1.735 0-.706.206-1.294.588-1.765.412-.5.941-.765 1.647-.765.677 0 1.206.265 1.53.765.294.412.44.912.44 1.5zm-1-.265c0-.323-.059-.588-.206-.794-.176-.294-.47-.441-.824-.441-.352 0-.617.147-.823.441-.177.235-.265.5-.324.824 0-.03 2.177-.03 2.177-.03z"/>
        </g>
    </g>
</svg>
