<svg xmlns="http://www.w3.org/2000/svg" width="16" height="14" viewBox="0 0 16 14">
    <g fill="none" fill-rule="evenodd">
        <path fill="#FDB828" fill-rule="nonzero" d="M14.96 11.708L9.267 1.796C8.569.585 7.43.585 6.734 1.796L1.04 11.708c-.697 1.212-.126 2.201 1.266 2.201h11.39c1.392 0 1.96-.99 1.266-2.201zm-7.743-7.1c.206-.221.464-.333.783-.333s.577.11.783.33c.202.217.306.493.306.824 0 .283-.425 2.373-.567 3.891H7.498c-.124-1.518-.587-3.608-.587-3.89 0-.327.104-.6.306-.821zm1.55 7.227A1.066 1.066 0 0 1 8 12.15c-.296 0-.553-.106-.768-.315a1.03 1.03 0 0 1-.32-.765c0-.298.106-.556.32-.772.215-.215.472-.322.768-.322.296 0 .553.107.768.322.214.216.32.474.32.772 0 .3-.106.554-.32.765z"/>
        <path d="M-1 0h18v18H-1z"/>
    </g>
</svg>
