<svg xmlns="http://www.w3.org/2000/svg" width="23" height="32" viewBox="0 0 23 32">
    <g fill="none" fill-rule="evenodd">
        <path stroke="#00BCD4" stroke-width="2" d="M11.5 29.889c6.667-8.91 10-15.207 10-18.889 0-5.523-4.477-10-10-10s-10 4.477-10 10c0 3.682 3.333 9.978 10 18.889z"/>
        <path fill="#00BCD4" fill-rule="nonzero" d="M11.5 11.435a1.96 1.96 0 0 0 1.969-1.957A1.96 1.96 0 0 0 11.5 7.522c-1.09 0-1.969.887-1.969 1.956a1.96 1.96 0 0 0 1.969 1.957zM11.5 12.74c-1.313 0-3.938.651-3.938 1.956v.156a5.22 5.22 0 0 0 3.938 1.8 5.22 5.22 0 0 0 3.938-1.8v-.156c0-1.305-2.626-1.957-3.938-1.957z"/>
    </g>
</svg>
