<svg xmlns="http://www.w3.org/2000/svg" width="25" height="24" viewBox="0 0 25 24">
    <path fill="#00BCD4" fill-rule="nonzero" d="M12.49 0a.552.552 0 0 0-.243.06L.834 5.928a.532.532 0 0 0-.29.473V8c0 .295.243.533.543.533h.543v.747c0 .647.47 1.197 1.087 1.345v9.648H1.141l.09.007C.561 20.17 0 20.733 0 21.35v1.466C0 23.446.508 24 1.141 24h22.664c.633 0 1.14-.513 1.14-1.13v-1.466a1.14 1.14 0 0 0-1.14-1.131h-1.522v-9.648c.617-.148 1.087-.698 1.087-1.345v-.747h.543c.3 0 .543-.238.544-.533V6.4a.532.532 0 0 0-.291-.473L12.753.061A.552.552 0 0 0 12.49 0zm.01 1.137l10.87 5.586v.744h-.453a.554.554 0 0 0-.177 0h-5.265a.554.554 0 0 0-.17 0h-1.996a.554.554 0 0 0-.178 0H9.866a.554.554 0 0 0-.17 0H7.7a.554.554 0 0 0-.177 0H2.258a.554.554 0 0 0-.171 0H1.63v-.744L12.5 1.137zM2.717 8.533h4.348v.747c0 .204-.118.32-.326.32H3.043c-.207 0-.326-.116-.326-.32v-.747zm5.435 0H9.24v.747c0 .647.47 1.197 1.087 1.345v9.648h-3.26v-9.648c.616-.148 1.086-.698 1.086-1.345v-.747zm2.174 0h4.348v.747c0 .204-.119.32-.326.32h-3.696c-.207 0-.326-.116-.326-.32v-.747zm5.435 0h1.087v.747c0 .647.47 1.197 1.087 1.345v9.648h-3.261v-9.648c.617-.148 1.087-.698 1.087-1.345v-.747zm2.174 0h4.348v.747c0 .204-.119.32-.326.32H18.26c-.208 0-.326-.116-.326-.32v-.747zm-14.13 2.134h2.173v9.6H3.804v-9.6zm7.608 0h2.174v9.6h-2.174v-9.6zm7.609 0h2.174v9.6h-2.174v-9.6zM1.078 21.336l.063.004h22.664c.018 0 .054.03.054.064v1.466c0 .035-.036.063-.054.063H1.14c-.019 0-.054.013-.054-.117V21.35c0-.012-.005-.012-.009-.014z"/>
</svg>
