<svg xmlns="http://www.w3.org/2000/svg" width="26" height="26" viewBox="0 0 26 26">
    <g fill="none" fill-rule="evenodd" transform="translate(1 1)">
        <circle cx="12" cy="12" r="12" stroke="#FF9800"/>
        <path fill="#FF9800" d="M13 11.5c.545 0 1.014-.197 1.409-.591.394-.395.591-.864.591-1.409 0-.56-.197-1.032-.591-1.42A1.941 1.941 0 0 0 13 7.5a1.93 1.93 0 0 0-1.42.58A1.93 1.93 0 0 0 11 9.5c0 .545.194 1.014.58 1.409.388.394.86.591 1.42.591zm-5.005-.516H9.5v1.01H7.995V13.5h-.99v-1.505H5.5v-1.011h1.505V9.5h.99v1.484zM13 13a8.76 8.76 0 0 1 1.827.216c.669.144 1.282.374 1.838.69.557.317.835.684.835 1.101V16h-9v-.993c0-.417.278-.784.835-1.1a6.423 6.423 0 0 1 1.838-.691A8.76 8.76 0 0 1 13 13z"/>
    </g>
</svg>
