<svg xmlns="http://www.w3.org/2000/svg" width="44" height="44" viewBox="0 0 44 44">
    <g fill="none" fill-rule="nonzero">
        <path fill="#4CAF50" d="M44 22c0 12.148-9.852 22-22 22S0 34.148 0 22 9.852 0 22 0s22 9.852 22 22z"/>
        <path fill="#FFC107" d="M22 0v22l8.8 4.4L21.073 44H22c12.158 0 22-9.842 22-22S34.158 0 22 0z"/>
        <path fill="#4CAF50" d="M44 22c0 12.148-9.852 22-22 22S0 34.148 0 22 9.852 0 22 0s22 9.852 22 22z"/>
        <path fill="#FFC107" d="M22 0v22l8.8 4.4L21.073 44H22c12.158 0 22-9.842 22-22S34.158 0 22 0z"/>
        <path fill="#F44336" d="M41.624 12.1H22v14.3l-3.3-1.1L3.476 10.186h-.022C7.348 4.059 14.201 0 22 0c8.58 0 16.005 4.928 19.624 12.1z"/>
        <path fill="#DD2C00" d="M3.474 10.19L13.2 26.54 18.7 25.3z"/>
        <path fill="#558B2F" d="M21.073 44L30.9 26.335 26.4 23.1z"/>
        <path fill="#F9A825" d="M41.651 12.1H22l-1.737 5.038z"/>
        <path fill="#FFF" d="M31.9 22c0 5.466-4.434 9.9-9.9 9.9s-9.9-4.434-9.9-9.9 4.434-9.9 9.9-9.9 9.9 4.434 9.9 9.9z"/>
        <path fill="#2196F3" d="M29.7 22c0 4.254-3.446 7.7-7.7 7.7a7.699 7.699 0 0 1-7.7-7.7c0-4.254 3.446-7.7 7.7-7.7s7.7 3.446 7.7 7.7z"/>
    </g>
</svg>
