<svg xmlns="http://www.w3.org/2000/svg" width="60" height="60" viewBox="0 0 60 60">
    <g fill="none" fill-rule="nonzero">
        <path fill="#4CAF50" d="M60 30c0 16.566-13.434 30-30 30C13.434 60 0 46.566 0 30 0 13.434 13.434 0 30 0c16.566 0 30 13.434 30 30z"/>
        <path fill="#FFC107" d="M30 0v30l12 6-13.265 24H30c16.58 0 30-13.42 30-30S46.58 0 30 0z"/>
        <path fill="#4CAF50" d="M60 30c0 16.566-13.434 30-30 30C13.434 60 0 46.566 0 30 0 13.434 13.434 0 30 0c16.566 0 30 13.434 30 30z"/>
        <path fill="#FFC107" d="M30 0v30l12 6-13.265 24H30c16.58 0 30-13.42 30-30S46.58 0 30 0z"/>
        <path fill="#F44336" d="M56.76 16.5H30V36l-4.5-1.5L4.74 13.89h-.03C10.02 5.535 19.365 0 30 0c11.7 0 21.825 6.72 26.76 16.5z"/>
        <path fill="#DD2C00" d="M4.737 13.896l13.264 22.293L25.5 34.5z"/>
        <path fill="#558B2F" d="M28.735 60l13.401-24.089L36 31.5z"/>
        <path fill="#F9A825" d="M56.797 16.5H30l-2.369 6.87z"/>
        <path fill="#FFF" d="M43.5 30c0 7.453-6.047 13.5-13.5 13.5S16.5 37.453 16.5 30 22.547 16.5 30 16.5 43.5 22.547 43.5 30z"/>
        <path fill="#2196F3" d="M40.5 30c0 5.8-4.7 10.5-10.5 10.5S19.5 35.8 19.5 30 24.2 19.5 30 19.5 40.5 24.2 40.5 30z"/>
    </g>
</svg>
