<svg xmlns="http://www.w3.org/2000/svg" width="135" height="41" viewBox="0 0 135 41">
    <defs>
        <linearGradient id="a" x1="80.677%" x2="-157.518%" y1="50.2%" y2="50.2%">
            <stop offset="0%" stop-color="#FFE000"/>
            <stop offset="19.41%" stop-color="#FED000"/>
            <stop offset="54.69%" stop-color="#F9B400"/>
            <stop offset="82.79%" stop-color="#F6A200"/>
            <stop offset="100%" stop-color="#F59B00"/>
        </linearGradient>
        <linearGradient id="b" x1="86.314%" x2="-49.85%" y1="17.671%" y2="195.482%">
            <stop offset="0%" stop-color="#E7383D"/>
            <stop offset="100%" stop-color="#C81166"/>
        </linearGradient>
        <linearGradient id="c" x1="-50.457%" x2="60.718%" y1="-95.436%" y2="48.167%">
            <stop offset="0%" stop-color="#296"/>
            <stop offset="31.68%" stop-color="#4EA663"/>
            <stop offset="73.98%" stop-color="#70B65D"/>
            <stop offset="100%" stop-color="#7CBC5B"/>
        </linearGradient>
    </defs>
    <g fill="none" fill-rule="nonzero">
        <path fill="#12100B" d="M130 40.2H5c-2.8 0-5-2.2-5-5v-30c0-2.8 2.2-5 5-5h125c2.8 0 5 2.2 5 5v30c0 2.7-2.2 5-5 5z"/>
        <path fill="#B0ADAB" d="M130 1c2.3 0 4.2 1.9 4.2 4.2v30c0 2.3-1.9 4.2-4.2 4.2H5c-2.3 0-4.2-1.9-4.2-4.2v-30C.8 2.9 2.7 1 5 1h125zm0-.8H5c-2.8 0-5 2.2-5 5v30c0 2.8 2.2 5 5 5h125c2.8 0 5-2.2 5-5v-30c0-2.8-2.2-5-5-5z"/>
        <g fill="#FFF" stroke="#FFF" stroke-width=".2">
            <path d="M47.4 10.4c0 .8-.2 1.5-.7 2-.6.6-1.3.9-2.2.9-.9 0-1.6-.3-2.2-.9-.6-.6-.9-1.3-.9-2.2 0-.9.3-1.6.9-2.2.6-.7 1.3-1 2.2-1 .4 0 .8.1 1.2.3.4.2.7.4.9.7l-.5.5c-.4-.5-.9-.7-1.6-.7-.6 0-1.2.2-1.6.7-.5.4-.7 1-.7 1.7s.2 1.3.7 1.7c.5.4 1 .7 1.6.7.7 0 1.2-.2 1.7-.7.3-.3.5-.7.5-1.2h-2.2V10h2.9v.4zM52 7.9h-2.7v1.9h2.5v.7h-2.5v1.9H52v.7h-3.5v-6H52zM55.3 13.2h-.8V7.9h-1.7v-.7H57v.7h-1.7zM59.9 13.2v-6h.8v6zM64.1 13.2h-.8V7.9h-1.7v-.7h4.1v.7H64v5.3zM73.6 12.4c-.6.6-1.3.9-2.2.9-.9 0-1.6-.3-2.2-.9-.6-.6-.9-1.3-.9-2.2 0-.9.3-1.6.9-2.2.6-.7 1.3-1 2.2-1 .9 0 1.6.3 2.2.9.6.6.9 1.3.9 2.2 0 .9-.3 1.7-.9 2.3zm-3.8-.5c.4.4 1 .7 1.6.7.6 0 1.2-.2 1.6-.7.4-.4.7-1 .7-1.7s-.2-1.3-.7-1.7c-.4-.4-1-.7-1.6-.7-.6 0-1.2.2-1.6.7-.4.4-.7 1-.7 1.7s.2 1.2.7 1.7zM75.6 13.2v-6h.9l2.9 4.7V7.2h.8v6h-.8l-3.1-4.9v4.9z"/>
        </g>
        <path fill="#FFF" d="M68.1 21.9c-2.4 0-4.3 1.8-4.3 4.3 0 2.4 1.9 4.3 4.3 4.3s4.3-1.8 4.3-4.3-1.9-4.3-4.3-4.3zm0 6.8c-1.3 0-2.4-1.1-2.4-2.6s1.1-2.6 2.4-2.6c1.3 0 2.4 1 2.4 2.6s-1.1 2.6-2.4 2.6zm-9.3-6.8c-2.4 0-4.3 1.8-4.3 4.3 0 2.4 1.9 4.3 4.3 4.3s4.3-1.8 4.3-4.3-1.9-4.3-4.3-4.3zm0 6.8c-1.3 0-2.4-1.1-2.4-2.6s1.1-2.6 2.4-2.6c1.3 0 2.4 1 2.4 2.6s-1.1 2.6-2.4 2.6zm-11.1-5.5V25H52c-.1 1-.5 1.8-1 2.3-.6.6-1.6 1.3-3.3 1.3-2.7 0-4.7-2.1-4.7-4.8 0-2.7 2.1-4.8 4.7-4.8 1.4 0 2.5.6 3.3 1.3l1.3-1.3c-1.1-1-2.5-1.8-4.5-1.8-3.6 0-6.7 3-6.7 6.6 0 3.6 3.1 6.6 6.7 6.6 2 0 3.4-.6 4.6-1.9 1.2-1.2 1.6-2.9 1.6-4.2 0-.4 0-.8-.1-1.1h-6.2zm45.4 1.4c-.4-1-1.4-2.7-3.6-2.7s-4 1.7-4 4.3c0 2.4 1.8 4.3 4.2 4.3 1.9 0 3.1-1.2 3.5-1.9l-1.4-1c-.5.7-1.1 1.2-2.1 1.2s-1.6-.4-2.1-1.3l5.7-2.4-.2-.5zM87.3 26c0-1.6 1.3-2.5 2.2-2.5.7 0 1.4.4 1.6.9L87.3 26zm-4.7 4.2h1.9V17.7h-1.9v12.5zm-3-7.3c-.5-.5-1.3-1-2.3-1-2.1 0-4.1 1.9-4.1 4.3s1.9 4.2 4.1 4.2c1 0 1.8-.5 2.2-1h.1v.6c0 1.6-.9 2.5-2.3 2.5-1.1 0-1.9-.8-2.1-1.5l-1.6.7c.5 1.1 1.7 2.5 3.8 2.5 2.2 0 4-1.3 4-4.4v-7.6h-1.8v.7zm-2.2 5.8c-1.3 0-2.4-1.1-2.4-2.6s1.1-2.6 2.4-2.6c1.3 0 2.3 1.1 2.3 2.6 0 1.6-1 2.6-2.3 2.6zm24.4-11h-4.5v12.5h1.9v-4.7h2.6c2.1 0 4.1-1.5 4.1-3.9s-2-3.9-4.1-3.9zm.1 6h-2.7v-4.3h2.7c1.4 0 2.2 1.2 2.2 2.1-.1 1-.9 2.2-2.2 2.2zm11.5-1.8c-1.4 0-2.8.6-3.3 1.9l1.7.7c.4-.7 1-.9 1.7-.9 1 0 1.9.6 2 1.6v.1c-.3-.2-1.1-.5-1.9-.5-1.8 0-3.6 1-3.6 2.8 0 1.7 1.5 2.8 3.1 2.8 1.3 0 1.9-.6 2.4-1.2h.1v1h1.8v-4.8c-.2-2.3-1.9-3.5-4-3.5zm-.2 6.8c-.6 0-1.5-.3-1.5-1.1 0-1 1.1-1.3 2-1.3.8 0 1.2.2 1.7.4-.2 1.2-1.2 2-2.2 2zm10.5-6.5l-2.1 5.4h-.1l-2.2-5.4h-2l3.3 7.6-1.9 4.2h1.9l5.1-11.8h-2zm-16.8 8h1.9V17.7h-1.9v12.5z"/>
        <path fill="#70C9F3" d="M10.4 7.7c-.3.3-.4.8-.4 1.4v22.1c0 .6.2 1.1.5 1.4l.1.1L23 20.3V20L10.4 7.7z"/>
        <path fill="url(#a)" d="M17 17.4l-4.1-4.1V13L17 8.9l.1.1 4.9 2.8c1.4.8 1.4 2.1 0 2.9l-5 2.7z" transform="translate(10 7)"/>
        <path fill="url(#b)" d="M17.1 17.4l-4.2-4.2L.4 25.6c.5.5 1.2.5 2.1.1l14.6-8.3" transform="translate(10 7)"/>
        <path fill="url(#c)" d="M17.1 8.9L2.5.7C1.6.2.9.3.4.8l12.5 12.5 4.2-4.4z" transform="translate(10 7)"/>
    </g>
</svg>
