<svg xmlns="http://www.w3.org/2000/svg" xmlns:xlink="http://www.w3.org/1999/xlink" width="33" height="32" viewBox="0 0 33 32">
    <defs>
        <ellipse id="a" cx="15.993" cy="16" rx="15.993" ry="16"/>
    </defs>
    <g fill="none" fill-rule="evenodd">
        <g transform="translate(.76)">
            <use fill="#FFF" xlink:href="#a"/>
            <ellipse cx="15.993" cy="16" stroke="#000" stroke-opacity=".12" stroke-width=".5" rx="15.743" ry="15.75"/>
        </g>
        <path fill="#F4511E" d="M24.298 15.523v-2.046h-1.397v2.046h-1.978v1.432h1.978v2.08h1.397v-2.08h1.91v-1.432h-1.91zm-9.988 2.182h3c-.25.795-.602 1.375-1.057 1.738-.455.364-1.102.546-1.943.546-.91 0-1.676-.336-2.301-1.006-.625-.67-.938-1.483-.938-2.438 0-.954.313-1.767.938-2.437.625-.67 1.392-1.006 2.3-1.006.796 0 1.512.284 2.149.853.659-.773 1.181-1.341 1.568-1.705-1.068-1.023-2.307-1.534-3.716-1.534-1.523 0-2.83.568-3.92 1.704-1.092 1.137-1.637 2.512-1.637 4.125 0 1.614.545 2.99 1.636 4.125 1.091 1.137 2.398 1.705 3.92 1.705 1.092 0 2.03-.227 2.813-.682.784-.454 1.358-1.045 1.722-1.773a7.79 7.79 0 0 0 .733-2.25 8.12 8.12 0 0 0 .051-2.284H14.31v2.319z"/>
    </g>
</svg>
