<svg xmlns="http://www.w3.org/2000/svg" width="28" height="27" viewBox="0 0 28 27">
    <path fill="#FFF" fill-rule="nonzero" d="M13.978 0a.58.58 0 0 0-.337.123L.225 10.667a.59.59 0 0 0-.102.825.58.58 0 0 0 .82.102l.807-.635v15.446c0 .324.261.587.584.587h8.068a.58.58 0 0 0 .19 0h6.81a.58.58 0 0 0 .19 0h8.074a.585.585 0 0 0 .584-.587V10.959l.807.635a.58.58 0 0 0 .937-.382.59.59 0 0 0-.219-.545l-4.442-3.49V2.905h-3.5v1.519L14.36.123a.58.58 0 0 0-.38-.123zM14 1.333l11.083 8.71v15.774h-7V14.655H9.917v11.162h-7V10.043L14 1.333zm7 2.748h1.166V6.26L21 5.342V4.08zm-9.917 11.75h5.834v9.986h-5.834V15.83z"/>
</svg>
