<svg xmlns="http://www.w3.org/2000/svg" width="20" height="20" viewBox="0 0 20 20">
    <path fill="#000" fill-opacity=".54" fill-rule="nonzero" d="M10 0C4.478 0 0 4.478 0 10s4.478 10 10 10 10-4.478 10-10S15.522 0 10 0zm2.083 15.5c-.516.201-.926.356-1.233.462a3.271 3.271 0 0 1-1.068.159c-.622 0-1.108-.152-1.455-.456a1.47 1.47 0 0 1-.516-1.158c0-.182.013-.367.04-.555.023-.192.066-.404.122-.645l.645-2.275c.056-.219.106-.424.145-.619.04-.195.056-.373.056-.535 0-.288-.06-.493-.178-.606-.122-.115-.35-.171-.688-.171-.165 0-.337.026-.513.076a7.994 7.994 0 0 0-.45.148l.173-.7c.42-.173.823-.318 1.21-.44.384-.123.75-.186 1.091-.186.619 0 1.098.152 1.432.45.334.298.503.688.503 1.164 0 .1-.01.275-.033.523a3.577 3.577 0 0 1-.13.687l-.64 2.269c-.054.182-.1.39-.143.622-.04.231-.06.41-.06.529 0 .3.067.509.202.618.133.11.367.162.701.162.156 0 .331-.026.53-.08.195-.055.337-.102.426-.145l-.169.701zm-.115-9.21a1.525 1.525 0 0 1-1.078.416c-.42 0-.784-.139-1.085-.416-.301-.278-.45-.615-.45-1.009 0-.393.152-.734.45-1.015.3-.281.665-.42 1.085-.42.42 0 .78.139 1.078.42.3.281.45.622.45 1.015 0 .394-.15.73-.45 1.009z"/>
</svg>
