<svg xmlns="http://www.w3.org/2000/svg" xmlns:xlink="http://www.w3.org/1999/xlink" width="33" height="32" viewBox="0 0 33 32">
    <defs>
        <ellipse id="a" cx="15.993" cy="16" rx="15.993" ry="16"/>
    </defs>
    <g fill="none" fill-rule="evenodd">
        <g transform="translate(.507)">
            <use fill="#FFF" xlink:href="#a"/>
            <ellipse cx="15.993" cy="16" stroke="#000" stroke-opacity=".12" stroke-width=".5" rx="15.743" ry="15.75"/>
        </g>
        <path fill="#0288D1" d="M13.5 12.807v8.83h-2.66v-8.83h2.66zm.17-2.727c0 .431-.136.795-.409 1.09-.272.296-.636.444-1.09.444h-.035c-.431 0-.784-.148-1.056-.444a1.548 1.548 0 0 1-.41-1.09c0-.455.142-.824.427-1.108.284-.285.642-.427 1.073-.427.455 0 .813.142 1.074.427.262.284.404.653.426 1.108zm9.375 6.477v5.08h-2.659v-4.74c0-1.317-.443-1.977-1.33-1.977-.636 0-1.09.353-1.363 1.057a2.266 2.266 0 0 0-.102.716v4.943h-2.625c.023-5.34.023-8.284 0-8.83h2.625v1.262c.59-.977 1.398-1.466 2.42-1.466.91 0 1.642.335 2.2 1.006.556.67.834 1.653.834 2.949z"/>
    </g>
</svg>
