<svg xmlns="http://www.w3.org/2000/svg" width="20" height="6" viewBox="0 0 20 6">
    <path fill="#000" fill-opacity=".38" fill-rule="evenodd" d="M10 5.266a2.183 2.183 0 0 1-1.602-.664A2.183 2.183 0 0 1 7.734 3c0-.625.222-1.159.664-1.602A2.183 2.183 0 0 1 10 .734c.625 0 1.159.222 1.602.664.442.443.664.977.664 1.602 0 .625-.222 1.159-.664 1.602A2.183 2.183 0 0 1 10 5.266zm7.734 0c-.599 0-1.12-.222-1.562-.664A2.183 2.183 0 0 1 15.508 3c0-.625.221-1.159.664-1.602.443-.442.963-.664 1.562-.664.625 0 1.16.222 1.602.664.443.443.664.977.664 1.602 0 .625-.221 1.159-.664 1.602a2.183 2.183 0 0 1-1.602.664zm-15.468 0a2.183 2.183 0 0 1-1.602-.664A2.183 2.183 0 0 1 0 3c0-.625.221-1.159.664-1.602A2.183 2.183 0 0 1 2.266.734c.599 0 1.12.222 1.562.664.443.443.664.977.664 1.602 0 .625-.221 1.159-.664 1.602-.443.442-.963.664-1.562.664z"/>
</svg>
