<svg xmlns="http://www.w3.org/2000/svg" width="68" height="68" viewBox="0 0 68 68">
    <path fill="#000" fill-opacity=".38" fill-rule="nonzero" d="M34 0c18.77.02 33.98 15.23 34 34 0 18.778-15.222 34-34 34S0 52.778 0 34 15.222 0 34 0zm0 64.324A30.235 30.235 0 0 0 64.324 34C64.32 17.26 50.746 3.691 34.006 3.693c-16.74.001-30.312 13.572-30.313 30.313C3.69 50.746 17.259 64.32 34 64.324zM49.047 26.65a3.676 3.676 0 1 1-7.351 0 3.676 3.676 0 0 1 7.351 0zm-26.169 1.05a3.567 3.567 0 0 0-3.035 1.658l-3.11-1.939a7.374 7.374 0 0 1 12.288 0l-3.11 1.916a3.546 3.546 0 0 0-3.033-1.634zm11.185 25.282h-.011a21.373 21.373 0 0 1-16.822-8.255 7.147 7.147 0 0 1-4.908.646l.813-3.561a3.638 3.638 0 0 0 4.29-4.308l3.587-.812a7.18 7.18 0 0 1-1.037 5.56 17.46 17.46 0 0 0 28.699-.94l3.087 1.996a21.345 21.345 0 0 1-15.317 9.54c-.79.09-1.585.135-2.38.134z"/>
</svg>
