<svg xmlns="http://www.w3.org/2000/svg" width="20" height="24" viewBox="0 0 20 24">
    <path fill="#FFF" fill-rule="nonzero" d="M10 0a1.919 1.919 0 0 0-1.77 2.625c-2.68.701-4.42 3.047-4.42 6.015 0 3.76-.916 5.471-1.786 6.435-.435.482-.865.774-1.235 1.05a2.898 2.898 0 0 0-.506.45c-.15.176-.283.428-.283.705 0 .66.402 1.22.967 1.59.566.37 1.308.607 2.203.795 1.16.242 2.593.37 4.166.435a2.913 2.913 0 0 0-.193 1.02C7.143 22.704 8.428 24 10 24c1.572 0 2.857-1.296 2.857-2.88 0-.36-.072-.703-.193-1.02 1.573-.066 3.006-.193 4.166-.435.895-.188 1.637-.426 2.203-.795.565-.37.967-.93.967-1.59 0-.277-.132-.529-.283-.705a2.898 2.898 0 0 0-.506-.45c-.37-.276-.8-.568-1.235-1.05-.87-.964-1.786-2.676-1.786-6.435 0-2.966-1.744-5.31-4.42-6.015A1.919 1.919 0 0 0 10 0zm0 .96c.532 0 .952.424.952.96s-.42.96-.952.96a.949.949 0 0 1-.952-.96c0-.536.42-.96.952-.96zm1.116 2.49c2.54.456 4.122 2.434 4.122 5.19 0 3.92.99 5.934 2.024 7.08.517.572 1.04.93 1.384 1.185.171.127.3.234.357.3.058.066.045.06.045.075 0 .3-.138.52-.536.78s-1.045.503-1.875.675c-1.66.347-4.022.465-6.637.465-2.615 0-4.978-.118-6.637-.465-.83-.172-1.477-.414-1.875-.675-.398-.26-.536-.48-.536-.78 0-.015-.013-.01.045-.075a2.72 2.72 0 0 1 .357-.3c.344-.255.867-.613 1.384-1.185 1.034-1.146 2.024-3.16 2.024-7.08 0-2.754 1.585-4.718 4.122-5.175.316.234.697.375 1.116.375.422 0 .8-.152 1.116-.39zM8.363 20.13c.534.011 1.077.03 1.637.03s1.103-.019 1.637-.03c.17.289.268.63.268.99a1.904 1.904 0 1 1-3.81 0c0-.364.095-.701.268-.99z"/>
</svg>
