<svg xmlns="http://www.w3.org/2000/svg" width="50" height="50" viewBox="0 0 50 50">
    <g fill="none" fill-rule="evenodd" transform="translate(1 1)">
        <path fill="#00BCD4" d="M30.689 14.385H17.31v20.238H30.69V14.385zm-.787-3.369c.54 0 1.045.234 1.512.701.467.467.75 1.02.848 1.66v21.246c0 .64-.221 1.193-.664 1.66-.442.467-1.008.7-1.696.7H18.098c-.639 0-1.192-.22-1.66-.663-.467-.443-.7-1.009-.7-1.697V13.377c0-.59.246-1.131.737-1.623.492-.492 1.033-.738 1.623-.738h11.804z"/>
        <path fill="#00BCD4" d="M20.762 24l-1.09 1.18 2.906 3.148 6.537-6.689-1.09-1.18-5.447 5.508z"/>
        <circle cx="24" cy="24" r="24" stroke="#00BCD4" stroke-width="1.5"/>
    </g>
</svg>
