<svg xmlns="http://www.w3.org/2000/svg" width="20" height="19" viewBox="0 0 20 19">
    <g fill="#FDB828" fill-rule="nonzero">
        <path d="M11.9 17.347c-.157.039-.316.074-.475.103a.768.768 0 0 0 .278 1.51c.189-.036.379-.077.565-.124a.768.768 0 0 0-.368-1.49zM17.538 7.06a.765.765 0 0 0 .964.487.769.769 0 0 0 .484-.97 9.574 9.574 0 0 0-.198-.546.76.76 0 0 0-.991-.427.769.769 0 0 0-.425.997c.06.15.116.305.166.46zM14.377 16.251c-.134.09-.273.176-.413.257a.77.77 0 0 0-.058 1.292.76.76 0 0 0 .82.037c.166-.096.332-.199.492-.305a.77.77 0 0 0 .216-1.064.76.76 0 0 0-1.057-.217zM19.46 9.204a.765.765 0 0 0-.792-.737.766.766 0 0 0-.732.797c.007.162.008.326.005.488a.768.768 0 0 0 .745.784c.421.01.77-.326.78-.75a9.59 9.59 0 0 0-.006-.582zM17.414 14.232a.759.759 0 0 0-1.068.154c-.097.13-.199.258-.303.381a.771.771 0 0 0 .142 1.125.76.76 0 0 0 1.02-.13c.124-.147.245-.3.361-.455a.77.77 0 0 0-.152-1.075zM18.535 11.458a.762.762 0 0 0-.956.503c-.048.154-.102.31-.16.462a.77.77 0 0 0 .442.99.76.76 0 0 0 .984-.444c.068-.18.132-.365.19-.55a.769.769 0 0 0-.5-.961zM8.573 17.457a7.837 7.837 0 0 1-1.956-.625l-.021-.012a8.307 8.307 0 0 1-.434-.221l-.002-.001a8.126 8.126 0 0 1-.759-.478C1.815 13.577.952 8.571 3.48 4.961a7.949 7.949 0 0 1 1.956-1.958l.027-.02a7.928 7.928 0 0 1 8.933-.071l-.596.866c-.166.241-.064.417.226.39l2.588-.232a.429.429 0 0 0 .386-.562l-.695-2.52c-.078-.282-.277-.316-.443-.075l-.597.869A9.368 9.368 0 0 0 7.642.326h-.005L7.61.336a9.4 9.4 0 0 0-5.214 3.517c-.011.013-.022.025-.033.04a9.038 9.038 0 0 0-.33.478l-.02.037A9.508 9.508 0 0 0 .51 9.987v.02c.008.193.024.388.044.58l.006.037a9.492 9.492 0 0 0 2.735 5.717l.01.01.003.003c.373.37.778.712 1.215 1.021a9.37 9.37 0 0 0 3.78 1.593.767.767 0 1 0 .27-1.51z"/>
        <path d="M9.516 3.373a.62.62 0 0 0-.617.621v6.186l5.62 2.925a.616.616 0 0 0 .831-.267.623.623 0 0 0-.264-.836l-4.954-2.578v-5.43a.619.619 0 0 0-.616-.62z"/>
    </g>
</svg>
