<svg xmlns="http://www.w3.org/2000/svg" width="56" height="56" viewBox="0 0 56 56">
    <path fill="#00BCD4" fill-rule="nonzero" d="M28 0C12.551 0 0 12.551 0 28s12.551 28 28 28 28-12.551 28-28S43.449 0 28 0zm0 2.545c14.073 0 25.455 11.382 25.455 25.455 0 14.073-11.382 25.455-25.455 25.455C13.927 53.455 2.545 42.073 2.545 28 2.545 13.927 13.927 2.545 28 2.545zm12.712 12.713c-.42.008-.808.223-1.039.574L26.69 34.97l-9.28-8.61a1.273 1.273 0 1 0-1.73 1.866L27.13 38.85 41.781 17.26a1.273 1.273 0 0 0-1.069-2.001z"/>
</svg>
