<svg xmlns="http://www.w3.org/2000/svg" width="42" height="42" viewBox="0 0 42 42">
    <g fill="none" fill-rule="evenodd" transform="translate(1 1)">
        <circle cx="20" cy="20" r="20" stroke="#00BCD4"/>
        <path fill="#00BCD4" fill-rule="nonzero" d="M21.996 9.09l-6.063 6.168c-.344.351-.537.825-.537 1.32v9.344c0 1.033.824 1.87 1.841 1.87h8.281c.736 0 1.402-.445 1.693-1.132l2.77-6.547c.098-.233.149-.485.149-.738v-1.869c0-1.033-.824-1.87-1.842-1.87h-5.85l.864-4.017a1.892 1.892 0 0 0-.509-1.732l-.797-.796zM9.87 16.572v11.221h3.684v-11.22H9.87z"/>
    </g>
</svg>
