<svg xmlns="http://www.w3.org/2000/svg" width="24" height="24" viewBox="0 0 24 24">
    <g fill="none" fill-rule="evenodd" transform="translate(2 2)">
        <circle cx="10.5" cy="10.5" r="10.5" stroke="#00BCD4" stroke-width="1.831"/>
        <path fill="#00BCD4" fill-rule="nonzero" d="M16.106 8.225c0 .676-.543 1.225-1.212 1.225-.67 0-1.212-.549-1.212-1.225 0-.677.543-1.225 1.212-1.225.67 0 1.212.548 1.212 1.225zm-8.626.35a1.173 1.173 0 0 0-1.001.552l-1.025-.646a2.424 2.424 0 0 1 2.025-1.098c.814 0 1.575.412 2.025 1.098L8.48 9.12a1.166 1.166 0 0 0-1-.545zM11.166 17h-.003a7.018 7.018 0 0 1-5.545-2.751A2.336 2.336 0 0 1 4 14.464l.268-1.186a1.19 1.19 0 0 0 1.09-.333c.285-.289.406-.703.324-1.103l1.182-.27a2.414 2.414 0 0 1-.341 1.852 5.733 5.733 0 0 0 4.81 2.35 5.742 5.742 0 0 0 4.65-2.663l1.017.665a7.027 7.027 0 0 1-5.049 3.179c-.26.03-.522.045-.785.045z"/>
    </g>
</svg>
