<svg xmlns="http://www.w3.org/2000/svg" xmlns:xlink="http://www.w3.org/1999/xlink" width="33" height="32" viewBox="0 0 33 32">
    <defs>
        <ellipse id="a" cx="15.993" cy="16" rx="15.993" ry="16"/>
    </defs>
    <g fill="none" fill-rule="evenodd">
        <g transform="translate(.253)">
            <use fill="#FFF" xlink:href="#a"/>
            <ellipse cx="15.993" cy="16" stroke="#000" stroke-opacity=".12" stroke-width=".5" rx="15.743" ry="15.75"/>
        </g>
        <path fill="#007AFF" d="M16.042 14.09l.034.478-.477-.068c-1.705-.227-3.205-.977-4.5-2.25l-.614-.614-.17.478c-.364 1.113-.16 2.056.614 2.83.227.25.26.374.102.374-.091 0-.25-.045-.477-.136a5.355 5.355 0 0 0-.222-.068.768.768 0 0 0-.153-.034h-.069c-.022.022.006.193.086.51.08.32.164.57.255.75.228.478.66.899 1.296 1.262l.477.205h-.58c-.25 0-.403.011-.46.034-.057.023-.062.09-.017.204.227.705.818 1.228 1.773 1.569l.58.204-.512.307c-.75.432-1.59.67-2.523.716-.522 0-.784.023-.784.068 0 .046.222.176.665.392.443.216.835.37 1.176.46 2.182.66 4.25.42 6.205-.716.636-.363 1.238-.892 1.807-1.585a8.902 8.902 0 0 0 1.33-2.165c.43-1.045.647-2 .647-2.863 0-.318.182-.67.545-1.057.41-.41.637-.648.682-.716.023-.09.023-.142 0-.153-.023-.012-.159.028-.409.119-.523.205-.773.25-.75.136.023-.068.102-.17.239-.306.431-.478.647-.819.647-1.023h-.034a.303.303 0 0 0-.136.034l-.136.068c-.432.182-.716.284-.853.307l-.511.17-.443-.306c-.387-.25-.66-.398-.818-.444a2.684 2.684 0 0 0-1.637.034 2.972 2.972 0 0 0-1.415 1.108 2.56 2.56 0 0 0-.46 1.688z"/>
    </g>
</svg>
