<svg xmlns="http://www.w3.org/2000/svg" width="75" height="60" viewBox="0 0 75 60">
    <path fill="#000" fill-opacity=".54" fill-rule="nonzero" d="M43.5 0c-7.822 0-14.443 4.72-17.625 11.389-1.693-1.176-3.656-2.032-5.86-2.032-5.59 0-10.048 4.46-10.359 10.018C4.066 21.407 0 26.665 0 32.985c0 8.057 6.492 14.602 14.484 14.602H27a1.506 1.506 0 0 0 1.318-.75c.27-.473.27-1.052 0-1.524a1.506 1.506 0 0 0-1.318-.75H14.484C8.11 44.563 3 39.406 3 32.984c0-5.346 3.574-9.847 8.438-11.2a1.51 1.51 0 0 0 1.078-1.512c-.006-.213 0-.32 0-.33 0-4.2 3.334-7.562 7.5-7.562 2.086 0 3.984.845 5.343 2.221a1.49 1.49 0 0 0 1.354.396 1.51 1.51 0 0 0 1.084-.916C30.158 7.655 36.287 3.024 43.5 3.024c9.258 0 16.734 7.544 16.734 16.87 0 .692-.052 1.371-.14 2.08-.053.425.076.85.351 1.176.276.324.68.513 1.102.525h.094C67.377 23.675 72 28.335 72 34.12c0 5.783-4.623 10.444-10.36 10.444H48a1.506 1.506 0 0 0-1.318.75 1.537 1.537 0 0 0 0 1.524c.275.472.779.756 1.318.75h13.64C69 47.587 75 41.538 75 34.119c0-6.882-5.238-12.352-11.86-13.137.024-.367.094-.71.094-1.087C63.234 8.93 54.375 0 43.5 0zm-6 25.802l-1.078 1.04-7.5 7.56a1.542 1.542 0 0 0 0 2.174 1.512 1.512 0 0 0 2.156 0L36 31.614v26.558a1.524 1.524 0 0 0 .744 1.33 1.504 1.504 0 0 0 1.512 0c.469-.278.75-.786.744-1.33V31.614l4.922 4.962a1.512 1.512 0 0 0 2.156 0 1.542 1.542 0 0 0 0-2.174l-7.5-7.56-1.078-1.04z"/>
</svg>
