<svg xmlns="http://www.w3.org/2000/svg" viewBox="0 0 32 32">
    <defs>
        <style>
            .cls-1{fill:none}.cls-2{fill:rgba(15,63,97,.8)}
        </style>
    </defs>
    <g id="ic_identity" transform="translate(-440.5 -574)">
        <path id="Rectangle_63" d="M0 0h32v32H0z" class="cls-1" data-name="Rectangle 63" transform="translate(440.5 574)"/>
        <g id="other" transform="translate(438.5 573)">
            <path id="other-2" d="M28.7 22.793H2.072A2.074 2.074 0 0 1 0 20.721V2.072A2.074 2.074 0 0 1 2.072 0H28.7a2.074 2.074 0 0 1 2.07 2.072v18.649a2.074 2.074 0 0 1-2.07 2.072zM1.538 1.554v19.685h27.694V1.554zm20.11 17.819a.446.446 0 0 1-.082-.007c-.264-.046-.309-.251-.333-.457l-.089-.8-.035-.318c-.108.054-.213.11-.315.164a7.233 7.233 0 0 1-.742.357.83.83 0 0 1-.29.051.519.519 0 0 1-.253-.055c-.226-.132-.125-.373-.03-.543l.425-.76c.326-.583.661-1.184 1-1.771a.341.341 0 0 0-.017-.43 2.8 2.8 0 0 1-.346-2.694 2.976 2.976 0 0 1 2.216-1.787 3.225 3.225 0 0 1 .631-.063 2.953 2.953 0 0 1 2.967 2.526 2.69 2.69 0 0 1-.521 2.023.34.34 0 0 0-.005.433c.388.683.777 1.38 1.153 2.054l.2.367.038.066c.107.184.218.375.017.573a.365.365 0 0 1-.262.119.817.817 0 0 1-.358-.124l-.076-.039c-.229-.114-.461-.231-.706-.355l-.217-.11c-.016.129-.029.253-.042.374a8.045 8.045 0 0 1-.115.818c-.03.143-.179.347-.289.36h-.028a.573.573 0 0 1-.416-.226c-.349-.584-.675-1.17-1.02-1.79v-.006l-.333-.6-.064.092a1.773 1.773 0 0 0-.1.152c-.437.779-.817 1.461-1.163 2.085-.09.164-.194.321-.4.321zm1.717-7.682h-.01a1.493 1.493 0 0 0-1.5 1.446 1.475 1.475 0 0 0 1.5 1.474h.014a1.529 1.529 0 0 0 1.068-.427 1.418 1.418 0 0 0 .017-2.043 1.528 1.528 0 0 0-1.09-.449zm-11.829 6.543H5.558a1 1 0 0 1-1-1v-7.117a1 1 0 0 1 1-1h5.978a1 1 0 0 1 1 1v7.117a1 1 0 0 1-1 1zm1-11.966H4.559V4.559h7.978v1.708z" class="cls-2" data-name="other" transform="translate(2.5 6)"/>
        </g>
    </g>
</svg>
