<svg xmlns="http://www.w3.org/2000/svg" viewBox="0 0 32 32">
    <defs>
        <style>
            .cls-1{fill:none}.cls-2{fill:rgba(15,63,97,.8)}
        </style>
    </defs>
    <g id="ic_passport" transform="translate(-441 -574)">
        <path id="Rectangle_63" d="M0 0h32v32H0z" class="cls-1" data-name="Rectangle 63" transform="translate(441 574)"/>
        <g id="passport" transform="translate(440 573)">
            <path id="Combined_Shape" d="M20.857 28.973H2.085A2.088 2.088 0 0 1 0 26.887V2.085A2.088 2.088 0 0 1 2.085 0h18.772a2.088 2.088 0 0 1 2.086 2.085v24.8a2.089 2.089 0 0 1-2.086 2.088zM1.564 1.549v25.875h19.815V1.549zM4.8 24.383a.636.636 0 0 1-.634-.565.615.615 0 0 1 .141-.454.633.633 0 0 1 .433-.227h13.344a.644.644 0 0 1 .552.309.618.618 0 0 1 0 .626.642.642 0 0 1-.549.308H4.864zm6.667-4.594a6.994 6.994 0 0 1-4.919-2.009 6.709 6.709 0 0 1 0-9.653 7.041 7.041 0 0 1 9.848 0 6.709 6.709 0 0 1 0 9.653 6.994 6.994 0 0 1-4.925 2.008zm.634-6.214v4.776a3.161 3.161 0 0 0 1.05-1.282 9.062 9.062 0 0 0 .812-3.495zm-3.13 0a9.085 9.085 0 0 0 .813 3.495 3.167 3.167 0 0 0 1.05 1.282v-4.777H8.975zm6.28 0a10.084 10.084 0 0 1-.97 4.038c-.049.1-.1.2-.159.292a5.6 5.6 0 0 0 3.011-4.33zm-9.449 0A5.6 5.6 0 0 0 8.816 17.9l-.031-.051a6.549 6.549 0 0 1-.128-.24 10.084 10.084 0 0 1-.97-4.038H5.806zM14.126 8c.06.1.114.2.159.291a10.123 10.123 0 0 1 .97 4.039h1.882A5.6 5.6 0 0 0 14.126 8zm-2.021-.447v4.777h1.862a9.058 9.058 0 0 0-.812-3.5 3.167 3.167 0 0 0-1.05-1.275zm-1.267 0a3.167 3.167 0 0 0-1.05 1.282 9.136 9.136 0 0 0-.813 3.5h1.863zM8.816 8a5.6 5.6 0 0 0-3.011 4.33h1.883a10.11 10.11 0 0 1 .97-4.039c.043-.089.092-.175.147-.27z" class="cls-2" data-name="Combined Shape" transform="translate(6 2.5)"/>
        </g>
    </g>
</svg>
