<svg xmlns="http://www.w3.org/2000/svg" width="92" height="58.319" viewBox="0 0 92 58.319">
    <defs>
        <style>
            .cls-2{fill:#00bcd4}
        </style>
    </defs>
    <g id="ic_camera" transform="translate(10 1.681)">
        <g id="Group_3" data-name="Group 3" transform="translate(-14 -27.319)">
            <g id="ic_upload">
                <g id="icons8-upload_to_cloud" transform="translate(30 35)">
                    <path id="Shape" d="M21.748 30H18.4V18.333h-5.017l6.692-8.854 6.691 8.854h-5.018V30zm-6.691-3.332h-5.019a9.985 9.985 0 0 1-7.09-2.937A9.91 9.91 0 0 1 0 16.667a10.046 10.046 0 0 1 8.365-9.844 13.374 13.374 0 0 1 4.85-4.974A13.5 13.5 0 0 1 20.075 0a13.318 13.318 0 0 1 8.355 2.891 13.668 13.668 0 0 1 4.714 7.266 7.778 7.778 0 0 1 4.993 2.714 7.944 7.944 0 0 1 1.856 5.463 8.261 8.261 0 0 1-8.365 8.334h-6.691v-3.335h6.692a4.922 4.922 0 0 0 5.018-5 4.963 4.963 0 0 0-1.15-3.171 4.749 4.749 0 0 0-3.032-1.673l-2.2-.312-.465-2.187a9.744 9.744 0 0 0-3.482-5.515 10.166 10.166 0 0 0-11.374-.75 10.449 10.449 0 0 0-3.756 3.765l-.837 1.354-1.463.313a6.6 6.6 0 0 0-3.576 11.218 6.656 6.656 0 0 0 4.725 1.959h5.018v3.334z" class="cls-2"/>
                </g>
            </g>
        </g>
    </g>
</svg>
