<svg xmlns="http://www.w3.org/2000/svg" width="60" height="60" viewBox="0 0 60 60">
    <g fill="none" fill-rule="evenodd" transform="translate(7.5 7.5)">
        <circle cx="22.4" cy="22.4" r="22.4" stroke="#00BCD4" stroke-width="4"/>
        <path fill="#00BCD4" fill-rule="nonzero" d="M34.358 17.546c0 1.444-1.157 2.613-2.584 2.613-1.428 0-2.585-1.17-2.585-2.613s1.157-2.613 2.585-2.613c1.427 0 2.584 1.17 2.584 2.613zm-18.402.748a2.501 2.501 0 0 0-2.134 1.178l-2.187-1.378a5.171 5.171 0 0 1 4.32-2.344c1.738 0 3.36.88 4.32 2.344l-2.186 1.361a2.487 2.487 0 0 0-2.133-1.161zm7.866 17.973h-.008a14.972 14.972 0 0 1-11.83-5.87 4.982 4.982 0 0 1-3.45.46l.57-2.532a2.54 2.54 0 0 0 2.326-.709 2.605 2.605 0 0 0 .692-2.353l2.522-.578a5.15 5.15 0 0 1-.73 3.953 12.23 12.23 0 0 0 10.264 5.012 12.25 12.25 0 0 0 9.918-5.68l2.17 1.419a14.99 14.99 0 0 1-10.77 6.782c-.556.064-1.115.096-1.674.096z"/>
    </g>
</svg>
