<?xml version="1.0" encoding="UTF-8"?>
<svg width="24px" height="24px" viewBox="0 0 24 24" version="1.1" xmlns="http://www.w3.org/2000/svg" xmlns:xlink="http://www.w3.org/1999/xlink">
    <!-- Generator: Sketch 47.1 (45422) - http://www.bohemiancoding.com/sketch -->
    <title>info</title>
    <desc>Created with Sketch.</desc>
    <defs></defs>
    <g id="UI" stroke="none" stroke-width="1" fill="none" fill-rule="evenodd">
        <g id="info" fill="#85929E">
            <path d="M12.9453125,17.5 L13.9335938,17.5 L13.9335938,18.0585938 L9.9375,18.0585938 L9.9375,17.5 L10.8828125,17.5 L10.8828125,10.0664062 L9.9375,10.0664062 L9.9375,9.5078125 L12.9453125,9.5078125 L12.9453125,17.5 Z M11.8710938,8.1328125 C11.0403604,8.1328125 10.625,7.73177484 10.625,6.9296875 C10.625,6.49999785 10.7467436,6.16341268 10.9902344,5.91992188 C11.2337252,5.67643107 11.527342,5.5546875 11.8710938,5.5546875 C12.2148455,5.5546875 12.5084623,5.69791523 12.7519531,5.984375 C12.9954439,6.27083477 13.1171875,6.58593578 13.1171875,6.9296875 C13.1171875,7.27343922 12.9954439,7.55989469 12.7519531,7.7890625 C12.5084623,8.01823031 12.2148455,8.1328125 11.8710938,8.1328125 Z M4.78125,4.82421875 C2.80467762,6.80079113 1.81640625,9.1926943 1.81640625,12 C1.81640625,14.8073057 2.811839,17.2063703 4.80273438,19.1972656 C6.79362975,21.188161 9.1926943,22.1835938 12,22.1835938 C14.8073057,22.1835938 17.2063703,21.188161 19.1972656,19.1972656 C21.188161,17.2063703 22.1835938,14.8073057 22.1835938,12 C22.1835938,9.1926943 21.188161,6.79362975 19.1972656,4.80273438 C17.2063703,2.811839 14.8073057,1.81640625 12,1.81640625 C9.1926943,1.81640625 6.78646836,2.81900039 4.78125,4.82421875 Z M19.7773438,4.22265625 C21.925792,6.37110449 23,8.96352648 23,12 C23,15.0364735 21.925792,17.6288955 19.7773438,19.7773438 C17.6288955,21.925792 15.0364735,23 12,23 C8.96352648,23 6.37110449,21.925792 4.22265625,19.7773438 C2.07420801,17.6288955 1,15.0364735 1,12 C1,8.96352648 2.07420801,6.37110449 4.22265625,4.22265625 C6.37110449,2.07420801 8.96352648,1 12,1 C15.0364735,1 17.6288955,2.07420801 19.7773438,4.22265625 Z" id="L"></path>
        </g>
    </g>
</svg>