<svg xmlns="http://www.w3.org/2000/svg" width="55" height="18" viewBox="0 0 55 18">
    <g fill="none" fill-rule="nonzero">
        <path fill="#4285F4" d="M6.914 6.243v1.832h4.403c-.132 1.03-.477 1.783-1.002 2.306-.642.637-1.644 1.34-3.4 1.34-2.712 0-4.83-2.174-4.83-4.873 0-2.699 2.118-4.874 4.83-4.874 1.46 0 2.529.573 3.317 1.309L11.53 1.99C10.429.944 8.968.142 6.914.142 3.202.142.081 3.152.081 6.848c0 3.697 3.121 6.706 6.833 6.706 2.003 0 3.515-.654 4.698-1.88 1.215-1.211 1.593-2.912 1.593-4.286 0-.425-.033-.818-.099-1.145H6.914"/>
        <path fill="#EB4335" d="M18.707 4.755c-2.403 0-4.363 1.82-4.363 4.328 0 2.492 1.96 4.329 4.363 4.329 2.405 0 4.364-1.837 4.364-4.329 0-2.508-1.96-4.328-4.364-4.328zm0 6.951c-1.317 0-2.453-1.082-2.453-2.623 0-1.557 1.136-2.623 2.453-2.623s2.454 1.066 2.454 2.623c0 1.541-1.137 2.623-2.454 2.623z"/>
        <path fill="#4285F4" d="M40.094 5.723h-.066c-.429-.509-1.252-.968-2.289-.968-2.173 0-4.066 1.885-4.066 4.328 0 2.426 1.893 4.329 4.066 4.329 1.037 0 1.86-.46 2.289-.984h.066v.605c0 1.656-.89 2.541-2.322 2.541-1.169 0-1.893-.836-2.19-1.54l-1.662.688c.477 1.147 1.745 2.558 3.852 2.558 2.24 0 4.133-1.312 4.133-4.51V4.979h-1.811v.745zm-2.19 5.983c-1.317 0-2.32-1.114-2.32-2.623 0-1.524 1.003-2.623 2.32-2.623 1.302 0 2.322 1.115 2.322 2.64 0 1.508-1.02 2.606-2.322 2.606z"/>
        <path fill="#FBBC05" d="M28.435 4.755c-2.403 0-4.363 1.82-4.363 4.328 0 2.492 1.96 4.329 4.363 4.329 2.405 0 4.364-1.837 4.364-4.329 0-2.508-1.96-4.328-4.364-4.328zm0 6.951c-1.317 0-2.453-1.082-2.453-2.623 0-1.557 1.136-2.623 2.453-2.623s2.454 1.066 2.454 2.623c0 1.541-1.137 2.623-2.454 2.623z"/>
        <path fill="#34A853" d="M43.401.321h1.879v13.09H43.4z"/>
        <path fill="#EB4335" d="M51.083 11.706c-.972 0-1.663-.442-2.108-1.31l5.812-2.394-.198-.492c-.362-.967-1.465-2.755-3.72-2.755-2.24 0-4.1 1.755-4.1 4.328 0 2.427 1.844 4.329 4.314 4.329 1.992 0 3.144-1.213 3.621-1.919l-1.481-.983c-.494.722-1.17 1.196-2.14 1.196zm-.142-5.329c.773 0 1.428.392 1.646.955l-3.925 1.62c0-1.824 1.296-2.575 2.28-2.575z"/>
    </g>
</svg>
