<svg xmlns="http://www.w3.org/2000/svg" width="44" height="20" viewBox="0 0 44 20">
    <path fill="#FFF" fill-rule="evenodd" d="M13.781 12.381c-.024-.295-.04-.592-.073-.887a5.042 5.042 0 0 0-.524-1.76c-.559-1.093-1.39-1.947-2.46-2.581a5.327 5.327 0 0 0-2.603-.735 6.837 6.837 0 0 0-1.312.098 5.284 5.284 0 0 0-2.202.888 6.56 6.56 0 0 0-1.571 1.574 5.46 5.46 0 0 0-1.024 2.717 6.349 6.349 0 0 0 .254 2.44c.272.9.732 1.698 1.41 2.37 1.073 1.067 2.396 1.594 3.918 1.68.49.028.976-.013 1.459-.1a5.751 5.751 0 0 0 1.61-.532 5.502 5.502 0 0 0 1.51-1.154 5.865 5.865 0 0 0 1.131-1.692c.323-.743.46-1.522.477-2.326zM15.754.001c.003.052.007.089.007.125-.003 1.24-.005 2.478-.01 3.717-.003 1.02-.01 2.041-.013 3.061l-.007 2.642-.004 2.15c0 .317.008.635-.001.952a7.208 7.208 0 0 1-1.028 3.507 7.892 7.892 0 0 1-1.385 1.76 7.428 7.428 0 0 1-2.866 1.696c-.476.151-.965.246-1.462.302-.501.056-1.004.075-1.507.055-1.33-.053-2.583-.369-3.725-1.053a7.705 7.705 0 0 1-1.99-1.739 7.487 7.487 0 0 1-1.539-3.043 9 9 0 0 1-.197-1.314 5.319 5.319 0 0 1-.025-.652c.006-.18.028-.358.045-.537a8.28 8.28 0 0 1 .338-1.715A7.252 7.252 0 0 1 2.24 6.893a8.944 8.944 0 0 1 1.994-1.486 6.425 6.425 0 0 1 1.835-.65 9.504 9.504 0 0 1 1.538-.172 8.252 8.252 0 0 1 2.898.397 7.188 7.188 0 0 1 2.618 1.532c.215.196.413.41.62.614.018.019.038.036.077.074V.219c0-.219 0-.22.23-.219l1.595.001h.109zm6.783 14.602c0-1.167-.003-2.334 0-3.501.002-.447 0-.895.028-1.34a5.046 5.046 0 0 1 1.003-2.74c.66-.887 1.534-1.501 2.59-1.877a6.62 6.62 0 0 1 1.63-.352c.172-.016.344-.027.516-.036.134-.007.15.01.15.144l.002 1.505a.624.624 0 0 1-.005.072c-.005.048-.034.073-.082.076-.05.003-.099.002-.148.002-.551-.002-1.087.079-1.596.29a3.46 3.46 0 0 0-1.708 1.508c-.27.467-.42.973-.503 1.5-.059.375-.08.752-.084 1.131-.008.959-.02 1.918-.02 2.877.002.791.02 1.583.03 2.374.007.625.017 1.25.023 1.873.005.44.007.88.009 1.32 0 .158-.009.168-.174.168-.5.002-1 .002-1.499.002h-.053c-.075-.009-.098-.029-.105-.103a1.83 1.83 0 0 1-.004-.163c.001-.39.004-.778.004-1.167v-3.563h-.004zm-2.41-2.305v7.114c0 .18-.008.188-.198.188h-1.635c-.177 0-.194-.016-.194-.186l.001-6.96-.001-7.248c0-.04-.002-.082.003-.122.008-.069.039-.094.11-.1h1.753c.024 0 .05-.002.073.001.06.008.083.034.088.096.002.03 0 .061 0 .092v7.125zm.55-10.656c-.003.837-.717 1.524-1.584 1.513-.862-.01-1.559-.68-1.554-1.53.004-.843.7-1.516 1.571-1.513.916.004 1.571.727 1.566 1.53zM44 12.323c-.01.997-.174 1.963-.556 2.891a7.398 7.398 0 0 1-1.467 2.256c-.477.51-1.01.959-1.59 1.356a5.423 5.423 0 0 1-.963.527 7.809 7.809 0 0 1-1.926.55c-.355.051-.712.09-1.07.093-.324.004-.648.01-.97-.01a8.088 8.088 0 0 1-2.48-.538c-.764-.298-1.43-.74-2.048-1.26a7.81 7.81 0 0 1-1.798-2.139 7.356 7.356 0 0 1-.836-2.359 8.774 8.774 0 0 1-.137-1.496c-.004-1.72.533-3.267 1.596-4.642a8.084 8.084 0 0 1 1.894-1.795 7.422 7.422 0 0 1 2.887-1.145c.5-.088 1.002-.14 1.51-.135a9.199 9.199 0 0 1 2.314.299c.885.24 1.69.63 2.416 1.178.833.627 1.548 1.36 2.097 2.237a7.052 7.052 0 0 1 1.013 2.777c.022.158.046.317.059.477.023.292.037.585.055.878zm-1.98-.046c-.007-.132-.014-.333-.031-.534a5.378 5.378 0 0 0-.27-1.352c-.518-1.458-1.476-2.568-2.84-3.348a5.24 5.24 0 0 0-2.148-.681 7.058 7.058 0 0 0-1.391.007 5.183 5.183 0 0 0-1.189.264c-.49.174-.934.428-1.36.714-.883.593-1.575 1.346-2.034 2.293a6.198 6.198 0 0 0-.524 1.7 5.983 5.983 0 0 0-.006 1.925c.073.467.215.917.395 1.355.445 1.082 1.147 1.966 2.15 2.615.861.557 1.806.882 2.84.948a6.73 6.73 0 0 0 2.019-.178c.952-.23 1.8-.65 2.499-1.321 1.243-1.192 1.88-2.638 1.89-4.407zm-2.874 1.396l.604.379c-.539.893-1.77 1.786-3.27 1.904-1.825.144-3.288-.856-3.959-1.9l.609-.382c.744 1.003 1.728 1.574 3.01 1.569 1.274-.005 2.263-.56 3.006-1.57zm-3.912-2.26h-.73c-.016-.24-.108-.439-.313-.578a.776.776 0 0 0-.522-.121c-.351.03-.601.296-.644.686-.073.021-.565.028-.722.01-.077-.32.187-.87.558-1.128.525-.364 1.082-.397 1.648-.1.485.253.747.776.725 1.23zm1.8-.004c.018-.515.232-.925.68-1.194.516-.311 1.055-.315 1.577-.013.462.267.678.682.703 1.213-.25.004-.49.004-.74 0-.016-.24-.108-.44-.312-.58a.78.78 0 0 0-.522-.121c-.35.03-.603.297-.645.685-.073.023-.529.03-.74.01z"/>
</svg>
