<svg xmlns="http://www.w3.org/2000/svg" width="164" height="34" viewBox="0 0 164 34">
    <g fill="#00BCD4" fill-rule="evenodd">
        <path d="M81.548 15.4V28h2.412V15.4h-2.412zm10.746 0c3.816 0 6.57 2.61 6.57 6.3 0 3.672-2.772 6.3-6.66 6.3h-5.148V15.4h5.238zm.054 10.476c2.322 0 4.05-1.71 4.05-4.158 0-2.466-1.782-4.194-4.14-4.194h-2.79v8.352h2.88zM100.97 15.4V28h9.45v-2.106h-7.038v-3.168h6.12V20.62h-6.12v-3.114h6.822V15.4h-9.234zm11.898 0V28h2.358v-8.604l6.48 8.604h2.286V15.4h-2.34v8.622l-6.498-8.622h-2.286zm12.816 0v2.142h3.924V28h2.43V17.542h3.924V15.4h-10.278zm11.988 0V28h2.412V15.4h-2.412zm4.104 0v2.142h3.924V28h2.43V17.542h3.924V15.4h-10.278zm22.122 0h-2.43l-3.384 5.922-3.438-5.922h-2.448l4.698 8.568V28h2.412v-4.122l4.59-8.478zM22.551 21.048c-.04-.503-.067-1.007-.12-1.508a8.821 8.821 0 0 0-.856-2.992c-.915-1.859-2.275-3.31-4.025-4.388-1.305-.803-2.734-1.203-4.261-1.25a10.779 10.779 0 0 0-2.148.168 8.467 8.467 0 0 0-3.602 1.51c-1.014.737-1.859 1.642-2.571 2.674a9.501 9.501 0 0 0-1.676 4.62 11.192 11.192 0 0 0 .416 4.147c.445 1.53 1.199 2.887 2.306 4.03 1.756 1.814 3.922 2.709 6.412 2.855a9.871 9.871 0 0 0 2.388-.168 9.168 9.168 0 0 0 2.636-.906c.944-.5 1.753-1.17 2.47-1.961a10.005 10.005 0 0 0 1.85-2.877c.528-1.264.754-2.587.781-3.954zM25.78.002c.005.089.012.15.012.213-.005 2.106-.009 4.212-.016 6.318-.006 1.735-.016 3.47-.022 5.205-.006 1.496-.008 2.993-.012 4.49l-.006 3.655c-.001.54.013 1.08-.002 1.618a12.607 12.607 0 0 1-1.681 5.962c-.626 1.099-1.362 2.11-2.267 2.992-1.349 1.313-2.901 2.296-4.69 2.884-.78.257-1.579.418-2.393.513-.82.096-1.642.128-2.465.094-2.177-.09-4.228-.628-6.096-1.79-1.263-.786-2.331-1.791-3.256-2.956C1.666 27.663.811 25.947.367 24.027c-.17-.736-.26-1.483-.323-2.235a9.391 9.391 0 0 1-.04-1.108c.01-.305.044-.61.072-.914.09-.99.265-1.963.554-2.915a12.418 12.418 0 0 1 3.036-5.137c.97-.995 2.057-1.84 3.262-2.526.94-.535 1.95-.885 3.004-1.105.83-.174 1.669-.26 2.516-.292 1.622-.06 3.204.149 4.741.674 1.617.552 3.041 1.43 4.284 2.605.352.333.678.695 1.015 1.044l.126.125V.373c0-.373 0-.373.378-.373l2.609.002h.178zm11.1 24.823c0-1.984-.005-3.967.001-5.952.002-.759-.002-1.52.045-2.278.107-1.706.644-3.268 1.64-4.658 1.082-1.507 2.511-2.551 4.237-3.19.864-.32 1.756-.513 2.67-.6.28-.026.562-.045.843-.06.22-.012.247.018.247.245l.002 2.559c0 .04-.003.08-.007.121-.008.082-.057.126-.136.13-.08.005-.16.004-.242.004-.9-.004-1.778.133-2.61.492-1.225.528-2.147 1.397-2.795 2.563-.442.795-.689 1.655-.824 2.55-.096.638-.132 1.28-.137 1.924-.014 1.63-.034 3.26-.032 4.89.002 1.346.03 2.691.047 4.037.013 1.061.028 2.123.039 3.184.008.748.01 1.496.014 2.245.002.267-.014.283-.284.284-.818.003-1.635.003-2.453.004-.029 0-.058.001-.087-.002-.123-.014-.16-.048-.171-.174a3.231 3.231 0 0 1-.007-.278c.002-.661.006-1.322.006-1.984v-6.055h-.007zm-3.943-3.919v12.095c0 .306-.014.32-.324.32h-2.677c-.288 0-.317-.027-.317-.317l.002-11.833-.002-12.32c0-.07-.003-.14.005-.209.013-.116.064-.16.18-.17.029-.002.058 0 .087 0h2.78c.041 0 .082-.003.122.003.097.013.135.057.143.163.004.051.001.104.001.156v12.112zm.898-18.115c-.004 1.423-1.172 2.59-2.59 2.573A2.569 2.569 0 0 1 28.7 2.763 2.561 2.561 0 0 1 31.272.19c1.499.006 2.57 1.236 2.562 2.6zM72 20.949c-.015 1.694-.285 3.337-.91 4.915a12.637 12.637 0 0 1-2.4 3.834 15.93 15.93 0 0 1-2.602 2.306 8.777 8.777 0 0 1-1.577.895c-1.011.443-2.057.774-3.15.937-.582.087-1.165.15-1.753.158-.529.006-1.06.016-1.587-.017a12.813 12.813 0 0 1-4.057-.915c-1.25-.506-2.341-1.259-3.35-2.143-1.189-1.04-2.186-2.24-2.943-3.635a12.827 12.827 0 0 1-1.369-4.01 15.479 15.479 0 0 1-.224-2.544c-.007-2.925.872-5.554 2.612-7.891.877-1.178 1.894-2.212 3.1-3.052a11.888 11.888 0 0 1 4.723-1.947c.817-.149 1.64-.239 2.471-.229 1.282.015 2.548.16 3.787.508a11.314 11.314 0 0 1 3.954 2.002c1.362 1.067 2.532 2.311 3.43 3.803a12.285 12.285 0 0 1 1.658 4.721c.037.27.076.54.097.811.037.498.06.995.09 1.493zm-3.24-.078c-.012-.224-.023-.567-.051-.907-.065-.783-.188-1.555-.442-2.3-.847-2.478-2.414-4.364-4.647-5.692a8.348 8.348 0 0 0-3.515-1.157 11.12 11.12 0 0 0-2.276.013 8.211 8.211 0 0 0-1.946.448c-.8.296-1.528.727-2.226 1.214-1.444 1.007-2.577 2.288-3.327 3.898-.43.92-.697 1.887-.858 2.889a10.562 10.562 0 0 0-.01 3.273c.12.795.352 1.56.647 2.305.727 1.84 1.876 3.34 3.52 4.445 1.408.947 2.953 1.5 4.644 1.612a10.616 10.616 0 0 0 3.305-.304c1.557-.39 2.945-1.105 4.09-2.245 2.033-2.026 3.075-4.484 3.093-7.492zm-4.703 2.374l.988.643c-.882 1.519-2.895 3.037-5.352 3.238-2.985.244-5.379-1.456-6.477-3.231l.997-.65c1.216 1.706 2.827 2.676 4.925 2.668 2.085-.008 3.703-.953 4.92-2.668zm-6.401-3.843H56.46c-.026-.408-.177-.745-.512-.982-.258-.182-.546-.234-.854-.206-.575.051-.984.503-1.055 1.166-.119.036-.923.048-1.18.016-.126-.544.305-1.478.913-1.917.858-.62 1.77-.675 2.696-.17.794.431 1.223 1.32 1.187 2.093zm2.946-.006c.029-.877.379-1.573 1.111-2.03.845-.53 1.728-.536 2.582-.023.755.454 1.11 1.16 1.15 2.063-.41.007-.804.006-1.213 0-.025-.41-.175-.749-.51-.986-.257-.181-.545-.234-.854-.207-.573.05-.985.505-1.055 1.165-.118.04-.864.052-1.21.018z"/>
    </g>
</svg>
