<svg xmlns="http://www.w3.org/2000/svg" width="68" height="32" viewBox="0 0 68 32">
    <path fill="#FFF" fill-rule="evenodd" d="M21.123 19.464c-.037-.464-.063-.93-.113-1.394a8.079 8.079 0 0 0-.802-2.768c-.857-1.718-2.13-3.06-3.77-4.057-1.222-.743-2.56-1.113-3.99-1.155-.677-.02-1.346.042-2.012.155a7.986 7.986 0 0 0-3.374 1.395 10.19 10.19 0 0 0-2.409 2.474 8.717 8.717 0 0 0-1.57 4.272 10.224 10.224 0 0 0 .39 3.835c.417 1.415 1.123 2.67 2.16 3.727 1.645 1.677 3.674 2.505 6.006 2.64a9.362 9.362 0 0 0 2.237-.155 8.662 8.662 0 0 0 2.469-.838c.884-.462 1.641-1.083 2.313-1.814a9.24 9.24 0 0 0 1.733-2.66c.495-1.169.707-2.392.732-3.657zM24.146.002c.005.082.012.139.011.197-.004 1.947-.008 3.895-.014 5.843l-.021 4.812c-.005 1.384-.008 2.769-.011 4.153l-.006 3.38c-.001.5.012.998-.002 1.496a11.547 11.547 0 0 1-1.575 5.514c-.586 1.016-1.276 1.951-2.123 2.766-1.263 1.215-2.717 2.124-4.393 2.668-.73.237-1.479.386-2.24.474-.769.089-1.54.118-2.31.087-2.04-.084-3.96-.58-5.71-1.655-1.183-.727-2.184-1.657-3.05-2.734C1.562 25.582.76 23.994.345 22.219c-.16-.68-.243-1.371-.303-2.067a8.575 8.575 0 0 1-.038-1.024c.01-.282.042-.564.068-.845.085-.916.249-1.816.519-2.696a11.454 11.454 0 0 1 2.844-4.75A13.74 13.74 0 0 1 6.489 8.5c.88-.494 1.826-.818 2.814-1.022.777-.16 1.563-.24 2.357-.27 1.519-.055 3 .138 4.44.624a10.958 10.958 0 0 1 4.013 2.409c.33.308.635.643.95.965l.118.116V.345c0-.345 0-.345.355-.345l2.443.002h.167zm10.396 22.955c0-1.834-.003-3.669.002-5.504.002-.702-.002-1.406.042-2.107.1-1.577.603-3.022 1.537-4.307 1.012-1.394 2.352-2.36 3.968-2.95a9.93 9.93 0 0 1 2.501-.554c.263-.025.526-.043.79-.057.205-.01.23.018.23.227l.003 2.366c0 .038-.003.075-.007.113-.008.075-.053.116-.127.12-.075.004-.151.003-.227.003-.844-.003-1.665.123-2.445.455-1.147.489-2.01 1.293-2.618 2.37-.414.735-.645 1.53-.771 2.359a12.46 12.46 0 0 0-.129 1.779c-.013 1.507-.031 3.015-.03 4.522.002 1.244.029 2.489.044 3.733.013.981.027 1.963.037 2.945.007.691.01 1.384.013 2.075.001.248-.013.263-.266.263-.766.003-1.532.003-2.298.004-.027 0-.054.001-.08-.001-.117-.013-.151-.045-.161-.161a2.95 2.95 0 0 1-.007-.257c.002-.612.005-1.223.005-1.835v-5.601h-.006zm-3.692-3.624v11.185c0 .283-.014.296-.304.296H28.04c-.27 0-.297-.025-.297-.293l.002-10.943-.002-11.393c0-.065-.003-.13.004-.193.013-.107.06-.148.17-.157.026-.002.054 0 .08 0h2.606c.037 0 .076-.003.113.002.091.013.127.053.134.15.003.049 0 .097 0 .146v11.2zm.841-16.752a2.402 2.402 0 0 1-2.426 2.38 2.39 2.39 0 0 1-2.383-2.406A2.384 2.384 0 0 1 29.291.177a2.392 2.392 0 0 1 2.4 2.404zM67.44 19.373c-.014 1.567-.268 3.086-.852 4.545a11.665 11.665 0 0 1-2.249 3.546 14.86 14.86 0 0 1-2.437 2.132 8.25 8.25 0 0 1-1.477.828c-.947.41-1.927.715-2.951.866-.544.08-1.091.14-1.641.146-.496.005-.993.015-1.487-.015a12.132 12.132 0 0 1-3.8-.847c-1.171-.468-2.193-1.164-3.138-1.981-1.113-.963-2.048-2.072-2.757-3.362a11.76 11.76 0 0 1-1.282-3.709 14.137 14.137 0 0 1-.21-2.352c-.006-2.705.817-5.135 2.447-7.297.822-1.09 1.774-2.046 2.903-2.822a11.214 11.214 0 0 1 4.424-1.801c.766-.137 1.537-.22 2.315-.211 1.2.013 2.386.147 3.547.47a10.65 10.65 0 0 1 3.703 1.85c1.277.987 2.372 2.138 3.214 3.517a11.267 11.267 0 0 1 1.552 4.366c.035.25.072.5.091.75.035.46.057.92.085 1.381zm-3.035-.072c-.012-.208-.022-.525-.048-.84-.06-.723-.176-1.437-.414-2.126-.794-2.291-2.261-4.036-4.353-5.264a7.889 7.889 0 0 0-3.292-1.07c-.71-.065-1.421-.066-2.132.012-.624.069-1.233.2-1.822.414-.75.274-1.432.673-2.085 1.123-1.353.932-2.414 2.116-3.117 3.605-.402.85-.653 1.745-.803 2.671a9.645 9.645 0 0 0-.01 3.028c.113.735.33 1.442.606 2.13.681 1.702 1.758 3.09 3.296 4.112 1.32.875 2.767 1.386 4.351 1.49 1.045.07 2.078-.03 3.096-.281 1.458-.36 2.758-1.022 3.83-2.076 1.905-1.874 2.881-4.147 2.897-6.928zM60 21.496l.925.595c-.826 1.404-2.711 2.808-5.013 2.994-2.796.225-5.038-1.346-6.066-2.988l.933-.6c1.14 1.577 2.648 2.474 4.613 2.466 1.953-.007 3.469-.881 4.608-2.467zm-5.996-3.554h-1.12c-.023-.377-.165-.69-.479-.908-.241-.168-.511-.217-.8-.19-.539.047-.921.465-.988 1.078-.111.033-.865.044-1.106.015-.118-.503.286-1.367.856-1.773.804-.573 1.658-.625 2.525-.158a2.153 2.153 0 0 1 1.112 1.936zm2.76-.005c.027-.811.354-1.455 1.04-1.878.792-.489 1.618-.495 2.419-.02.707.419 1.039 1.071 1.077 1.907-.384.006-.753.005-1.136 0-.024-.379-.164-.692-.478-.911-.24-.169-.511-.217-.8-.192-.537.046-.923.467-.988 1.077-.11.036-.81.048-1.134.017z"/>
</svg>
