<svg xmlns="http://www.w3.org/2000/svg" width="42" height="20" viewBox="0 0 42 20">
    <path fill="#00BCD4" fill-rule="evenodd" d="M13.155 12.381c-.023-.295-.04-.592-.07-.887a5.222 5.222 0 0 0-.5-1.76 6.188 6.188 0 0 0-2.348-2.581 4.913 4.913 0 0 0-2.485-.735 6.236 6.236 0 0 0-1.253.098 4.917 4.917 0 0 0-2.101.888 6.42 6.42 0 0 0-1.5 1.574 5.618 5.618 0 0 0-.978 2.717 6.636 6.636 0 0 0 .243 2.44c.26.9.7 1.698 1.345 2.37 1.025 1.067 2.288 1.594 3.74 1.68.468.028.933-.013 1.393-.1a5.318 5.318 0 0 0 1.538-.532 5.287 5.287 0 0 0 1.44-1.154 5.891 5.891 0 0 0 1.08-1.692c.308-.743.44-1.522.456-2.326zM15.038.001c.003.052.007.089.007.125-.003 1.24-.005 2.478-.01 3.717-.003 1.02-.009 2.041-.013 3.061-.003.88-.004 1.761-.006 2.642l-.004 2.15c0 .317.008.635-.001.952a7.463 7.463 0 0 1-.98 3.507 7.849 7.849 0 0 1-1.323 1.76c-.787.772-1.692 1.35-2.736 1.696-.455.151-.921.246-1.396.302a9.064 9.064 0 0 1-1.438.055c-1.27-.053-2.466-.369-3.556-1.053a7.47 7.47 0 0 1-1.899-1.739 7.626 7.626 0 0 1-1.469-3.043 9.4 9.4 0 0 1-.189-1.314 5.57 5.57 0 0 1-.023-.652c.006-.18.026-.358.042-.537a8.629 8.629 0 0 1 .323-1.715 7.317 7.317 0 0 1 1.771-3.022 8.58 8.58 0 0 1 1.903-1.486 5.953 5.953 0 0 1 1.753-.65 8.676 8.676 0 0 1 1.468-.172 7.545 7.545 0 0 1 2.765.397 6.799 6.799 0 0 1 2.5 1.532c.204.196.394.41.591.614l.073.074V.219c0-.219 0-.22.221-.219l1.522.001h.104zm6.474 14.602c0-1.167-.002-2.334.001-3.501.002-.447-.001-.895.027-1.34a5.195 5.195 0 0 1 .957-2.74c.63-.887 1.464-1.501 2.471-1.877a6.074 6.074 0 0 1 1.557-.352c.164-.016.328-.027.492-.036.128-.007.144.01.144.144l.001 1.505a.654.654 0 0 1-.004.072c-.005.048-.033.073-.079.076-.047.003-.094.002-.141.002a3.738 3.738 0 0 0-1.523.29c-.715.31-1.252.822-1.63 1.508-.258.467-.402.973-.48 1.5a8.093 8.093 0 0 0-.08 1.131c-.009.959-.02 1.918-.02 2.877.002.791.018 1.583.028 2.374l.023 1.873c.004.44.006.88.008 1.32 0 .158-.008.168-.166.168-.477.002-.954.002-1.43.002h-.051c-.072-.009-.094-.029-.1-.103a1.917 1.917 0 0 1-.004-.163c0-.39.003-.778.003-1.167v-3.563h-.004zm-2.3-2.305v7.114c0 .18-.008.188-.189.188h-1.561c-.168 0-.185-.016-.185-.186l.002-6.96-.002-7.248c0-.04-.002-.082.003-.122.008-.069.037-.094.105-.1h1.673c.023 0 .047-.002.07.001.057.008.08.034.084.096.002.03 0 .061 0 .092v7.125zm.525-10.656c-.003.837-.684 1.524-1.512 1.513a1.505 1.505 0 0 1-1.483-1.53 1.5 1.5 0 0 1 1.5-1.513c.874.004 1.5.727 1.495 1.53zM42 12.323c-.009.997-.167 1.963-.53 2.891a7.443 7.443 0 0 1-1.4 2.256c-.457.51-.965.959-1.518 1.356a5.108 5.108 0 0 1-.92.527c-.59.26-1.2.455-1.839.55a7.51 7.51 0 0 1-1.021.093c-.31.004-.619.01-.927-.01a7.422 7.422 0 0 1-2.366-.538c-.73-.298-1.366-.74-1.955-1.26a7.733 7.733 0 0 1-1.716-2.139 7.588 7.588 0 0 1-.799-2.359 9.18 9.18 0 0 1-.13-1.496 7.595 7.595 0 0 1 1.524-4.642 7.881 7.881 0 0 1 1.808-1.795 6.903 6.903 0 0 1 2.755-1.145c.477-.088.957-.14 1.441-.135a8.405 8.405 0 0 1 2.21.299 6.58 6.58 0 0 1 2.306 1.178c.794.627 1.477 1.36 2.001 2.237.512.857.832 1.784.967 2.777.021.158.045.317.056.477.022.292.036.585.053.878zm-1.89-.046c-.007-.132-.014-.333-.03-.534a5.603 5.603 0 0 0-.258-1.352c-.494-1.458-1.408-2.568-2.71-3.348a4.842 4.842 0 0 0-2.05-.681 6.432 6.432 0 0 0-1.328.007 4.756 4.756 0 0 0-1.135.264c-.467.174-.892.428-1.299.714-.842.593-1.503 1.346-1.94 2.293a6.416 6.416 0 0 0-.501 1.7 6.264 6.264 0 0 0-.006 1.925c.07.467.205.917.377 1.355.425 1.082 1.095 1.966 2.053 2.615a5.405 5.405 0 0 0 2.71.948 6.143 6.143 0 0 0 1.927-.178c.909-.23 1.718-.65 2.386-1.321 1.186-1.192 1.794-2.638 1.804-4.407zm-2.743 1.396l.576.379c-.514.893-1.689 1.786-3.122 1.904-1.741.144-3.138-.856-3.778-1.9l.581-.382c.71 1.003 1.65 1.574 2.873 1.569 1.217-.005 2.16-.56 2.87-1.57zm-3.734-2.26h-.697c-.015-.24-.104-.439-.299-.578a.715.715 0 0 0-.498-.121c-.336.03-.574.296-.616.686-.069.021-.538.028-.688.01-.074-.32.178-.87.533-1.128.5-.364 1.032-.397 1.572-.1.463.253.714.776.693 1.23zm1.718-.004c.017-.515.221-.925.648-1.194.493-.311 1.008-.315 1.506-.013.441.267.648.682.671 1.213-.239.004-.469.004-.707 0-.015-.24-.102-.44-.297-.58a.718.718 0 0 0-.499-.121c-.334.03-.575.297-.615.685-.07.023-.505.03-.707.01z"/>
</svg>
