<svg xmlns="http://www.w3.org/2000/svg" width="141.27" height="24.192" viewBox="0 0 141.27 24.192">
    <defs>
        <style>
            .cls-1{fill:#0f3f61}.cls-2{fill:#fff}
        </style>
    </defs>
    <g id="logo_diro" transform="translate(-451.23 -511)">
        <path id="Combined_Shape" d="M42.936 24.192c-.245 0-.444-.005-.629-.016a9.6 9.6 0 0 1-2.958-.651A8.666 8.666 0 0 1 36.906 22a9.451 9.451 0 0 1-2.146-2.587 9 9 0 0 1-1-2.854 10.915 10.915 0 0 1-.163-1.81 9.034 9.034 0 0 1 1.9-5.614 9.615 9.615 0 0 1 2.26-2.171 8.822 8.822 0 0 1 3.444-1.386 9.767 9.767 0 0 1 1.707-.163h.1a10.789 10.789 0 0 1 2.761.361A8.367 8.367 0 0 1 48.653 7.2a9.982 9.982 0 0 1 2.5 2.706 8.638 8.638 0 0 1 1.209 3.359l.01.075v.036c.021.152.043.31.055.467.016.2.028.41.041.628l.006.094v.005l.019.335a9.4 9.4 0 0 1-.663 3.5 9.007 9.007 0 0 1-1.751 2.728 11.593 11.593 0 0 1-1.9 1.641 6.438 6.438 0 0 1-1.149.637 9.167 9.167 0 0 1-2.3.666 9.527 9.527 0 0 1-1.277.113h-.175zm.092-16.534a8.036 8.036 0 0 0-.861.046 6.036 6.036 0 0 0-1.419.319 7.246 7.246 0 0 0-1.623.864A6.98 6.98 0 0 0 36.7 11.66a7.518 7.518 0 0 0-.626 2.056 7.158 7.158 0 0 0 .465 3.969 6.712 6.712 0 0 0 2.561 3.163 6.939 6.939 0 0 0 3.388 1.147c.154.011.324.016.5.016a8.054 8.054 0 0 0 1.9-.233 6.373 6.373 0 0 0 2.982-1.6 7.15 7.15 0 0 0 2.256-5.331c0-.05-.006-.109-.009-.173v-.01a11.74 11.74 0 0 0-.028-.462 6.487 6.487 0 0 0-.322-1.636 7.416 7.416 0 0 0-3.388-4.05 6.212 6.212 0 0 0-2.552-.816 7.358 7.358 0 0 0-.799-.042zM9.391 24.163c-.18 0-.337 0-.468-.01a9.028 9.028 0 0 1-4.445-1.273 9.145 9.145 0 0 1-2.374-2.1A9.144 9.144 0 0 1 .268 17.1a10.813 10.813 0 0 1-.236-1.59A6.666 6.666 0 0 1 0 14.717c.006-.168.022-.34.039-.5l.014-.148a10.115 10.115 0 0 1 .4-2.074 8.835 8.835 0 0 1 2.22-3.657 10.709 10.709 0 0 1 2.379-1.8 7.567 7.567 0 0 1 2.19-.787 11.114 11.114 0 0 1 1.836-.207c.13-.005.259-.007.394-.007a9.685 9.685 0 0 1 3.063.487 8.6 8.6 0 0 1 3.124 1.853c.167.154.321.312.506.5l.055.057c.059.061.12.125.18.184l.057.056.034.033V.266c0-.266 0-.266.276-.266H18.8V.058a.866.866 0 0 1 0 .1v1.276c0 .982 0 2.095-.009 3.215q0 .883-.008 1.765v.132q0 .9-.008 1.806-.006 1.6-.008 3.2 0 1.278-.005 2.555V15.3a8.843 8.843 0 0 1-1.226 4.242 9.446 9.446 0 0 1-1.653 2.129 8.872 8.872 0 0 1-3.42 2.052 8.972 8.972 0 0 1-1.745.365 11.581 11.581 0 0 1-1.327.075zM9.5 7.76a8.385 8.385 0 0 0-1.373.122A6.3 6.3 0 0 0 5.5 8.956a7.951 7.951 0 0 0-1.874 1.9A6.677 6.677 0 0 0 2.4 14.147a7.813 7.813 0 0 0 .3 2.953 6.762 6.762 0 0 0 1.681 2.867A6.928 6.928 0 0 0 9.061 22c.139.007.259.01.368.01a7.572 7.572 0 0 0 1.373-.131 6.859 6.859 0 0 0 1.922-.644 6.557 6.557 0 0 0 1.8-1.4 7.151 7.151 0 0 0 1.35-2.047 7.428 7.428 0 0 0 .569-2.813l-.016-.212-.008-.114v-.12c-.014-.194-.03-.414-.054-.627a6.166 6.166 0 0 0-.625-2.129 7.616 7.616 0 0 0-2.94-3.121 6.324 6.324 0 0 0-3.11-.889zm14.279 15.949h-1.952c-.211 0-.23-.019-.23-.225V17.174v-2.1-4.393-4.418a1.049 1.049 0 0 1 0-.114c.01-.081.046-.113.132-.12h2.179c.072.01.1.041.1.116v17.336c.008.219-.001.228-.229.228zm3.274 0h-.031c-.091-.01-.117-.035-.125-.123-.005-.066-.005-.133-.005-.2v-.5-.912-4.3h-.002v-1.71-2.734c0-.464 0-.943.033-1.41a6.174 6.174 0 0 1 1.2-3.314 6.489 6.489 0 0 1 3.089-2.27 7.832 7.832 0 0 1 1.945-.436c.192-.017.393-.032.615-.044h.049c.118 0 .131.036.131.177v1.82a.559.559 0 0 1-.005.087.1.1 0 0 1-.1.092h-.2a4.788 4.788 0 0 0-1.882.351 4.155 4.155 0 0 0-2.034 1.817 5.2 5.2 0 0 0-.6 1.814 9.562 9.562 0 0 0-.1 1.369c0 .268 0 .535-.007.8v.278c-.006.741-.014 1.581-.013 2.4 0 .565.009 1.14.016 1.7v.295l.012.881.008.644v.131c.006.456.014.973.018 1.491.006.5.008 1.008.01 1.5v.1c0 .088 0 .144-.028.172s-.087.031-.179.031H27.048zm16.056-4.391A5.187 5.187 0 0 1 38.8 17l.624-.4.01-.006.092-.059a4.258 4.258 0 0 0 3.571 1.9h.019a4.281 4.281 0 0 0 3.588-1.9l.351.222.185.118.184.117a5.145 5.145 0 0 1-3.9 2.3c-.124.02-.269.025-.415.025zm1.471-5.5c-.159 0-.3-.005-.391-.014A1.653 1.653 0 0 1 45 12.356a1.733 1.733 0 0 1 1.883-.016 1.662 1.662 0 0 1 .839 1.468h-.884a.862.862 0 0 0-.371-.7.879.879 0 0 0-.514-.152h-.109a.862.862 0 0 0-.77.829 2.882 2.882 0 0 1-.494.03zm-5.676 0c-.161 0-.292 0-.36-.013a1.579 1.579 0 0 1 .666-1.363 1.836 1.836 0 0 1 1.065-.364 1.919 1.919 0 0 1 .9.242 1.66 1.66 0 0 1 .865 1.489h-.87a.862.862 0 0 0-.374-.7.872.872 0 0 0-.513-.152c-.03 0-.065 0-.11.005a.854.854 0 0 0-.769.83 3.483 3.483 0 0 1-.504.021zm-16.1-10h-.023a1.841 1.841 0 1 1 .014-3.682h.005a1.873 1.873 0 0 1 1.335.551 1.845 1.845 0 0 1 .533 1.3 1.854 1.854 0 0 1-1.863 1.83z" class="cls-1" data-name="Combined Shape" transform="translate(540 511)"/>
        <path id="Secure_ID" d="M-36.064-9.8h-3.906V0h1.652v-2.954h2.254c2.464 0 3.878-1.288 3.878-3.5 0-2.128-1.414-3.346-3.878-3.346zm-.07 5.362h-2.184v-3.878h2.184c1.512 0 2.366.616 2.366 1.9 0 1.334-.854 1.978-2.366 1.978zm8.68-3.066a3.643 3.643 0 0 0-3.892 3.766A3.657 3.657 0 0 0-27.454.056a3.653 3.653 0 0 0 3.878-3.794A3.639 3.639 0 0 0-27.454-7.5zm0 1.372a2.249 2.249 0 0 1 2.268 2.422 2.241 2.241 0 0 1-2.268 2.422 2.244 2.244 0 0 1-2.282-2.422 2.252 2.252 0 0 1 2.282-2.422zm4.1-1.316L-20.608 0h1.652l1.89-5.516L-15.176 0h1.666l2.716-7.448h-1.638l-1.9 5.852-1.89-5.852h-1.666l-1.88 5.848-1.932-5.848zM-6.888-7.5a3.616 3.616 0 0 0-3.766 3.79A3.582 3.582 0 0 0-6.846.056 4.053 4.053 0 0 0-3.766-1.2l-.854-.91a2.9 2.9 0 0 1-2.1.868 2.268 2.268 0 0 1-2.31-1.866h5.63C-3.206-5.8-4.27-7.5-6.888-7.5zm-2.17 3.22a2.11 2.11 0 0 1 2.184-1.936A1.913 1.913 0 0 1-4.8-4.284zm8.946-1.68v-1.488h-1.61V0h1.61v-3.892a2.256 2.256 0 0 1 2.576-2.072V-7.5A2.708 2.708 0 0 0-.112-5.964zM6.86-7.5a3.616 3.616 0 0 0-3.766 3.79A3.582 3.582 0 0 0 6.9.056 4.053 4.053 0 0 0 9.982-1.2l-.854-.91a2.9 2.9 0 0 1-2.1.868 2.268 2.268 0 0 1-2.31-1.862h5.628C10.542-5.8 9.478-7.5 6.86-7.5zM4.69-4.284a2.11 2.11 0 0 1 2.184-1.932 1.913 1.913 0 0 1 2.072 1.932zm12.824-6.1v4.224a2.944 2.944 0 0 0-2.646-1.358 3.48 3.48 0 0 0-3.542 3.766A3.511 3.511 0 0 0 14.9.07a2.887 2.887 0 0 0 2.618-1.344V0h1.61v-10.388zm-2.282 9.11a2.27 2.27 0 0 1-2.3-2.422 2.294 2.294 0 0 1 2.3-2.45A2.268 2.268 0 0 1 17.514-3.7a2.259 2.259 0 0 1-2.282 2.426zM30.058-7.5a2.91 2.91 0 0 0-2.6 1.344v-4.228h-1.61V0h1.61v-1.288A2.926 2.926 0 0 0 30.086.056 3.451 3.451 0 0 0 33.614-3.7a3.5 3.5 0 0 0-3.556-3.8zm-.336 6.188a2.253 2.253 0 0 1-2.268-2.436 2.253 2.253 0 0 1 2.268-2.412 2.26 2.26 0 0 1 2.268 2.408 2.261 2.261 0 0 1-2.268 2.436zm8.218 2.334l3.388-8.47h-1.61l-2.072 5.642-2.226-5.642h-1.666l3.08 7.336-.252.56a1.213 1.213 0 0 1-1.134.826 1.574 1.574 0 0 1-.966-.364L33.8 2.156a2.52 2.52 0 0 0 1.722.63 2.485 2.485 0 0 0 2.418-1.764z" class="cls-2" data-name="Secure ID" transform="translate(491.2 529)"/>
    </g>
</svg>
