<?xml version="1.0" encoding="UTF-8"?>
<svg width="14px" height="12px" viewBox="0 0 14 12" version="1.1" xmlns="http://www.w3.org/2000/svg" xmlns:xlink="http://www.w3.org/1999/xlink">
    <!-- Generator: Sketch 47.1 (45422) - http://www.bohemiancoding.com/sketch -->
    <title>double_tick</title>
    <desc>Created with Sketch.</desc>
    <defs></defs>
    <g id="Page-1" stroke="none" stroke-width="1" fill="none" fill-rule="evenodd" opacity="0.5">
        <g id="02c_web_diro_kyc" transform="translate(-361.000000, -308.000000)" fill="#FFFFFF">
            <g id="single_tick" transform="translate(358.000000, 304.000000)">
                <path d="M15.7197794,4.92443563 C15.7622275,4.91635378 15.7850437,4.94599717 15.8107351,4.96916911 C16.1582962,5.28260165 16.5058263,5.59606401 16.8527691,5.910093 C16.8810575,5.93568054 16.9236911,5.9564667 16.904121,6.0067173 C16.3597777,6.52774298 15.8138886,7.04724772 15.2713694,7.57003292 C12.7066767,10.0415872 10.1429115,12.5140361 7.57908454,14.9863956 C7.55036329,15.0140707 7.52535201,15.0452648 7.49860941,15.0748187 C7.43331418,15.0882984 7.40898305,15.0338727 7.37497512,15.001098 C5.96812885,13.6455246 4.56289022,12.2883408 3.15418898,10.9345866 C3.0736211,10.8571679 3.06681951,10.8182796 3.15211758,10.7390119 C3.45995119,10.4528369 3.76234353,10.1610256 4.05852169,9.86363742 C4.14134646,9.78046298 4.1816304,9.78949914 4.2608998,9.86647054 C5.2918966,10.8677846 6.32818009,11.8640289 7.35803299,12.8664166 C7.4513693,12.9572852 7.49322997,12.9489051 7.58124868,12.8630467 C10.2651546,10.244707 12.9521521,7.62931969 15.6384386,5.01324649 C15.6672217,4.98524333 15.6927276,4.95410884 15.7197794,4.92443563" id="Combined-Shape"></path>
            </g>
        </g>
    </g>
</svg>