<svg xmlns="http://www.w3.org/2000/svg" width="156" height="31" viewBox="0 0 156 31">
    <g fill="#FFF" fill-rule="nonzero" opacity=".3">
        <path d="M57 0c8.28.009 14.99 6.718 15 14.998A15 15 0 1 1 57 0zm0 28.371A13.377 13.377 0 0 0 69.07 9.237a13.45 13.45 0 0 0-2.996-4.058A13.37 13.37 0 0 0 45.148 21.19a13.489 13.489 0 0 0 2.425 3.286A13.338 13.338 0 0 0 57 28.37zm-5.126-16.777h.002a1.558 1.558 0 0 0-1.583 1.583h-1.62a3.203 3.203 0 1 1 6.403 0h-1.619a1.557 1.557 0 0 0-1.583-1.583zm10.253 0h.006a1.557 1.557 0 0 0-1.583 1.583h-1.622a3.203 3.203 0 1 1 6.404 0H63.71a1.557 1.557 0 0 0-1.583-1.583zm-5.154 11.715a9.06 9.06 0 0 1-1.056-.06 9.417 9.417 0 0 1-6.758-4.209l1.362-.878a7.704 7.704 0 0 0 12.948 0l1.362.878a9.411 9.411 0 0 1-7.858 4.27zM98.5 0c8.557.01 15.49 6.943 15.5 15.5 0 8.56-6.94 15.5-15.5 15.5C89.94 31 83 24.06 83 15.5 83 6.94 89.94 0 98.5 0zm0 29.324A13.784 13.784 0 0 0 112.324 15.5c-.002-7.632-6.19-13.817-13.821-13.816-7.632 0-13.819 6.187-13.82 13.819 0 7.631 6.185 13.82 13.817 13.821zm6.86-17.175a1.676 1.676 0 1 1-3.352 0 1.676 1.676 0 0 1 3.352 0zm-11.93.479a1.626 1.626 0 0 0-1.384.755l-1.418-.884a3.362 3.362 0 0 1 5.602 0l-1.418.874a1.617 1.617 0 0 0-1.382-.745zm5.099 11.525h-.005a9.744 9.744 0 0 1-7.67-3.763 3.258 3.258 0 0 1-2.237.294l.37-1.623a1.659 1.659 0 0 0 1.957-1.964l1.635-.37c.196.874.025 1.79-.473 2.534a7.96 7.96 0 0 0 13.084-.428l1.407.91a9.73 9.73 0 0 1-6.983 4.349c-.36.041-.723.062-1.085.061zM15.5 0C24.057.01 30.99 6.943 31 15.5 31 24.06 24.06 31 15.5 31 6.94 31 0 24.06 0 15.5 0 6.94 6.94 0 15.5 0zm0 29.324A13.784 13.784 0 0 0 29.324 15.5c-.002-7.632-6.19-13.817-13.821-13.816-7.632 0-13.819 6.187-13.82 13.819 0 7.631 6.185 13.82 13.817 13.821zM25.135 15.5a9.635 9.635 0 1 1-19.27 0H7.54a7.96 7.96 0 1 0 15.917 0h1.677zM12.01 12.044a1.676 1.676 0 1 1-3.352 0 1.676 1.676 0 0 1 3.352 0zm10.368 0a1.676 1.676 0 1 1-3.352 0 1.676 1.676 0 0 1 3.352 0zM140.5 0c8.557.01 15.49 6.943 15.5 15.5 0 8.56-6.94 15.5-15.5 15.5-8.56 0-15.5-6.94-15.5-15.5C125 6.94 131.94 0 140.5 0zm0 29.324A13.784 13.784 0 0 0 154.324 15.5c-.002-7.632-6.19-13.817-13.821-13.816-7.632 0-13.819 6.187-13.82 13.819 0 7.631 6.185 13.82 13.817 13.821zm9.635-13.824a9.64 9.64 0 0 1-9.67 9.635V23.46a7.986 7.986 0 0 0 7.993-7.959h1.677zm-13.126-3.456a1.676 1.676 0 1 1-3.352 0 1.676 1.676 0 0 1 3.352 0zm10.368 0a1.676 1.676 0 1 1-3.352 0 1.676 1.676 0 0 1 3.352 0z"/>
    </g>
</svg>
