<svg xmlns="http://www.w3.org/2000/svg" width="50" height="50" viewBox="0 0 50 50">
    <g fill="none" fill-rule="evenodd" transform="translate(3 3)">
        <circle cx="22" cy="22" r="24" stroke="#000" stroke-opacity=".38" stroke-width="1.091"/>
        <path fill="#000" fill-opacity=".38" fill-rule="nonzero" d="M27.5 9c-.446.007-.94.107-1.554.273-1.76.473-11.892 3.327-11.892 3.327a.496.496 0 0 0-.054.019c-1.605.615-2.616 1.195-3.232 2.036-.612.836-.748 1.84-.75 3.036v.382c-.007.073-.018.145-.018.218v12.436C10 32.525 11.449 34 13.214 34h17.572C32.55 34 34 32.525 34 30.727V18.2c0-1.854-1.63-3.4-3.429-3.4H13.43c-.641 0-1.217.187-1.697.491.415-.52 1.199-1.011 2.625-1.563.016-.007.02-.012.036-.019.065-.018 10.136-2.852 11.84-3.309.566-.152.99-.231 1.285-.236.294-.005.433.04.5.09.067.05.123.149.178.383.056.234.09.59.09 1.054v1.946h1.143V11.69c0-.504-.032-.932-.125-1.327-.094-.395-.277-.784-.608-1.036-.33-.253-.75-.334-1.196-.328zm-14.071 6.964H30.57c1.114 0 2.286 1.127 2.286 2.236v12.527c0 1.168-.924 2.11-2.071 2.11H13.214c-1.15 0-2.071-.94-2.071-2.11V19.146l.018-.964c.033-.395.232-.959.607-1.4.408-.482.966-.818 1.66-.818zm16.285 6.982c-.79 0-1.428.65-1.428 1.454a1.44 1.44 0 0 0 1.428 1.455c.788 0 1.429-.65 1.429-1.455 0-.804-.64-1.454-1.429-1.454z"/>
    </g>
</svg>
