<svg xmlns="http://www.w3.org/2000/svg" width="56" height="56" viewBox="0 0 56 56">
    <path fill="#F44336" fill-rule="nonzero" d="M28.01 0c-1.19 0-2.389.429-3.325 1.295l-.035.035L1.337 24.742c-1.785 1.785-1.768 4.703-.035 6.58l.035.034L24.65 54.664c1.785 1.784 4.703 1.767 6.58.035l.036-.035 23.313-23.308c1.864-1.863 1.89-4.83.105-6.614L31.266 1.33A4.567 4.567 0 0 0 28.01 0zm-.035 2.24c.63 0 1.265.214 1.715.665l23.418 23.412c.906.905.91 2.415-.14 3.465L29.725 53.054c-.013.013-.021.026-.035.035-1.037.923-2.572.892-3.465 0L2.947 29.817l-.035-.035a2.645 2.645 0 0 1-.665-1.785 2.345 2.345 0 0 1 .665-1.68L26.19 2.94l.035-.035a2.611 2.611 0 0 1 1.75-.665zM26.68 15.678c-.337 0-.455.232-.455.455v16.238c0 .337.232.455.455.455h2.555c.337 0 .455-.232.455-.455V16.133c0-.337-.232-.455-.455-.455H26.68zm0 20.823c-.337 0-.455.232-.455.455v3.01c0 .336.232.454.455.454h2.66c.337 0 .455-.232.455-.455v-2.904c0-.337-.232-.455-.455-.455V36.5h-2.66z"/>
</svg>
